<?xml version="1.0" encoding="UTF-8"?><svg version="1.1" width="32px" height="32px" viewBox="0 0 32.0 32.0" xmlns="http://www.w3.org/2000/svg" xmlns:xlink="http://www.w3.org/1999/xlink"><defs><clipPath id="i0"><path d="M661,0 L661,128 L0,128 L0,0 L661,0 Z"></path></clipPath><clipPath id="i1"><path d="M30.6204844,1.19436299 C32.440135,2.67570107 32.440135,4.38388612 30.7358713,6.20321708 L20.9632023,15.9986335 L30.7358713,25.7940498 C32.3246572,27.6179359 32.3246572,29.326121 30.6204844,30.8029039 C28.9162662,32.3953879 27.2120479,32.3953879 25.7341499,30.8029039 L15.9614808,21.0074875 L6.18881173,30.8029039 C4.36916111,32.3953879 2.66494287,32.3953879 1.19158939,30.8029039 C-0.286308664,29.2104199 -0.397196464,27.6133808 1.19158939,25.7940498 L10.9642585,15.9986335 L1.19158939,6.20321708 C-0.397196464,4.37933096 -0.397196464,2.67114591 1.19158939,1.19436299 C2.78037525,-0.286975089 4.37370569,-0.398120996 6.18881173,1.19436299 L15.9614808,10.9897794 L25.7341499,1.19436299 C27.3229357,-0.398120996 28.9162662,-0.398120996 30.6204844,1.19436299 Z"></path></clipPath></defs><g transform="translate(-505.0 -57.0)"><g clip-path="url(#i0)"><g transform="translate(505.0 56.99999999999987)"><g clip-path="url(#i1)"><polygon points="-1.99840144e-15,5.99520433e-15 32,5.99520433e-15 32,31.9972669 -1.99840144e-15,31.9972669 -1.99840144e-15,5.99520433e-15" stroke="none" fill="#E63846"></polygon></g></g></g></g></svg>