<svg width="66" height="47" viewBox="0 0 66 47" fill="none" xmlns="http://www.w3.org/2000/svg">
<path fill-rule="evenodd" clip-rule="evenodd" d="M63.9239 5V16.28L65.4599 47H25.0119L23.9879 29.848H21.9399C20.0219 33.5014 17.7372 36.666 15.086 39.3418L9.41181 33C9.41181 33 14.4895 29.3666 10.9118 24C7.91181 19.5 1.91181 23.5 1.91181 23.5L0 18.5839C4.57418 18.5736 8.38881 17.635 11.4439 15.768C14.6865 13.72 17.0759 10.904 18.6119 7.32001C18.9159 6.57677 19.1899 5.80343 19.4338 5H37.4118C37.4118 5 37.4118 0 42.4118 0C47.4118 0 47.4118 5 47.4118 5H63.9239Z" fill="#FC49AB"/>
</svg>
