<svg width="568" height="198" viewBox="0 0 568 198" fill="none"
  xmlns="http://www.w3.org/2000/svg">
  <path fill-rule="evenodd" clip-rule="evenodd" d="M509.035 160.127C511.023 159.573 512.808 158.754 514.39 157.672C517.803 155.283 520.619 152.381 522.838 148.968L561.75 163.048C557.313 172.947 550.401 180.968 541.014 187.112C536.338 190.088 530.772 192.322 524.316 193.816C523.373 191.798 521.269 190.55 519.217 189.333C515.675 187.232 512.287 185.222 515.284 179.5C515.284 179.5 507.843 182.5 506.784 176.5C505.725 170.5 512.784 169.5 512.784 169.5L509.035 160.127Z" fill="#1D9DE5"/>
  <path fill-rule="evenodd" clip-rule="evenodd" d="M466.262 187.88C476.673 193.341 488.619 196.072 502.102 196.072C510.409 196.072 517.814 195.32 524.316 193.816C523.373 191.798 521.269 190.55 519.217 189.333C515.675 187.232 512.287 185.222 515.284 179.5C515.284 179.5 507.843 182.5 506.784 176.5C505.725 170.5 512.784 169.5 512.784 169.5L509.035 160.127C506.948 160.709 504.637 161 502.102 161C496.982 161 492.545 159.805 488.79 157.416C485.67 155.431 483.081 152.562 481.022 148.81L470.784 157C470.784 157 475.784 162.5 470.784 167.5C465.784 172.5 458.784 167.5 458.784 167.5C456.672 169.914 453.383 173.049 450.464 175.66C454.954 180.538 460.22 184.611 466.262 187.88Z" fill="#1D9DE5"/>
  <path fill-rule="evenodd" clip-rule="evenodd" d="M450.464 175.66C447.218 172.133 444.377 168.185 441.942 163.816C436.139 153.405 433.238 140.947 433.238 126.44C433.238 122.417 433.531 118.485 434.116 114.645C434.922 114.594 435.792 114.521 436.688 114.445C441.058 114.078 446.056 113.658 447.284 115.5C447.284 115.5 447.284 123.5 454.284 122.5C461.284 121.5 458.784 113 458.784 113C460.464 113.311 463.121 112.832 465.972 112.318C470.466 111.508 475.444 110.61 477.85 112.58C477.789 112.914 477.731 113.253 477.675 113.595C477.664 113.61 477.653 113.625 477.642 113.64C477.078 114.408 476.437 115.945 477.062 118.665C477.123 118.932 477.197 119.21 477.284 119.5C478.784 119.5 482.284 120 482.284 125C482.284 129.074 478.3 129.829 476.825 129.968C476.49 130 476.284 130 476.284 130C474.821 131.829 475.82 134.728 477.401 136.936C477.413 136.954 477.426 136.971 477.439 136.989C477.949 140.559 478.746 143.698 479.83 146.408C480.205 147.245 480.603 148.046 481.022 148.81L470.784 157C470.784 157 475.784 162.5 470.784 167.5C465.784 172.5 458.784 167.5 458.784 167.5C456.672 169.914 453.383 173.049 450.464 175.66Z" fill="#1D9DE5"/>
  <path fill-rule="evenodd" clip-rule="evenodd" d="M519.971 136.936H477.431C477.434 136.954 477.436 136.971 477.439 136.989C477.426 136.971 477.414 136.954 477.401 136.936C475.82 134.728 474.821 131.829 476.284 130C476.284 130 476.49 130 476.825 129.968C478.3 129.829 482.284 129.074 482.284 125C482.284 120 477.284 119.5 477.284 119.5C477.197 119.21 477.123 118.931 477.062 118.664C476.437 115.945 477.078 114.408 477.642 113.64C477.653 113.625 477.664 113.61 477.675 113.595C477.673 113.61 477.67 113.625 477.668 113.64H517.897C516.948 116.315 516.154 120 518.284 120C518.284 120 523.284 120 523.284 124.5C523.284 129 518.284 129 518.284 129C518.284 130.095 518.881 131.17 519.469 132.229C520.359 133.832 521.228 135.398 519.971 136.936Z" fill="#1D9DE5"/>
  <path fill-rule="evenodd" clip-rule="evenodd" d="M547.034 73.9668C551.912 78.8239 555.878 84.6243 558.934 91.368C564.054 102.291 566.614 115.091 566.614 129.768V136.936H519.971C521.228 135.398 520.359 133.832 519.469 132.229C518.881 131.17 518.284 130.095 518.284 129C518.284 129 523.284 129 523.284 124.5C523.284 120 518.284 120 518.284 120C516.154 120 516.948 116.315 517.897 113.64H522.159C521.783 110.714 521.156 107.984 520.278 105.448C519.748 103.725 519.077 102.157 518.264 100.743C523.779 99.0669 528.68 91.985 529.784 89.5C529.784 89.5 534.284 99.5 540.284 95C546.284 90.5 538.784 84.5 538.784 84.5C538.163 77.9785 541.528 76.6004 544.327 75.4542C545.397 75.016 546.384 74.6117 547.034 73.9668Z" fill="#1D9DE5"/>
  <path fill-rule="evenodd" clip-rule="evenodd" d="M480.987 59.4325C479.901 64.5091 485.784 70 485.784 70C485.784 70 478.484 71 480.284 77C482.084 83 490.784 79.5 490.784 79.5C491.04 80.1406 492.019 80.9783 493.198 81.9878C495.943 84.3372 499.775 87.6172 498.116 91.5095C499.075 91.4151 500.063 91.368 501.078 91.368C506.198 91.368 510.294 92.648 513.366 95.208C515.35 96.6698 516.982 98.5149 518.264 100.743C523.779 99.0669 528.68 91.985 529.784 89.5C529.784 89.5 534.284 99.5 540.284 95C546.284 90.5 538.784 84.5 538.784 84.5C538.163 77.9785 541.528 76.6005 544.327 75.4542C545.397 75.016 546.384 74.6117 547.034 73.9668C544.012 70.957 540.64 68.3093 536.918 66.024C527.19 59.88 515.243 56.808 501.078 56.808C493.898 56.808 487.201 57.6828 480.987 59.4325Z" fill="#1D9DE5"/>
  <path fill-rule="evenodd" clip-rule="evenodd" d="M480.987 59.4326C479.901 64.5091 485.784 70 485.784 70C485.784 70 478.484 71 480.284 77C482.084 83 490.784 79.5 490.784 79.5C491.04 80.1407 492.019 80.9783 493.198 81.9878C495.943 84.3373 499.775 87.6173 498.116 91.5095C494.079 91.9066 490.544 93.1394 487.51 95.208C483.926 97.5973 481.195 101.437 479.318 106.728C478.726 108.504 478.237 110.455 477.85 112.58C475.444 110.61 470.466 111.508 465.972 112.318C463.121 112.832 460.464 113.311 458.784 113C458.784 113 461.284 121.5 454.284 122.5C447.284 123.5 447.284 115.5 447.284 115.5C446.056 113.658 441.058 114.078 436.688 114.445C435.792 114.521 434.922 114.594 434.116 114.645C435.319 106.756 437.757 99.2528 441.43 92.136C447.062 81.5547 454.913 73.0213 464.982 66.536C469.903 63.4193 475.238 61.0514 480.987 59.4326Z" fill="#1D9DE5"/>
  <path fill-rule="evenodd" clip-rule="evenodd" d="M369.861 87.7449C373.49 92.5278 379.966 98.8689 385.784 97.5C386.117 95 388.284 90.8 394.284 92C400.284 93.2 399.117 98 397.784 100.5C399.887 102.735 404.582 106.11 409.416 105.474L426.514 59.88H378.642L369.861 87.7449Z" fill="#D505E8"/>
  <path fill-rule="evenodd" clip-rule="evenodd" d="M409.416 105.474L399.216 132.675C397.076 131.092 393.449 129.677 387.784 131C387.284 133.5 386.406 137.726 380.284 135.5C374.162 133.274 377.784 127.5 377.784 127.5C367.102 126.645 363.114 120.557 360.828 116.412L369.861 87.7449C373.49 92.5278 379.966 98.8689 385.784 97.5C386.117 95 388.284 90.8 394.284 92C400.284 93.2 399.117 98 397.784 100.5C399.887 102.735 404.582 106.11 409.416 105.474Z" fill="#D505E8"/>
  <path fill-rule="evenodd" clip-rule="evenodd" d="M399.216 132.675L385.413 169.481L372.784 165C372.784 165 369.284 172.2 363.284 169C357.908 166.133 361.001 160.457 361.667 159.234C361.745 159.092 361.789 159.01 361.784 159C360.704 156.839 358.731 154.698 356.739 152.536C352.894 148.362 348.978 144.112 351.284 139.5L351.285 139.496H353.554L360.828 116.412C363.114 120.557 367.102 126.645 377.784 127.5C377.784 127.5 374.162 133.274 380.284 135.5C386.406 137.726 387.284 133.5 387.784 131C393.449 129.677 397.076 131.092 399.216 132.675Z" fill="#D505E8"/>
  <path fill-rule="evenodd" clip-rule="evenodd" d="M315.708 160.345L327.954 193H376.594L385.414 169.481L372.784 165C372.784 165 369.284 172.2 363.284 169C357.909 166.133 361.001 160.457 361.667 159.234C361.745 159.092 361.789 159.01 361.784 159C360.704 156.839 358.731 154.698 356.739 152.536C352.894 148.362 348.978 144.112 351.284 139.5C351.264 139.499 351.243 139.497 351.223 139.496H350.994L350.99 139.483C346.627 139.262 344.882 140.788 343.089 142.355C341.92 143.377 340.731 144.416 338.784 145C338.784 145 336.284 139.5 330.784 143C325.284 146.5 328.784 151.5 328.784 151.5L315.708 160.345Z" fill="#D505E8"/>
  <path fill-rule="evenodd" clip-rule="evenodd" d="M302.423 124.917C304.39 121.635 307.853 119.063 313.784 120C313.784 120 315.284 124.95 319.784 124.5C324.577 124.021 324.784 118 324.784 118C327.985 112.931 334.774 104.702 340.638 104.489L350.99 139.483C346.627 139.262 344.882 140.788 343.089 142.355C341.92 143.377 340.731 144.416 338.784 145C338.784 145 336.284 139.5 330.784 143C325.284 146.5 328.784 151.5 328.784 151.5L315.709 160.345L302.423 124.917ZM351.223 139.496H351.283L351.284 139.5C351.264 139.499 351.243 139.497 351.223 139.496Z" fill="#D505E8"/>
  <path fill-rule="evenodd" clip-rule="evenodd" d="M337.603 94.2277L340.638 104.489C334.774 104.702 327.985 112.931 324.784 118C324.784 118 324.577 124.021 319.784 124.5C315.284 124.95 313.784 120 313.784 120C307.852 119.063 304.39 121.635 302.423 124.917L290.829 94H306.784C306.784 94 306.013 89.0301 310.784 88.5C315.284 88 315.784 93 315.784 93C318.942 93.5742 327.195 94.4947 337.603 94.2277Z" fill="#D505E8"/>
  <path fill-rule="evenodd" clip-rule="evenodd" d="M290.829 94H306.784C306.784 94 306.013 89.0301 310.784 88.5C315.284 88 315.784 93 315.784 93C318.942 93.5742 327.195 94.4947 337.603 94.2277L327.442 59.88H278.034L290.829 94Z" fill="#D505E8"/>
  <path fill-rule="evenodd" clip-rule="evenodd" d="M220.12 138.126V193H263.64V94.1042C258.663 96.7226 252.416 103.828 248.784 109C248.784 109 241.948 102.808 236.284 108C230.284 113.5 235.784 120.5 235.784 120.5C233.009 127.438 226.062 133.814 220.12 138.126Z" fill="#FF9900"/>
  <path fill-rule="evenodd" clip-rule="evenodd" d="M220.12 138.126V59.88H263.64V94.1042C258.663 96.7226 252.416 103.828 248.784 109C248.784 109 241.948 102.808 236.284 108C230.284 113.5 235.784 120.5 235.784 120.5C233.009 127.438 226.062 133.814 220.12 138.126Z" fill="#FF9900"/>
  <path fill-rule="evenodd" clip-rule="evenodd" d="M242.284 1.00208V17.5C242.284 17.5 250.784 17.5 250.784 25.5C250.784 33.5 242.284 33.5 242.284 33.5V49.1259C249.942 49.0451 255.951 46.6565 260.312 41.96C264.92 37.1814 267.224 31.5494 267.224 25.064C267.224 18.2374 264.92 12.52 260.312 7.91203C255.951 3.38333 249.942 1.08001 242.284 1.00208Z" fill="#FF9900"/>
  <path fill-rule="evenodd" clip-rule="evenodd" d="M242.284 1.00205V17.5C242.284 17.5 250.784 17.5 250.784 25.5C250.784 33.5 242.284 33.5 242.284 33.5V49.1259C242.15 49.1273 242.015 49.128 241.88 49.128C234.029 49.128 227.8 46.7387 223.192 41.96C218.755 37.1813 216.536 31.5493 216.536 25.064C216.536 18.2373 218.755 12.52 223.192 7.912C227.8 3.304 234.029 1 241.88 1C242.015 1 242.15 1.00068 242.284 1.00205Z" fill="#FF9900"/>
  <path fill-rule="evenodd" clip-rule="evenodd" d="M147.87 136.879V193H191.39V116.882C186.878 117.192 178.882 122.675 174.784 126.5C174.784 126.5 170.284 121 165.284 123.5C159.784 126.25 161.784 132.5 161.784 132.5C159.081 135.975 152.601 136.667 147.87 136.879Z" fill="#5FE8FF"/>
  <path fill-rule="evenodd" clip-rule="evenodd" d="M191.39 84.5211V116.882C186.878 117.192 178.882 122.675 174.784 126.5C174.784 126.5 170.284 121 165.284 123.5C159.784 126.25 161.784 132.5 161.784 132.5C159.081 135.975 152.601 136.667 147.87 136.879V77.2423C154.175 74.1888 162.641 70.5191 166.284 73.5C166.451 71.6667 171.082 68.6703 174.284 70.5C177.784 72.5 177.451 75.6667 176.784 77.5C177.464 77.9922 178.16 78.5338 178.877 79.0915C182.389 81.8239 186.396 84.9419 191.39 84.5211Z" fill="#5FE8FF"/>
  <path fill-rule="evenodd" clip-rule="evenodd" d="M147.87 77.2423C154.175 74.1888 162.641 70.5191 166.284 73.5C166.451 71.6667 171.082 68.6703 174.284 70.5C177.784 72.5 177.451 75.6667 176.784 77.5C177.464 77.9922 178.16 78.5338 178.877 79.0915C182.389 81.8239 186.396 84.9419 191.39 84.521V8.67999H147.87V77.2423Z" fill="#5FE8FF"/>
  <path fill-rule="evenodd" clip-rule="evenodd" d="M120.296 151V162.28L121.832 193H81.3839L80.3599 175.848H78.312C76.3939 179.501 74.1093 182.666 71.4581 185.342L65.7839 179C65.7839 179 70.8616 175.367 67.2839 170C64.2839 165.5 58.2839 169.5 58.2839 169.5L56.3721 164.584C60.9463 164.574 64.7609 163.635 67.8159 161.768C71.0586 159.72 73.4479 156.904 74.9839 153.32C75.288 152.577 75.562 151.803 75.8058 151H93.7839C93.7839 151 93.7839 146 98.7839 146C103.784 146 103.784 151 103.784 151H120.296Z" fill="#FC49AB"/>
  <path fill-rule="evenodd" clip-rule="evenodd" d="M12.7761 185.832C20.6267 192.659 30.5254 196.072 42.4721 196.072C50.4934 196.072 57.5761 194.451 63.7201 191.208C66.576 189.621 69.1554 187.666 71.4582 185.342L65.784 179C65.784 179 70.8617 175.367 67.284 170C64.284 165.5 58.284 169.5 58.284 169.5L56.3722 164.584C56.3468 164.584 56.3215 164.584 56.2961 164.584C51.8587 164.584 48.4454 163.389 46.0561 161C44.9507 159.725 44.1206 158.322 43.566 156.792L33.784 163.5C33.784 163.5 26.884 156.9 21.284 162.5C15.684 168.1 21.284 174.5 21.284 174.5L11.1501 184.284C11.672 184.815 12.214 185.331 12.7761 185.832Z" fill="#FC49AB"/>
  <path fill-rule="evenodd" clip-rule="evenodd" d="M11.1501 184.284C4.38336 177.402 1 168.02 1 156.136C1 144.36 5.01067 135.059 13.032 128.232C18.0444 123.951 24.1429 120.755 31.3276 118.646L36.7839 128C36.7839 128 33.2839 129.5 35.2839 132.5C37.1329 135.273 39.7839 133 39.7839 133L47.6938 142.159C47.2889 142.45 46.9137 142.757 46.568 143.08C44.008 145.299 42.728 148.2 42.728 151.784C42.728 153.582 43.0073 155.252 43.5659 156.792L33.7839 163.5C33.7839 163.5 26.8839 156.9 21.2839 162.5C15.6839 168.1 21.2839 174.5 21.2839 174.5L11.1501 184.284Z" fill="#FC49AB"/>
  <path fill-rule="evenodd" clip-rule="evenodd" d="M31.3276 118.646C35.8853 117.308 40.8801 116.408 46.312 115.944L77.2839 113.217V119C77.2839 119 70.7839 119 70.7839 125C70.7839 131 77.2839 131 77.2839 131V136.305L59.112 138.472C54.0929 139.062 50.2868 140.291 47.6938 142.159L39.7839 133C39.7839 133 37.1329 135.273 35.2839 132.5C33.2839 129.5 36.7839 128 36.7839 128L31.3276 118.646Z" fill="#FC49AB"/>
  <path fill-rule="evenodd" clip-rule="evenodd" d="M118.374 93.4522C119.655 98.4454 120.296 103.895 120.296 109.8V151H103.784C103.784 151 103.784 146 98.7839 146C93.7839 146 93.7839 151 93.7839 151H75.8059C76.794 147.745 77.288 143.995 77.288 139.752V136.304L77.2839 136.305V131C77.2839 131 70.7839 131 70.7839 125C70.7839 119 77.2839 119 77.2839 119V113.217L77.288 113.217V111.998L90.7839 104.5C90.7839 104.5 87.9929 96.9253 94.7839 94.5C101.784 92 104.784 98.5 104.784 98.5L118.374 93.4522Z" fill="#FC49AB"/>
  <path fill-rule="evenodd" clip-rule="evenodd" d="M118.374 93.4522L104.784 98.5C104.784 98.5 101.784 92 94.7839 94.5C87.9929 96.9253 90.7839 104.5 90.7839 104.5L77.288 111.998V106.472C77.288 101.523 75.8373 97.6826 72.936 94.952C70.0347 92.0506 66.3653 90.6 61.928 90.6C61.8799 90.6 61.8319 90.6001 61.7839 90.6004V81.5C61.7839 81.5 55.7839 81.5 55.7839 75.5C55.7839 69.5 61.7839 69.5 61.7839 69.5V56.8101C62.0021 56.8087 62.2208 56.808 62.44 56.808C81.0427 56.808 95.2933 61.5013 105.192 70.888C111.669 76.9263 116.063 84.4477 118.374 93.4522Z" fill="#FC49AB"/>
  <path fill-rule="evenodd" clip-rule="evenodd" d="M61.7839 90.6004V81.5C61.7839 81.5 55.7839 81.5 55.7839 75.5C55.7839 69.5 61.7839 69.5 61.7839 69.5V56.8101C50.1148 56.887 40.0082 59.0196 31.4639 63.208C22.9306 67.304 16.2746 73.0213 11.4959 80.36C6.71725 87.6986 4.15725 95.976 3.81592 105.192H45.5439C45.8853 100.755 47.4213 97.256 50.1519 94.696C53.025 91.9918 56.9024 90.6267 61.7839 90.6004Z" fill="#FC49AB"/>
</svg>
