<svg width="65" height="64" viewBox="0 0 65 64" fill="none" xmlns="http://www.w3.org/2000/svg">
<path fill-rule="evenodd" clip-rule="evenodd" d="M46.8709 0C45.7846 5.07656 51.6677 10.5674 51.6677 10.5674C51.6677 10.5674 44.3677 11.5674 46.1677 17.5674C47.9677 23.5674 56.6677 20.0674 56.6677 20.0674C56.924 20.7081 57.9026 21.5458 59.0819 22.5552C61.8268 24.9047 65.6588 28.1847 64 32.0769C59.9631 32.474 56.4277 33.7068 53.3938 35.7754C49.8098 38.1648 47.0791 42.0048 45.2018 47.2954C44.6097 49.0717 44.1203 51.0225 43.7337 53.1479C41.328 51.1777 36.3497 52.0753 31.8559 52.8855C29.0044 53.3997 26.348 53.8786 24.6677 53.5674C24.6677 53.5674 27.1677 62.0674 20.1677 63.0674C13.1677 64.0675 13.1677 56.0675 13.1677 56.0675C11.9397 54.2255 6.94176 54.6454 2.57188 55.0126C1.67551 55.088 0.80556 55.161 0 55.212C1.20267 47.3231 3.64059 39.8203 7.31379 32.7034C12.9458 22.1221 20.7965 13.5888 30.8658 7.10344C35.787 3.9867 41.122 1.61889 46.8709 0Z" fill="#1D9DE5"/>
</svg>
