<svg width="50" height="65" viewBox="0 0 50 65" fill="none" xmlns="http://www.w3.org/2000/svg">
<path fill-rule="evenodd" clip-rule="evenodd" d="M17.2261 64.2663C13.9797 60.7391 11.139 56.7912 8.70398 52.4225C2.90131 42.0118 0 29.5532 0 15.0465C0 11.0232 0.292733 7.09136 0.878199 3.25101C1.68376 3.20011 2.5537 3.12701 3.45008 3.05168C7.81996 2.68449 12.8179 2.26451 14.0459 4.10651C14.0459 4.10651 14.0459 12.1065 21.0459 11.1065C28.0459 10.1065 25.5459 1.60651 25.5459 1.60651C27.2262 1.91768 29.8826 1.43872 32.7341 0.924597C37.2279 0.114339 42.2062 -0.783269 44.6119 1.18699C44.5511 1.52087 44.4929 1.85906 44.4372 2.20156C44.4261 2.21625 44.4149 2.23121 44.4036 2.2465C43.8396 3.01413 43.1986 4.55127 43.824 7.27123C43.8853 7.53813 43.9589 7.81643 44.0459 8.1065C45.5459 8.1065 49.0459 8.60651 49.0459 13.6065C49.0459 17.6806 45.0623 18.435 43.587 18.5748C43.2517 18.6065 43.0459 18.6065 43.0459 18.6065C41.5828 20.4354 42.5815 23.3347 44.1628 25.5425C44.1754 25.5602 44.1882 25.5778 44.2009 25.5954C44.7111 29.1653 45.5082 32.305 46.592 35.0145C46.9673 35.8517 47.3645 36.6522 47.7837 37.4161L37.5458 45.6065C37.5458 45.6065 42.5458 51.1065 37.5458 56.1065C32.5458 61.1065 25.5459 56.1065 25.5459 56.1065C23.4336 58.5206 20.1451 61.6555 17.2261 64.2663Z" fill="#1D9DE5"/>
</svg>
