<svg width="74" height="48" viewBox="0 0 74 48" fill="none" xmlns="http://www.w3.org/2000/svg">
<path fill-rule="evenodd" clip-rule="evenodd" d="M15.7979 39.0704C26.2086 44.5317 38.1552 47.2624 51.6379 47.2624C59.9452 47.2624 67.35 46.5103 73.8522 45.0061C72.9086 42.9883 70.8049 41.7405 68.7529 40.5234C65.2108 38.4225 61.8224 36.4127 64.8199 30.6904C64.8199 30.6904 57.3788 33.6904 56.3198 27.6904C55.2608 21.6904 62.3198 20.6904 62.3198 20.6904L58.5707 11.3175C56.4836 11.8994 54.1727 12.1904 51.6379 12.1904C46.5179 12.1904 42.0806 10.9957 38.3259 8.60638C35.2063 6.62119 32.6169 3.7524 30.5577 0L20.3197 8.19038C20.3197 8.19038 25.3197 13.6904 20.3197 18.6904C15.3197 23.6904 8.31981 18.6904 8.31981 18.6904C6.20751 21.1044 2.91902 24.2394 0 26.8501C4.48992 31.7283 9.75589 35.8017 15.7979 39.0704Z" fill="#1D9DE5"/>
</svg>
