<svg width="77" height="77" viewBox="0 0 77 77" fill="none" xmlns="http://www.w3.org/2000/svg">
<path d="M0.870088 11.6299C0.0890506 12.411 0.089029 13.6773 0.870088 14.4584L24.9117 38.5L0.870088 62.5416C0.0890506 63.3227 0.089029 64.589 0.870088 65.3701L11.4767 75.9767C12.2577 76.7577 13.5241 76.7577 14.3051 75.9767L38.3467 51.935L62.3884 75.9767C63.1694 76.7577 64.4358 76.7577 65.2168 75.9767L75.8234 65.3701C76.6044 64.589 76.6045 63.3227 75.8234 62.5416L51.7818 38.5L75.8234 14.4584C76.6044 13.6773 76.6045 12.411 75.8234 11.6299L65.2168 1.02335C64.4357 0.242288 63.1694 0.24231 62.3884 1.02335L38.3467 25.065L14.3051 1.02335C13.5241 0.242288 12.2577 0.24231 11.4767 1.02335L0.870088 11.6299Z" fill="#FF4949"/>
</svg>
