<svg id="eEnsPRATejM1" xmlns="http://www.w3.org/2000/svg" xmlns:xlink="http://www.w3.org/1999/xlink" viewBox="0 0 200 200" shape-rendering="geometricPrecision" text-rendering="geometricPrecision">
<style><![CDATA[
#eEnsPRATejM2_tr {animation: eEnsPRATejM2_tr__tr 2056.07476635514ms linear 1 normal forwards}@keyframes eEnsPRATejM2_tr__tr { 0% {transform: translate(100px,100px) rotate(0deg);animation-timing-function: cubic-bezier(0.19,1,0.22,1)} 27.272727% {transform: translate(100px,100px) rotate(360deg)} 100% {transform: translate(100px,100px) rotate(360deg)}} #eEnsPRATejM3 {animation: eEnsPRATejM3_f_o 2056.07476635514ms linear 1 normal forwards}@keyframes eEnsPRATejM3_f_o { 0% {fill-opacity: 1} 22.727273% {fill-opacity: 1} 27.272727% {fill-opacity: 0;animation-timing-function: cubic-bezier(0.55,0.085,0.68,0.53)} 36.363636% {fill-opacity: 1} 100% {fill-opacity: 1}} #eEnsPRATejM4 {animation: eEnsPRATejM4_f_o 2056.07476635514ms linear 1 normal forwards}@keyframes eEnsPRATejM4_f_o { 0% {fill-opacity: 1} 36.363636% {fill-opacity: 1} 40.909091% {fill-opacity: 0;animation-timing-function: cubic-bezier(0.55,0.085,0.68,0.53)} 50% {fill-opacity: 1} 100% {fill-opacity: 1}} #eEnsPRATejM5 {animation: eEnsPRATejM5_f_o 2056.07476635514ms linear 1 normal forwards}@keyframes eEnsPRATejM5_f_o { 0% {fill-opacity: 1} 31.818182% {fill-opacity: 1} 36.363636% {fill-opacity: 0;animation-timing-function: cubic-bezier(0.55,0.085,0.68,0.53)} 45.454545% {fill-opacity: 1} 100% {fill-opacity: 1}} #eEnsPRATejM6 {animation: eEnsPRATejM6_f_o 2056.07476635514ms linear 1 normal forwards}@keyframes eEnsPRATejM6_f_o { 0% {fill-opacity: 1} 27.272727% {fill-opacity: 1} 31.818182% {fill-opacity: 0;animation-timing-function: cubic-bezier(0.55,0.085,0.68,0.53)} 40.909091% {fill-opacity: 1} 100% {fill-opacity: 1}}
]]></style>
<g id="eEnsPRATejM2_tr" transform="translate(100,100) rotate(0)"><g transform="translate(-100.250001,-100.25)"><path id="eEnsPRATejM3" d="M8.88061,79.4139L42.1346,46.1599l54.09,54.0901-52.8242,52.824v-26.645l-1.7769.784c-10.8071,4.769-23.8914,2.725-32.74289-6.127-11.50746-11.507-11.5075-30.1646,0-41.6721Z" clip-rule="evenodd" fill="#2a2c2e" fill-rule="evenodd"/><path id="eEnsPRATejM4" d="M74.0713,157.1h-26.6456L100.25,104.275l54.09,54.09-33.254,33.254c-11.507,11.508-30.1647,11.508-41.6721,0-8.8515-8.851-10.8962-21.935-6.1268-32.743l.7842-1.776Z" clip-rule="evenodd" fill="#2a2c2e" fill-rule="evenodd"/><path id="eEnsPRATejM5" d="M191.619,121.086L158.365,154.34l-54.09-54.09L157.1,47.4257v26.6456l1.776-.7842c10.808-4.7694,23.892-2.7247,32.743,6.1268c11.508,11.5074,11.508,30.1651,0,41.6721Z" clip-rule="evenodd" fill="#2a2c2e" fill-rule="evenodd"/><path id="eEnsPRATejM6" d="M126.429,43.4004h26.645L100.25,96.2246l-54.0901-54.09L79.4139,8.88061c11.5075-11.5075,30.1651-11.50746,41.6721,0c8.852,8.85149,10.896,21.93579,6.127,32.74289l-.784,1.7769Z" clip-rule="evenodd" fill="#2a2c2e" fill-rule="evenodd"/></g></g></svg>
