<svg width="120" height="93" viewBox="0 0 120 93" fill="none" xmlns="http://www.w3.org/2000/svg">
<path d="M118.542 12.0938L107.235 0.786453C106.735 0.286453 106.052 0 105.344 0C104.636 0.005208 103.959 0.286453 103.464 0.786453L41.2345 63.0158L15.9011 37.6825C15.4011 37.1825 14.724 36.9012 14.0157 36.9012C13.3073 36.9012 12.6302 37.1825 12.1302 37.6825L0.781253 48.9481C0.281253 49.4481 0 50.1251 0 50.8335C0 51.5419 0.281253 52.2242 0.781253 52.7242L39.3546 91.2975C40.3963 92.3288 42.0734 92.3288 43.115 91.2975L118.542 15.8709C119.042 15.3709 119.323 14.6886 119.323 13.9802C119.323 13.2771 119.042 12.5938 118.542 12.0938Z" fill="#00FFA3"/>
</svg>
