<svg width="13" height="12" viewBox="0 0 13 12" fill="none" xmlns="http://www.w3.org/2000/svg">
<path d="M6.00837 -2.80509e-05C7.6003 0.00137824 9.12599 0.635605 10.2502 1.76291C11.3747 2.88979 12.0047 4.41745 12.0024 6.00938C12.0001 7.60131 11.3649 9.12664 10.2376 10.2502C9.10974 11.3738 7.58158 12.0033 5.98977 12.0001C4.39831 11.9968 2.87298 11.3612 1.74989 10.2328C0.626757 9.10453 -0.0018794 7.57635 0.00244064 5.98454C0.00665939 4.39501 0.641349 2.87159 1.76729 1.74983C2.89371 0.627625 4.41907 -0.00146806 6.00861 -2.80509e-05H6.00837ZM5.54993 4.56001H4.47929C4.40148 4.56094 4.32413 4.57173 4.24913 4.59235C4.15725 4.61157 4.0874 4.68563 4.07382 4.77845C4.04851 4.87923 4.09913 4.98329 4.19382 5.02548C4.30913 5.07939 4.43289 5.11267 4.55992 5.12392C4.89367 5.13939 5.02773 5.28611 4.97758 5.62923C4.88383 6.27143 4.75821 6.90844 4.64992 7.54925C4.57679 7.98144 4.51539 8.41456 4.44461 8.84634C4.34992 9.42853 4.89227 9.97415 5.32305 10.0463C5.57805 10.0824 5.83587 10.0988 6.09369 10.0956C6.64588 10.0951 7.17323 9.86682 7.55146 9.46462C7.62037 9.40134 7.67193 9.32166 7.70146 9.23306C7.71599 9.15571 7.69771 9.07556 7.65083 9.01228C7.59458 8.97666 7.5252 8.96916 7.46286 8.99166C7.36443 9.024 7.27677 9.09103 7.18067 9.13322C7.06864 9.18572 6.95098 9.22604 6.83004 9.25322C6.73301 9.27713 6.62988 9.25697 6.54878 9.19838C6.46722 9.13978 6.41565 9.04838 6.40768 8.94854C6.38753 8.83697 6.38378 8.7226 6.3969 8.6101C6.43768 8.33166 6.49534 8.05556 6.5455 7.77946C6.68284 7.02712 6.8216 6.27381 6.96223 5.52009C7.00066 5.31383 7.06535 5.11086 7.02223 4.89382C7.01566 4.79726 6.9702 4.70726 6.8966 4.64492C6.823 4.58211 6.72737 4.55164 6.63082 4.56007L5.54993 4.56001ZM6.2029 1.89143C5.7604 1.87174 5.35023 2.12206 5.16508 2.52471C4.97992 2.9269 5.0568 3.40128 5.35962 3.72472C5.66243 4.04769 6.13072 4.1555 6.54416 3.99753C6.95807 3.83909 7.23463 3.44627 7.24447 3.00377C7.26135 2.41033 6.79587 1.91439 6.2029 1.89377V1.89143Z" fill="#2A2C2E"/>
</svg>
