<svg width="32" height="32" viewBox="0 0 32 32" fill="none" xmlns="http://www.w3.org/2000/svg">
<g clip-path="url(#clip0_1_14)">
<mask id="mask0_1_14" style="mask-type:luminance" maskUnits="userSpaceOnUse" x="-505" y="-57" width="661" height="128">
<path d="M156 -57V71H-505V-57H156Z" fill="white"/>
</mask>
<g mask="url(#mask0_1_14)">
<mask id="mask1_1_14" style="mask-type:luminance" maskUnits="userSpaceOnUse" x="0" y="0" width="32" height="32">
<path d="M30.6205 1.19436C32.4401 2.6757 32.4401 4.38389 30.7359 6.20322L20.9632 15.9986L30.7359 25.7941C32.3247 27.6179 32.3247 29.3261 30.6205 30.8029C28.9163 32.3954 27.212 32.3954 25.7341 30.8029L15.9615 21.0075L6.18881 30.8029C4.36916 32.3954 2.66494 32.3954 1.19159 30.8029C-0.286309 29.2104 -0.397197 27.6134 1.19159 25.7941L10.9643 15.9986L1.19159 6.20322C-0.397197 4.37933 -0.397197 2.67115 1.19159 1.19436C2.78038 -0.286975 4.37371 -0.398121 6.18881 1.19436L15.9615 10.9898L25.7341 1.19436C27.3229 -0.398121 28.9163 -0.398121 30.6205 1.19436Z" fill="white"/>
</mask>
<g mask="url(#mask1_1_14)">
<path d="M0 0H32V31.9973H0V0Z" fill="#2A2C2E" fill-opacity="0.3"/>
</g>
</g>
</g>
<defs>
<clipPath id="clip0_1_14">
<rect width="32" height="32" fill="white"/>
</clipPath>
</defs>
</svg>
