<svg width="142" height="24" viewBox="0 0 142 24" fill="none" xmlns="http://www.w3.org/2000/svg">
<path d="M7.27251 19.1519C10.6006 21.3568 15.1287 20.9931 18.0609 18.0609C19.7564 16.3654 20.5931 14.1364 20.571 11.9143L23.5927 8.89254C24.6619 12.8959 23.626 17.3445 20.4853 20.4853C15.799 25.1716 8.20101 25.1716 3.51472 20.4853C3.10316 20.0737 2.72774 19.6397 2.38847 19.1872L6.39365 15.182H11.2424L7.27251 19.1519Z" fill="white"/>
<path d="M3.51472 3.51472C0.373967 6.65547 -0.661854 11.1041 0.407258 15.1075L3.429 12.0857C3.40691 9.86362 4.24361 7.63456 5.93909 5.93909C8.87131 3.00686 13.3994 2.64322 16.7275 4.84814L12.7576 8.81802H17.6063L21.6115 4.81283C21.2723 4.3603 20.8968 3.92628 20.4853 3.51472C15.799 -1.17157 8.20101 -1.17157 3.51472 3.51472Z" fill="white"/>
<path d="M130.568 13.2343V13.0114H133.157V13.2343C133.157 13.7143 133.517 14.04 134.083 14.2457C134.631 14.4514 135.334 14.52 135.814 14.52C136.38 14.52 137.066 14.4686 137.614 14.2629C138.146 14.0571 138.488 13.7314 138.488 13.1829C138.488 12.72 138.128 12.4629 137.528 12.3257C137.22 12.24 136.894 12.2057 136.586 12.1886C136.26 12.1714 135.968 12.1714 135.728 12.1714C133.277 12.1714 130.774 11.7257 130.774 8.84572C130.774 6.03429 133.277 5.22858 135.814 5.22858C138.214 5.22858 140.871 6.29143 140.871 8.91429V9.15429H138.283V8.91429C138.283 8.45143 137.957 8.12572 137.46 7.92001C136.946 7.71429 136.311 7.62858 135.814 7.62858C135.3 7.62858 134.666 7.68001 134.168 7.86858C133.688 8.04 133.38 8.34858 133.38 8.84572C133.38 9.27429 133.706 9.51429 134.271 9.63429C134.546 9.70286 134.854 9.73715 135.146 9.75429C135.437 9.77143 135.728 9.77143 135.934 9.77143C138.454 9.77143 141.094 10.2171 141.094 13.1829C141.094 16.0971 138.454 16.9371 135.814 16.9371C133.448 16.9371 130.568 15.9257 130.568 13.2343Z" fill="white"/>
<path d="M117.092 11.0743C117.092 8.09143 119.149 5.22858 122.766 5.22858C125.286 5.22858 127.24 6.70286 128.046 8.79429L128.166 9.08572L125.269 9.13715L125.183 9.01715C124.652 8.22858 123.778 7.73143 122.766 7.73143C120.829 7.73143 119.8 9.39429 119.8 11.0743C119.8 12.7714 120.846 14.4 122.766 14.4C124.12 14.4 125.115 13.5429 125.543 12.3943H122.509V9.97715H128.338L128.372 10.1829C128.423 10.4743 128.44 10.7829 128.44 11.0743C128.44 14.0743 126.4 16.9371 122.766 16.9371C119.149 16.9371 117.092 14.0571 117.092 11.0743Z" fill="white"/>
<path d="M103.929 11.2971V5.45142H106.535V11.2971C106.535 12.84 107.426 14.4 109.192 14.4C110.941 14.4 111.849 12.8228 111.849 11.2971V5.45142H114.455V11.2971C114.455 14.04 112.638 16.9371 109.192 16.9371C105.746 16.9371 103.929 14.0571 103.929 11.2971Z" fill="white"/>
<path d="M90.2517 16.7143V5.45142H97.4003C99.646 5.45142 100.777 7.09713 100.777 8.91427C100.777 9.63427 100.503 10.3543 99.9717 10.9028C100.795 11.4686 101.189 12.3257 101.189 13.2343C101.189 15.0686 100.057 16.7143 97.7946 16.7143H90.2517ZM92.8574 9.87427H97.4003C97.8974 9.87427 98.1717 9.51427 98.1717 9.01713V8.70856C98.1717 8.19427 97.8974 7.85142 97.4003 7.85142H92.8574V9.87427ZM92.8574 14.3143H97.7946C98.2917 14.3143 98.6003 13.9543 98.6003 13.4571V13.1314C98.6003 12.6171 98.2917 12.2743 97.7946 12.2743H92.8574V14.3143Z" fill="white"/>
<path d="M76.2437 11.0743C76.2437 8.09143 78.3008 5.22858 81.9179 5.22858C85.5351 5.22858 87.5922 8.09143 87.5922 11.0743C87.5922 14.0571 85.5351 16.9371 81.9179 16.9371C78.3008 16.9371 76.2437 14.0571 76.2437 11.0743ZM84.9008 11.0743C84.9008 9.39429 83.8551 7.73143 81.9179 7.73143C79.9808 7.73143 78.9522 9.39429 78.9522 11.0743C78.9522 12.7714 79.9979 14.4 81.9179 14.4C83.8379 14.4 84.9008 12.7714 84.9008 11.0743Z" fill="white"/>
<path d="M62.9637 16.7143V5.45142H70.7295C72.9923 5.45142 74.1066 7.09713 74.1066 8.91427C74.1066 10.44 73.2495 11.8457 71.5523 12.1886C71.6037 12.2743 71.6723 12.3428 71.7066 12.4286L74.278 16.7143H71.3466L68.7066 12.2743H65.5695V16.7143H62.9637ZM65.5695 9.87427H70.7295C71.2266 9.87427 71.5009 9.51427 71.5009 9.01713V8.70856C71.5009 8.19427 71.2266 7.85142 70.7295 7.85142H65.5695V9.87427Z" fill="white"/>
<path d="M49.37 5.45142H60.1014V7.85142H51.9757V9.87427H58.01V12.2743H51.9757V14.3143H60.1014V16.7143H49.37V5.45142Z" fill="white"/>
<path d="M35.7686 14.6743L42.42 7.85142H35.9743V5.45142H46.2943V7.49142L39.6257 14.3143H46.5V16.7143H35.7686V14.6743Z" fill="white"/>
</svg>
