<svg width="16" height="16" viewBox="0 0 16 16" fill="none" xmlns="http://www.w3.org/2000/svg">
<path fill-rule="evenodd" clip-rule="evenodd" d="M1.61112 7.62166C1.81966 4.09394 4.84952 1.40231 8.37725 1.61085C11.9057 1.81944 14.5974 4.8493 14.3888 8.37702C14.3599 8.86666 14.2764 9.33804 14.1461 9.78864C14.0234 10.2126 14.2676 10.6568 14.6916 10.7795C15.1163 10.9023 15.5597 10.6581 15.6832 10.2341C15.8465 9.67054 15.9498 9.08012 15.9857 8.47144C16.2465 4.06093 12.8822 0.274676 8.47164 0.0139458C4.06113 -0.246784 0.27492 3.11676 0.0141901 7.52728C-0.24654 11.9378 3.11696 15.7248 7.52748 15.9855C8.45959 16.0406 9.36523 15.9334 10.2167 15.6884C10.641 15.5655 10.8858 15.1225 10.7636 14.6983C10.6415 14.2733 10.1977 14.0285 9.77346 14.1506C9.09473 14.3464 8.37065 14.4328 7.62202 14.3886C4.09429 14.18 1.40253 11.1502 1.61112 7.62166ZM4.57149 5.71383C4.57149 5.08283 5.08304 4.57128 5.71404 4.57128C6.34558 4.57128 6.85712 5.08284 6.85712 5.71383C6.85712 6.34538 6.34556 6.85692 5.71404 6.85692C5.08303 6.85692 4.57149 6.34536 4.57149 5.71383ZM10.2853 4.57128C9.65431 4.57128 9.14275 5.08283 9.14275 5.71383C9.14275 6.34536 9.6543 6.85692 10.2853 6.85692C10.9168 6.85692 11.4284 6.34538 11.4284 5.71383C11.4284 5.08284 10.9168 4.57128 10.2853 4.57128ZM5.92064 9.19903C5.6994 8.81653 5.20965 8.68529 4.82716 8.90654C4.44466 9.12778 4.31416 9.61752 4.53542 10C5.22617 11.1932 6.51836 11.9995 7.99961 11.9995C9.48159 11.9995 10.7738 11.1932 11.4646 10C11.6851 9.61752 11.5546 9.12778 11.1721 8.90654C10.7896 8.68531 10.3006 8.81655 10.0794 9.19903C9.6631 9.91827 8.88688 10.399 7.99965 10.399C7.11241 10.399 6.33685 9.91827 5.92064 9.19903ZM13.714 11.4279C14.1347 11.4279 14.4754 11.7693 14.4754 12.19V12.9514H15.2376C15.6583 12.9514 15.9997 13.2929 15.9997 13.7136C15.9997 14.1343 15.6583 14.4757 15.2376 14.4757H14.4754V15.2371C14.4754 15.6578 14.1347 15.9992 13.714 15.9992C13.2933 15.9992 12.9519 15.6578 12.9519 15.2371V14.4757H12.1898C11.7691 14.4757 11.4284 14.1343 11.4284 13.7136C11.4284 13.2929 11.7691 12.9514 12.1898 12.9514H12.9519V12.19C12.9519 11.7693 13.2933 11.4279 13.714 11.4279Z" fill="white"/>
</svg>
