<svg width="14" height="14" viewBox="0 0 14 14" fill="none" xmlns="http://www.w3.org/2000/svg">
<path d="M7.00056 14C5.05473 14 3.18637 13.1796 1.87207 11.7537C1.69634 11.565 1.54013 11.3758 1.38393 11.1744C-2.05928 6.68108 1.33817 -0.077462 7.00056 0.000671425C12.6562 -0.077462 16.0604 6.68108 12.6172 11.167C12.461 11.3691 12.3048 11.5644 12.1291 11.753C10.8141 13.179 8.94639 13.9994 7.00056 13.9994V14ZM7.00056 0.97734C2.13199 0.912636 -0.796835 6.72015 2.16495 10.5817C2.29492 10.7575 2.43831 10.9265 2.58779 11.0895C4.83323 13.6417 9.16789 13.6417 11.4133 11.0895C11.5628 10.9265 11.7062 10.7575 11.8429 10.5749C14.798 6.71405 11.8691 0.905926 7.00728 0.971245L7.00056 0.97734Z" fill="#8A8F98"/>
<path d="M12.2206 11.2263C10.3004 6.71405 3.70079 6.71405 1.7812 11.2263C1.7031 11.4021 1.73544 11.6102 1.87212 11.7537C4.48182 14.7227 9.5194 14.7227 12.1297 11.7537C12.2597 11.6102 12.2926 11.4021 12.2206 11.2263Z" fill="#8A8F98"/>
<path d="M7.00058 1.95402C4.78748 1.88871 3.4146 4.63681 4.78138 6.36857C5.81624 7.84638 8.19163 7.84638 9.22039 6.36857C10.5872 4.63681 9.22039 1.8887 7.0012 1.95402H7.00058Z" fill="#8A8F98"/>
</svg>
