<svg width="14" height="14" viewBox="0 0 14 14" fill="none" xmlns="http://www.w3.org/2000/svg">
<path d="M5.59813 7.49422L7.37939 5.6962L9.64213 3.44922C9.64244 3.4489 9.64276 3.44858 9.64308 3.44827C9.76825 3.32323 9.91679 3.22402 10.0802 3.15628C10.2441 3.08836 10.4197 3.05341 10.5971 3.05341C10.7745 3.05341 10.9501 3.08836 11.114 3.15628C11.2779 3.2242 11.4267 3.32374 11.5521 3.44922L11.5531 3.44822C11.6786 3.57359 11.7781 3.72247 11.846 3.88633C11.914 4.0502 11.9489 4.22584 11.9489 4.40322C11.9489 4.5806 11.914 4.75624 11.846 4.92011C11.7781 5.08397 11.6786 5.23285 11.5531 5.35822L6.55313 10.3582C6.42776 10.4837 6.27888 10.5832 6.11502 10.6511C5.95115 10.7191 5.77551 10.754 5.59813 10.754C5.42075 10.754 5.24511 10.7191 5.08124 10.6511C4.91738 10.5832 4.7685 10.4837 4.64313 10.3582L2.64313 8.35822C2.51772 8.23281 2.41824 8.08392 2.35036 7.92006C2.28249 7.7562 2.24756 7.58058 2.24756 7.40322C2.24756 7.22586 2.28249 7.05024 2.35036 6.88638C2.41824 6.72252 2.51772 6.57363 2.64313 6.44822C2.76854 6.32281 2.91743 6.22333 3.08129 6.15545C3.24515 6.08758 3.42077 6.05265 3.59813 6.05265C3.77549 6.05265 3.95111 6.08758 4.11497 6.15545C4.27883 6.22333 4.42772 6.32281 4.55313 6.44822L5.59813 7.49422Z" fill="#FF5C00"/>
</svg>
