<svg width="14" height="14" viewBox="0 0 14 14" fill="none" xmlns="http://www.w3.org/2000/svg">
<path d="M5.59813 7.49428L7.37939 5.69626L9.64213 3.44928L9.64308 3.44833C9.76825 3.32329 9.91679 3.22408 10.0802 3.15634C10.2441 3.08842 10.4197 3.05347 10.5971 3.05347C10.7745 3.05347 10.9501 3.08842 11.114 3.15634C11.2779 3.22426 11.4267 3.3238 11.5521 3.44928L11.5531 3.44828C11.6786 3.57365 11.7781 3.72253 11.846 3.88639C11.914 4.05026 11.9489 4.2259 11.9489 4.40328C11.9489 4.58066 11.914 4.7563 11.846 4.92017C11.7781 5.08403 11.6786 5.23291 11.5531 5.35828L6.55313 10.3583C6.42776 10.4838 6.27888 10.5833 6.11502 10.6512C5.95115 10.7192 5.77551 10.7541 5.59813 10.7541C5.42075 10.7541 5.24511 10.7192 5.08124 10.6512C4.91738 10.5833 4.7685 10.4838 4.64313 10.3583L2.64313 8.35828C2.51772 8.23287 2.41824 8.08398 2.35036 7.92012C2.28249 7.75626 2.24756 7.58064 2.24756 7.40328C2.24756 7.22592 2.28249 7.0503 2.35036 6.88644C2.41824 6.72258 2.51772 6.57369 2.64313 6.44828C2.76854 6.32287 2.91743 6.22339 3.08129 6.15551C3.24515 6.08764 3.42077 6.05271 3.59813 6.05271C3.77549 6.05271 3.95111 6.08764 4.11497 6.15551C4.27883 6.22339 4.42772 6.32287 4.55313 6.44828L5.59813 7.49428Z" fill="#FC218A"/>
</svg>
