<svg width="16" height="16" viewBox="0 0 16 16" fill="none" xmlns="http://www.w3.org/2000/svg">
<path d="M9.82976 3.02979L2.66937 10.1757C3.25873 10.5591 3.86306 11.0448 4.40812 11.5904C4.93878 12.1211 5.4395 12.7248 5.82281 13.3292L12.9838 6.1682C12.7041 5.68186 12.2621 5.07812 11.599 4.41516C10.9205 3.75156 10.3311 3.30949 9.82976 3.02979Z" fill="white"/>
<path d="M14.6333 2.73513L13.2629 1.36475C12.7766 0.878416 11.9812 0.878416 11.4949 1.36475L10.6258 2.23382C11.2152 2.61714 11.8195 3.10288 12.3645 3.64851C12.9096 4.19355 13.3959 4.7829 13.7792 5.38726L14.6483 4.51819C15.1197 4.0169 15.1196 3.22152 14.6333 2.73513Z" fill="white"/>
<path d="M2.02085 11.0599L1.0194 14.4043C0.916382 14.7577 1.24041 15.0823 1.59379 14.9787L4.93824 13.9767C4.65853 13.5053 4.2309 12.9603 3.64154 12.3559C3.03779 11.7522 2.4928 11.3396 2.02085 11.0599Z" fill="white"/>
</svg>
