<svg width="14" height="14" viewBox="0 0 14 14" fill="none" xmlns="http://www.w3.org/2000/svg">
<path d="M8.51606 10.518L6.02943 11.9282C5.94804 11.9742 5.85755 11.9986 5.76526 11.9999C5.67433 12.0016 5.58293 11.9805 5.50064 11.9375C5.41698 11.8936 5.34923 11.8325 5.30376 11.7595C5.25784 11.6853 5.23283 11.6018 5.23283 11.5136V7.27554C5.23283 7.24855 5.22919 7.22493 5.22237 7.20426C5.21555 7.18318 5.20373 7.16209 5.18827 7.14185L2.1378 3.09484C2.05596 2.98645 2.01049 2.86499 2.0014 2.741C1.99321 2.61701 2.02095 2.49091 2.08642 2.37451C2.1519 2.25811 2.24692 2.16448 2.36242 2.09995C2.47791 2.035 2.61158 2 2.75254 2H11.2473C11.3883 2 11.522 2.035 11.6375 2.09995C11.753 2.1649 11.8484 2.25853 11.9135 2.37451C11.9789 2.49091 12.0071 2.61659 11.9985 2.741C11.9898 2.86499 11.9439 2.98645 11.8621 3.09484L8.81114 7.14141C8.79568 7.16166 8.78477 7.18275 8.77704 7.2051C8.77022 7.22618 8.76658 7.2498 8.76658 7.27679V10.1045C8.76658 10.1902 8.74339 10.2711 8.70065 10.3424C8.65791 10.4128 8.59516 10.4736 8.5156 10.5187L8.51606 10.518Z" fill="#8A8F98"/>
</svg>
