<svg width="14" height="14" viewBox="0 0 14 14" fill="none" xmlns="http://www.w3.org/2000/svg">
<g clip-path="url(#clip0_34_3049)">
<path fill-rule="evenodd" clip-rule="evenodd" d="M7 11.813C8.27632 11.8125 9.50022 11.3052 10.4027 10.4027C11.3052 9.50022 11.8125 8.27632 11.813 7C11.8125 5.72368 11.3052 4.49978 10.4027 3.59728C9.50022 2.69478 8.27632 2.18753 7 2.187C5.72368 2.18753 4.49978 2.69478 3.59728 3.59728C2.69478 4.49978 2.18753 5.72368 2.187 7C2.18753 8.27632 2.69478 9.50022 3.59728 10.4027C4.49978 11.3052 5.72368 11.8125 7 11.813ZM7 13.125C8.62445 13.125 10.1824 12.4797 11.331 11.331C12.4797 10.1824 13.125 8.62445 13.125 7C13.125 5.37555 12.4797 3.81763 11.331 2.66897C10.1824 1.52031 8.62445 0.875 7 0.875C5.37555 0.875 3.81763 1.52031 2.66897 2.66897C1.52031 3.81763 0.875 5.37555 0.875 7C0.875 8.62445 1.52031 10.1824 2.66897 11.331C3.81763 12.4797 5.37555 13.125 7 13.125Z" fill="#8A8F98"/>
</g>
<defs>
<clipPath id="clip0_34_3049">
<rect width="14" height="14" fill="white"/>
</clipPath>
</defs>
</svg>
