<svg width="14" height="14" viewBox="0 0 14 14" fill="none" xmlns="http://www.w3.org/2000/svg">
<path fill-rule="evenodd" clip-rule="evenodd" d="M11.066 1.17246C11.5346 1.16753 11.9864 1.35019 12.32 1.67996C12.653 2.01137 12.8362 2.46472 12.8275 2.93449L12.781 5.41347C12.7717 5.88215 12.5819 6.33004 12.25 6.66145L6.80745 12.0985C6.47002 12.4403 6.01011 12.6333 5.52995 12.635C5.07002 12.6377 4.62815 12.4545 4.30495 12.1275L1.87245 9.69497C1.54432 9.35917 1.3633 8.90692 1.36877 8.4377C1.37425 7.96848 1.56565 7.5206 1.90143 7.19246L7.33847 1.74996C7.66988 1.41801 8.11831 1.22824 8.58699 1.21894L11.066 1.17246ZM10 5C10.5523 5 11 4.55228 11 4C11 3.44772 10.5523 3 10 3C9.44771 3 9 3.44772 9 4C9 4.55228 9.44771 5 10 5Z" fill="#8A8F98"/>
</svg>
