<svg width="24" height="24" viewBox="0 0 24 24" fill="none" xmlns="http://www.w3.org/2000/svg">
<path d="M16.7616 10.2929H10.8825C10.5103 10.2929 10.1719 10.4447 9.92722 10.6894C9.68254 10.9341 9.53067 11.2725 9.53067 11.6447V12.3554C9.53067 12.7275 9.68254 13.066 9.92722 13.3107C10.1719 13.5554 10.5103 13.7072 10.8825 13.7072H16.7625C16.9144 13.7072 17.0372 13.831 17.0372 13.9819C17.0372 14.0578 17.0063 14.1263 16.9566 14.176L15.0281 16.1044C14.7675 16.365 14.6363 16.71 14.6363 17.055C14.6363 17.4 14.7666 17.746 15.0281 18.0066L15.54 18.5185C15.8016 18.7791 16.1466 18.9094 16.4906 18.9094C16.8356 18.9094 17.1816 18.7791 17.4422 18.5185L23.009 12.9517C23.2696 12.6901 23.3999 12.3451 23.3999 11.9991C23.3999 11.6541 23.2696 11.3082 23.009 11.0476L17.4261 5.46567C17.1674 5.21535 16.8289 5.08879 16.4905 5.08879C16.1464 5.08879 15.8014 5.21911 15.5408 5.47973L15.0271 5.9916C14.7665 6.25315 14.6352 6.59909 14.6352 6.94316C14.6352 7.28816 14.7655 7.63315 15.0261 7.89377L16.9555 9.82126C17.0624 9.92813 17.0624 10.1035 16.9555 10.2103C16.9021 10.2638 16.8318 10.2909 16.7615 10.2909L16.7616 10.2929ZM4.0135 18.5851V5.41414C4.0135 5.2632 4.13725 5.13946 4.28818 5.13946H6.9817C7.32296 5.13946 7.63421 5.00259 7.86951 4.77478C8.10576 4.53853 8.24825 4.22072 8.24825 3.87291V2.99259C8.24825 2.64478 8.10575 2.32791 7.87606 2.09821C7.64731 1.86852 7.33044 1.72601 6.98168 1.72601H1.8668C1.51899 1.72601 1.20212 1.86851 0.972412 2.09821C0.742725 2.32789 0.60022 2.64476 0.60022 2.99259V21.0075C0.60022 21.3553 0.74272 21.6721 0.972412 21.9019C1.2021 22.1315 1.51896 22.274 1.8668 22.274H6.98168C7.32293 22.274 7.63419 22.1372 7.87042 21.9094C8.10667 21.6731 8.24916 21.3553 8.24916 21.0075V20.1272C8.24916 19.7784 8.10666 19.4616 7.87697 19.2328C7.64822 19.0031 7.33042 18.8606 6.98259 18.8606H4.28907C4.13719 18.8606 4.01439 18.7368 4.01439 18.5859L4.0135 18.5851Z" fill="white"/>
</svg>
