<svg width="16" height="16" viewBox="0 0 16 16" fill="none" xmlns="http://www.w3.org/2000/svg">
<g clip-path="url(#clip0_0_5)">
<path d="M15.12 14.1763L12.2881 11.3438C13.3444 10.1601 14 8.592 14 6.88016C14 3.18384 10.9918 0.176483 7.2963 0.176483C3.59998 0.176483 0.59198 3.184 0.59198 6.88016C0.59198 10.5763 3.60014 13.5838 7.29566 13.5838C8.60753 13.5838 9.82382 13.2001 10.8475 12.5601L13.7912 15.5038C13.9674 15.68 14.2074 15.7757 14.4474 15.7757C14.6874 15.7757 14.9274 15.6794 15.1037 15.5038C15.4881 15.1363 15.4881 14.5438 15.12 14.1763ZM2.46366 6.88C2.46366 4.22368 4.62366 2.04816 7.2955 2.04816C9.96798 2.04816 12.1118 4.22384 12.1118 6.88C12.1118 9.53616 9.95182 11.7118 7.29614 11.7118C4.63982 11.7118 2.46366 9.55184 2.46366 6.88Z" fill="white"/>
</g>
<defs>
<clipPath id="clip0_0_5">
<rect width="16" height="16" fill="white"/>
</clipPath>
</defs>
</svg>
