<svg width="36" height="36" viewBox="0 0 36 36" fill="none" xmlns="http://www.w3.org/2000/svg">
<path d="M35.2043 26.4841L23.2342 21.5564V21.5548C22.7536 21.3571 22.2024 21.468 21.8344 21.8344C21.4679 22.2025 21.357 22.7537 21.5547 23.2342L26.4824 35.2043H26.484C26.6801 35.6833 27.1462 35.9967 27.6637 35.9999H27.6717C28.186 35.9999 28.6504 35.6945 28.8545 35.222L30.7654 30.7654L35.222 28.8545H35.2204C35.6961 28.6504 36.0031 28.1812 35.9999 27.6637C35.9966 27.1462 35.6816 26.6817 35.2027 26.484L35.2043 26.4841Z" fill="#2A2C2E"/>
<path d="M7.71427 33.4286H3.85713C3.14676 33.4286 2.57141 32.8532 2.57141 32.1428V28.2857C2.57141 27.5753 1.99607 27 1.2857 27C0.575328 27 -1.33514e-05 27.5753 -1.33514e-05 28.2857V32.1428C0.00159369 34.2723 1.72766 35.9984 3.85713 36H7.71427C8.42464 36 8.99998 35.4246 8.99998 34.7143C8.99998 34.0039 8.42464 33.4286 7.71427 33.4286Z" fill="#2A2C2E"/>
<path d="M7.71431 0H3.85716C1.72769 0.00160704 0.00162746 1.72767 2.28882e-05 3.85714V7.71428C2.28882e-05 8.42465 0.575364 9 1.28574 9C1.99611 9 2.57145 8.42465 2.57145 7.71428V3.85714C2.57145 3.14677 3.14679 2.57143 3.85716 2.57143H7.71431C8.42468 2.57143 9.00002 1.99609 9.00002 1.28571C9.00002 0.575341 8.42468 0 7.71431 0Z" fill="#2A2C2E"/>
<path d="M32.1428 0H28.2857C27.5753 0 27 0.575341 27 1.28571C27 1.99609 27.5753 2.57143 28.2857 2.57143H32.1428C32.8532 2.57143 33.4285 3.14677 33.4285 3.85714V7.71428C33.4285 8.42465 34.0039 9 34.7143 9C35.4246 9 36 8.42465 36 7.71428V3.85714C35.9984 1.72767 34.2723 0.00160457 32.1428 0Z" fill="#2A2C2E"/>
<path d="M21.8571 33.4286H14.1428C13.4325 33.4286 12.8571 34.0039 12.8571 34.7143C12.8571 35.4246 13.4325 36 14.1428 36H21.8571C22.5675 36 23.1428 35.4246 23.1428 34.7143C23.1428 34.0039 22.5675 33.4286 21.8571 33.4286Z" fill="#2A2C2E"/>
<path d="M14.1428 2.57143H21.8571C22.5675 2.57143 23.1428 1.99609 23.1428 1.28571C23.1428 0.575341 22.5675 0 21.8571 0H14.1428C13.4325 0 12.8571 0.575341 12.8571 1.28571C12.8571 1.99609 13.4325 2.57143 14.1428 2.57143Z" fill="#2A2C2E"/>
<path d="M1.2857 23.1428C1.62641 23.1428 1.95427 23.0078 2.19533 22.7668C2.4364 22.5257 2.5714 22.1978 2.5714 21.8571V14.1429C2.5714 13.4325 1.99606 12.8571 1.28568 12.8571C0.575311 12.8571 -3.05176e-05 13.4325 -3.05176e-05 14.1429V21.8571C-3.05176e-05 22.1979 0.134967 22.5257 0.37604 22.7668C0.617112 23.0078 0.944996 23.1428 1.2857 23.1428Z" fill="#2A2C2E"/>
<path d="M34.7143 12.8571C34.0039 12.8571 33.4285 13.4325 33.4285 14.1428V21.8571C33.4285 22.5675 34.0039 23.1428 34.7143 23.1428C35.4246 23.1428 36 22.5675 36 21.8571V14.1428C36 13.8021 35.865 13.4743 35.6239 13.2332C35.3828 12.9921 35.055 12.8571 34.7143 12.8571Z" fill="#2A2C2E"/>
</svg>
