<svg width="300" height="148" viewBox="0 0 300 148" fill="none" xmlns="http://www.w3.org/2000/svg">
    <path d="M300 127.027V20.972C300 9.585 290.714 0 279.042 0H20.958C9.578 0 0 9.293 0 20.973v106.054C0 138.415 9.286 148 20.958 148h258.084c11.672 0 20.958-9.585 20.958-20.973zM22.455 139.316c-7.485 0-13.777-5.992-13.777-13.787V22.165c0-7.49 5.988-13.787 13.777-13.787l255.09.012c7.485 0 13.777 5.992 13.777 13.787V125.54c0 7.49-5.988 13.787-13.777 13.787 0-.012-255.09-.012-255.09-.012z" fill="#000"/>
    <path d="M169.739 102.658a5.23 5.23 0 0 1-2.354 3.133c-.028.02-.055.035-.086.055l-.62-1.073.612 1.069a36.163 36.163 0 0 1-13.387 4.56 36.31 36.31 0 0 1-13.981-.889c-.054-.008-.109-.02-.167-.031-.055-.016-.141-.039-.25-.075a2.458 2.458 0 0 1-.202-.07 36.33 36.33 0 0 1-12.421-6.261 36.161 36.161 0 0 1-9.11-10.44c-.016-.023-.032-.05-.047-.074l1.072-.62-1.068.613a36.218 36.218 0 0 1-4.558-13.397c-.62-4.716-.3-9.468.889-13.99.008-.054.02-.113.031-.167.016-.055.039-.14.074-.25a2.38 2.38 0 0 1 .071-.203 36.37 36.37 0 0 1 6.257-12.428 36.125 36.125 0 0 1 10.432-9.117c.023-.016.051-.032.074-.047l.62 1.073-.612-1.07a36.146 36.146 0 0 1 13.387-4.56c4.713-.62 9.462-.3 13.98.89.055.008.113.02.168.03.055.017.14.04.249.075.075.023.145.047.203.07a36.4 36.4 0 0 1 10.854 5.11 35.958 35.958 0 0 1 7.726 7.257l5.708-5.712a1.238 1.238 0 0 1 2.117.737l-1.232.13 1.228-.125L187.7 69.1a1.239 1.239 0 0 1-1.345 1.451v-.003l-22.233-2.306a1.238 1.238 0 0 1-.834-2.114l6.818-6.823a25.66 25.66 0 0 0-13.925-9.776 1.433 1.433 0 0 1-.125-.028l-.117-.027-.105-.023a1.814 1.814 0 0 1-.156-.051 25.676 25.676 0 0 0-19.426 2.622 25.84 25.84 0 0 0-7.482 6.507 25.926 25.926 0 0 0-4.467 8.832 1.398 1.398 0 0 1-.028.125l-.023.113c-.008.035-.016.07-.023.109a2.21 2.21 0 0 1-.051.156 25.865 25.865 0 0 0-.624 9.913 25.71 25.71 0 0 0 3.244 9.526 25.84 25.84 0 0 0 6.502 7.487 25.903 25.903 0 0 0 8.827 4.47c.042.008.081.016.124.028l.113.023.11.024c.054.015.105.03.156.05a25.795 25.795 0 0 0 9.906.624 25.644 25.644 0 0 0 9.45-3.206l.015-.008.004-.004.02-.012.007-.004.02-.011.004-.004.066-.035a5.234 5.234 0 0 1 7.037 1.86l.019.028.004.004.012.02.004.007.012.02.003.004.036.066a5.223 5.223 0 0 1 .491 3.909l-.001.014z" fill="#000"/>
</svg>
