<svg width="160" height="160" viewBox="0 0 160 160" fill="none" xmlns="http://www.w3.org/2000/svg">
    <circle cx="80" cy="80" r="80" fill="#fff"/>
    <circle cx="80" cy="80" r="75" stroke="#000" stroke-opacity=".04" stroke-width="10"/>
    <path d="M112.275 76.74a4.728 4.728 0 0 1-3.347 8.057H63.099l19.343 19.343a4.73 4.73 0 0 1-6.674 6.675l-27.38-27.38-.253-.272a4.723 4.723 0 0 1-1.11-2.472 4.47 4.47 0 0 1 0-.953 4.719 4.719 0 0 1 1.343-2.978l27.536-27.575a4.73 4.73 0 0 1 6.675 6.675l-19.46 19.46h45.828a4.693 4.693 0 0 1 3.328 1.42z" fill="#2A2C2E" fill-opacity=".5"/>
</svg>
