<svg width="149" height="200" viewBox="0 0 149 200" fill="none" xmlns="http://www.w3.org/2000/svg">
<path d="M0 192.902V165.647H12.6813C14.6498 165.647 16.328 166.026 17.716 166.783C19.104 167.54 20.1639 168.574 20.8958 169.887C21.6529 171.174 22.0314 172.65 22.0314 174.316C22.0314 176.007 21.6529 177.483 20.8958 178.745C20.1639 180.007 19.0914 180.991 17.6781 181.697C16.2649 182.404 14.5614 182.757 12.5678 182.757H4.27758V177.798H12.1892C13.3753 177.798 14.3091 177.496 14.9905 176.89C15.6971 176.284 16.0504 175.426 16.0504 174.316C16.0504 173.205 15.7097 172.347 15.0283 171.742C14.3469 171.111 13.4258 170.795 12.2649 170.795H4.35329L5.86748 169.66V192.902H0ZM15.8233 192.902L8.17661 180.221H14.4983L22.7507 192.902H15.8233Z" fill="white"/>
<path d="M32.6269 193.357C30.7342 193.357 29.0181 192.953 27.4787 192.145C25.9645 191.312 24.7531 190.126 23.8446 188.587C22.9361 187.048 22.4818 185.205 22.4818 183.06C22.4818 180.915 22.9361 179.073 23.8446 177.533C24.7531 175.994 25.9645 174.82 27.4787 174.013C29.0181 173.18 30.7342 172.764 32.6269 172.764C34.4944 172.764 36.1852 173.18 37.6994 174.013C39.2136 174.82 40.425 175.994 41.3335 177.533C42.242 179.073 42.6962 180.915 42.6962 183.06C42.6962 185.205 42.242 187.048 41.3335 188.587C40.425 190.126 39.2136 191.312 37.6994 192.145C36.1852 192.953 34.4944 193.357 32.6269 193.357ZM32.6269 188.284C33.914 188.284 34.9487 187.83 35.731 186.921C36.5133 186.013 36.9045 184.726 36.9045 183.06C36.9045 181.395 36.5133 180.107 35.731 179.199C34.9487 178.29 33.914 177.836 32.6269 177.836C31.2894 177.836 30.2294 178.29 29.4471 179.199C28.6648 180.107 28.2736 181.395 28.2736 183.06C28.2736 184.726 28.6648 186.013 29.4471 186.921C30.2294 187.83 31.2894 188.284 32.6269 188.284Z" fill="white"/>
<path d="M53.8767 193.357C51.9587 193.357 50.23 192.953 48.6906 192.145C47.1512 191.312 45.9272 190.126 45.0187 188.587C44.1354 187.048 43.6938 185.205 43.6938 183.06C43.6938 180.915 44.1354 179.073 45.0187 177.533C45.9272 175.994 47.1512 174.82 48.6906 174.013C50.23 173.18 51.9587 172.764 53.8767 172.764C56.476 172.764 58.5833 173.42 60.1984 174.732C61.8388 176.044 63.2646 178.782 63.2646 181.054L57.7379 181.054C57.536 180.07 57.1069 179.287 56.4508 178.707C55.8199 178.126 54.9619 177.836 53.8767 177.836C52.9934 177.836 52.2237 178.038 51.5676 178.442C50.9114 178.846 50.3941 179.439 50.0155 180.221C49.6622 180.978 49.4855 181.925 49.4855 183.06C49.4855 184.171 49.6622 185.117 50.0155 185.899C50.3941 186.682 50.9114 187.275 51.5676 187.678C52.2237 188.082 52.9934 188.284 53.8767 188.284C54.9366 188.284 55.782 188.007 56.4129 187.451C57.0439 186.896 57.4981 186.089 57.7757 185.029L63.2268 185.029C63.2268 186.571 62.3687 189.041 61.5612 190.101C60.7789 191.161 59.7442 191.969 58.4571 192.524C57.1953 193.079 55.6685 193.357 53.8767 193.357Z" fill="white"/>
<path d="M64.6682 192.902V173.218H70.195V192.902H64.6682ZM64.1383 167.994C64.1383 167.085 64.4285 166.341 65.0089 165.761C65.6146 165.155 66.4222 164.852 67.4316 164.852C68.4158 164.852 69.1982 165.155 69.7786 165.761C70.3843 166.341 70.6871 167.085 70.6871 167.994C70.6871 168.852 70.3843 169.597 69.7786 170.227C69.1982 170.833 68.4158 171.136 67.4316 171.136C66.4222 171.136 65.6146 170.833 65.0089 170.227C64.4285 169.597 64.1383 168.852 64.1383 167.994Z" fill="white"/>
<path d="M82.2159 193.357C80.298 193.357 78.5693 192.953 77.0299 192.145C75.4904 191.312 74.2665 190.126 73.3579 188.587C72.4747 187.048 72.033 185.205 72.033 183.06C72.033 180.915 72.4747 179.073 73.3579 177.533C74.2665 175.994 75.4904 174.82 77.0299 174.013C78.5693 173.18 80.298 172.764 82.2159 172.764C84.8153 172.764 86.9225 173.42 88.5377 174.732C90.178 176.044 91.6039 178.707 91.6039 181.054L86.0771 181.054C85.8752 180.07 85.4462 179.287 84.7901 178.707C84.1591 178.126 83.3011 177.836 82.2159 177.836C81.3327 177.836 80.563 178.038 79.9068 178.442C79.2507 178.846 78.7333 179.439 78.3548 180.221C78.0015 180.978 77.8248 181.925 77.8248 183.06C77.8248 184.171 78.0015 185.117 78.3548 185.899C78.7333 186.682 79.2507 187.275 79.9068 187.678C80.563 188.082 81.3327 188.284 82.2159 188.284C83.2759 188.284 84.1213 188.007 84.7522 187.451C85.3831 186.896 85.8374 186.089 86.115 185.029L91.5661 185.029C91.5661 186.571 90.708 189.041 89.9004 190.101C89.1181 191.161 88.0834 191.969 86.7964 192.524C85.5345 193.079 84.0077 193.357 82.2159 193.357Z" fill="white"/>
<path d="M102.986 193.357C101.093 193.357 99.3771 192.953 97.8376 192.145C96.3234 191.312 95.1121 190.126 94.2036 188.587C93.2951 187.048 92.8408 185.205 92.8408 183.06C92.8408 180.915 93.2951 179.073 94.2036 177.533C95.1121 175.994 96.3234 174.82 97.8376 174.013C99.3771 173.18 101.093 172.764 102.986 172.764C104.853 172.764 106.544 173.18 108.058 174.013C109.573 174.82 110.784 175.994 111.692 177.533C112.601 179.073 113.055 180.915 113.055 183.06C113.055 185.205 112.601 187.048 111.692 188.587C110.784 190.126 109.573 191.312 108.058 192.145C106.544 192.953 104.853 193.357 102.986 193.357ZM102.986 188.284C104.273 188.284 105.308 187.83 106.09 186.921C106.872 186.013 107.263 184.726 107.263 183.06C107.263 181.395 106.872 180.107 106.09 179.199C105.308 178.29 104.273 177.836 102.986 177.836C101.648 177.836 100.588 178.29 99.8061 179.199C99.0237 180.107 98.6326 181.395 98.6326 183.06C98.6326 184.726 99.0237 186.013 99.8061 186.921C100.588 187.83 101.648 188.284 102.986 188.284Z" fill="white"/>
<path d="M114.219 192.902V173.218H119.557V177.344H119.822C120.301 175.855 121.059 174.72 122.093 173.937C123.128 173.155 124.453 172.764 126.068 172.764H127.355V178.555H125.462C123.57 178.555 122.144 179.035 121.185 179.994C120.226 180.953 119.746 182.429 119.746 184.423V192.902H114.219Z" fill="white"/>
<path d="M140.152 172.29C141.666 172.29 143.042 172.694 144.278 173.502C145.515 174.309 146.499 175.483 147.231 177.022C147.988 178.562 148.367 180.417 148.367 182.587C148.367 184.757 147.988 186.612 147.231 188.152C146.499 189.691 145.515 190.865 144.278 191.672C143.042 192.48 141.666 192.883 140.152 192.883C138.789 192.883 137.629 192.606 136.67 192.051C135.711 191.495 134.903 190.7 134.247 189.666H134.02V200H128.493V172.745H133.906V175.546H134.133C134.815 174.461 135.648 173.653 136.632 173.123C137.641 172.568 138.815 172.29 140.152 172.29ZM138.26 177.287C136.897 177.287 135.812 177.754 135.004 178.688C134.222 179.596 133.831 180.896 133.831 182.587C133.831 184.278 134.222 185.59 135.004 186.524C135.812 187.432 136.897 187.887 138.26 187.887C139.496 187.887 140.518 187.42 141.326 186.486C142.159 185.552 142.575 184.253 142.575 182.587C142.575 180.896 142.159 179.596 141.326 178.688C140.518 177.754 139.496 177.287 138.26 177.287Z" fill="white"/>
<path fill-rule="evenodd" clip-rule="evenodd" d="M0 148.367H148.367L111.515 111.515C133.078 103.157 148.367 82.213 148.367 57.6982C148.367 25.8324 122.534 0 90.6685 0H0V115.396V148.367Z" fill="white"/>
</svg>
