<svg width="16" height="16" viewBox="0 0 16 16" fill="none" xmlns="http://www.w3.org/2000/svg">
<path d="M1.60016 7.9997H-0.000298231C-0.00404809 6.03559 0.71594 4.13964 2.02237 2.67337C3.32884 1.20641 5.12962 0.273429 7.08106 0.0507148C9.0325 -0.17127 10.9974 0.333466 12.5994 1.46893L13.8339 0.234454C14.0634 0.00646001 14.4069 -0.0617944 14.7053 0.0619581C15.0038 0.185705 15.1988 0.476706 15.1996 0.799949V4.7996C15.1996 5.01185 15.1156 5.21584 14.9656 5.36583C14.8156 5.51581 14.6116 5.59983 14.3993 5.59983H10.3997C10.0765 5.59908 9.78547 5.40409 9.66171 5.1056C9.53796 4.8071 9.60621 4.4636 9.83421 4.23411L11.4549 2.6134C10.1597 1.78243 8.60801 1.44569 7.08472 1.66543C5.56225 1.88516 4.16869 2.64641 3.16149 3.80963C2.15426 4.9736 1.59941 6.46086 1.60016 7.9997ZM14.4001 7.9997H14.3993C14.4001 9.53866 13.8451 11.0259 12.8379 12.1898C11.8307 13.353 10.4372 14.1142 8.91465 14.334C7.39144 14.5537 5.83966 14.217 4.54446 13.386L6.16517 11.7653C6.39316 11.5358 6.46142 11.1923 6.33766 10.8938C6.21392 10.5953 5.92292 10.4004 5.59967 10.3996H1.60003C1.15828 10.3996 0.799791 10.7581 0.799791 11.1998V15.1995C0.800541 15.5227 0.99553 15.8137 1.29402 15.9375C1.59252 16.0612 1.93602 15.993 2.16551 15.765L3.39998 14.5305C5.00195 15.666 6.96687 16.1707 8.91831 15.9487C10.8698 15.726 12.6705 14.793 13.977 13.3261C15.2835 11.8599 16.0035 9.96385 15.9997 7.99973L14.4001 7.9997Z" fill="#2A2C2E"/>
</svg>
