<svg width="16" height="16" viewBox="0 0 16 16" fill="none"
  xmlns="http://www.w3.org/2000/svg">
  <g clip-path="url(#clip0_291_254)">
    <path d="M15.9693 1.05875C15.8701 0.687058 15.6296 0.378442 15.2941 0.18756C14.9594 -0.00248574 14.5709 -0.0495853 14.2009 0.0530138C13.8309 0.155604 13.5231 0.396116 13.3347 0.729101L10.1013 6.43384L8.82819 5.71233C8.60704 5.58703 8.35644 5.5206 8.10333 5.5206C7.57356 5.5206 7.08246 5.80651 6.82178 6.26734C6.62753 6.60958 6.57876 7.0065 6.68388 7.38575C6.75872 7.65736 6.90757 7.89534 7.11106 8.08035C6.40133 9.25006 4.70603 11.5305 3.39674 11.227C3.27229 11.1967 3.14362 11.2438 3.06625 11.3447C2.98889 11.4456 2.9788 11.5827 3.0385 11.6945C3.2563 12.0965 3.86597 12.8432 4.69677 13.6017C4.72873 13.6539 4.77498 13.6959 4.83132 13.7228C5.45191 14.2761 6.18519 14.8261 6.96556 15.2474C7.01097 15.2936 7.06983 15.3264 7.13794 15.339C7.91915 15.7376 8.74156 16 9.54125 16C9.9819 16 10.4166 15.9201 10.8329 15.7402C11.7125 15.297 13.3565 13.1838 13.0866 11.3236C13.1076 11.3245 13.1278 11.3278 13.1488 11.3278C13.6786 11.3278 14.1697 11.0419 14.4304 10.5819C14.6246 10.2397 14.6734 9.84195 14.5691 9.46354C14.4648 9.08429 14.2184 8.76894 13.8762 8.5747L12.6022 7.85235L15.8362 2.14847C16.0196 1.81715 16.0694 1.42034 15.9693 1.05875ZM10.5571 15.1542C9.94156 15.4208 9.268 15.4149 8.58939 15.24C9.6523 14.9086 10.1425 14.0913 10.1703 14.0442C10.2595 13.8903 10.2065 13.6944 10.0534 13.6044C9.90038 13.5144 9.70277 13.5665 9.61194 13.7187C9.58251 13.7684 8.88036 14.9154 7.26999 14.7043C6.76543 14.431 6.27771 14.0946 5.83035 13.7389C7.12535 13.5421 7.76781 12.6163 7.79891 12.5684C7.89814 12.4212 7.85946 12.2219 7.71146 12.1218C7.5643 12.0218 7.36416 12.0605 7.26326 12.2068C7.23383 12.2497 6.53588 13.2327 5.10795 13.1183C4.62274 12.6693 4.21911 12.227 3.94244 11.8746C5.58222 11.614 7.13042 9.29049 7.65245 8.43026L12.3751 11.1078C12.8704 12.6963 11.2114 14.8246 10.5571 15.1542ZM13.9442 9.63351C14.0031 9.84626 13.9753 10.0691 13.8669 10.2617C13.7205 10.5207 13.4447 10.6804 13.147 10.6804C13.0058 10.6804 12.8645 10.6434 12.74 10.5728L7.69446 7.71118C7.50274 7.6027 7.36398 7.42528 7.30512 7.21252C7.24626 6.99977 7.27401 6.77694 7.38249 6.5852C7.52881 6.3262 7.80462 6.16643 8.10232 6.16643C8.24359 6.16643 8.38486 6.20343 8.50931 6.27406L10.0515 7.14861C10.0558 7.15113 10.0591 7.15365 10.0633 7.15702C10.0675 7.1587 10.0717 7.16038 10.0759 7.16206L11.9882 8.24685C11.9924 8.24937 11.9957 8.25273 11.9999 8.25525C12.0033 8.25694 12.0067 8.25778 12.01 8.25946L13.5556 9.13569C13.7474 9.24332 13.8853 9.42075 13.9442 9.63351ZM15.272 1.82813L12.038 7.53201L10.6623 6.75249L13.8963 1.04861C14.0006 0.865291 14.1704 0.732416 14.374 0.676079C14.5783 0.619738 14.7919 0.645807 14.9752 0.750079C15.1594 0.854353 15.2914 1.02421 15.3461 1.22857C15.4016 1.4287 15.3746 1.64733 15.272 1.82813Z" fill="black"/>
    <path d="M3.99999 2.00339C3.99999 1.95458 3.96503 1.91967 3.92296 1.90577C3.00674 1.71735 2.28674 0.998279 2.09765 0.0768992C2.09054 0.0280889 2.04875 0 1.99986 0C1.95096 0 1.916 0.0349035 1.90207 0.0768992C1.71331 0.998279 0.992977 1.71708 0.0770348 1.90577C0.0349678 1.91259 0 1.95458 0 2.00339C0 2.05219 0.034965 2.0871 0.0770348 2.101C0.993257 2.28943 1.71326 3.00849 1.90235 3.9231C1.90945 3.97191 1.95124 4 2.00014 4C2.04903 4 2.084 3.9651 2.09793 3.9231C2.28668 3.00849 3.00702 2.28976 3.92324 2.101C3.96503 2.0871 3.99999 2.05219 3.99999 2.00339Z" fill="black"/>
    <path d="M7.91426 3.40695C7.26125 3.2491 6.75154 2.73936 6.5937 2.07907C6.5794 2.03589 6.54351 2 6.49332 2C6.44314 2 6.40725 2.0286 6.39295 2.07907C6.2421 2.73936 5.73238 3.24911 5.07907 3.40695C5.03589 3.42125 5 3.45714 5 3.50732C5 3.55751 5.0286 3.5934 5.07907 3.60769C5.72506 3.76555 6.24179 4.28229 6.39963 4.92825C6.41393 4.97143 6.44982 5.00732 6.5 5.00732C6.55019 5.00732 6.58608 4.97872 6.60037 4.92825C6.75823 4.28226 7.27496 3.76553 7.92093 3.60769C7.96411 3.5934 8 3.55751 8 3.50732C7.99327 3.45713 7.96472 3.41395 7.91426 3.40695Z" fill="black"/>
    <path d="M4.94729 6.93797C4.51176 6.83273 4.17214 6.49291 4.06692 6.05271C4.05738 6.02393 4.03346 6 4 6C3.96654 6 3.94262 6.01907 3.93308 6.05271C3.82785 6.49291 3.48803 6.83274 3.05271 6.93797C3.02393 6.9475 3 6.97142 3 7.00488C3 7.03834 3.01907 7.06226 3.05271 7.0718C3.48338 7.17703 3.82786 7.52152 3.93308 7.95217C3.94262 7.98095 3.96654 8.00488 4 8.00488C4.03346 8.00488 4.05738 7.98581 4.06692 7.95217C4.16729 7.51683 4.51664 7.17233 4.94729 7.06711C4.97607 7.05757 5 7.03365 5 7.00019C4.99514 6.97141 4.97607 6.94264 4.94729 6.93797Z" fill="black"/>
  </g>
  <defs>
    <clipPath id="clip0_291_254">
      <rect width="16" height="16" fill="white"/>
    </clipPath>
  </defs>
</svg>
