<svg width="16" height="16" viewBox="0 0 16 16" fill="none"
  xmlns="http://www.w3.org/2000/svg">
  <g clip-path="url(#clip0_20_23)">
    <mask id="path-1-inside-1_20_23" fill="white">
      <path fill-rule="evenodd" clip-rule="evenodd" d="M2 1H11C11.5523 1 12 1.44772 12 2V3H5C3.89543 3 3 3.89543 3 5V12H2C1.44772 12 1 11.5523 1 11V2C1 1.44772 1.44772 1 2 1ZM3 13H2C0.89543 13 0 12.1046 0 11V2C0 0.89543 0.895431 0 2 0H11C12.1046 0 13 0.895431 13 2V3H14C15.1046 3 16 3.89543 16 5V14C16 15.1046 15.1046 16 14 16H5C3.89543 16 3 15.1046 3 14V13Z"/>
    </mask>
    <path fill-rule="evenodd" clip-rule="evenodd" d="M2 1H11C11.5523 1 12 1.44772 12 2V3H5C3.89543 3 3 3.89543 3 5V12H2C1.44772 12 1 11.5523 1 11V2C1 1.44772 1.44772 1 2 1ZM3 13H2C0.89543 13 0 12.1046 0 11V2C0 0.89543 0.895431 0 2 0H11C12.1046 0 13 0.895431 13 2V3H14C15.1046 3 16 3.89543 16 5V14C16 15.1046 15.1046 16 14 16H5C3.89543 16 3 15.1046 3 14V13Z" fill="white"/>
    <path d="M12 3V4H13V3H12ZM3 12V13H4V12H3ZM3 13H4V12H3V13ZM13 3H12V4H13V3ZM11 0H2V2H11V0ZM13 2C13 0.89543 12.1046 0 11 0V2H13ZM13 3V2H11V3H13ZM5 4H12V2H5V4ZM4 5C4 4.44772 4.44772 4 5 4V2C3.34315 2 2 3.34315 2 5H4ZM4 12V5H2V12H4ZM2 13H3V11H2V13ZM0 11C0 12.1046 0.895431 13 2 13V11H2H0ZM0 2V11H2V2H0ZM2 0C0.895431 0 0 0.89543 0 2H2V2V0ZM2 14H3V12H2V14ZM-1 11C-1 12.6569 0.343146 14 2 14V12C1.44772 12 1 11.5523 1 11H-1ZM-1 2V11H1V2H-1ZM2 -1C0.343146 -1 -1 0.343146 -1 2H1C1 1.44772 1.44772 1 2 1V-1ZM11 -1H2V1H11V-1ZM14 2C14 0.343146 12.6569 -1 11 -1V1C11.5523 1 12 1.44772 12 2H14ZM14 3V2H12V3H14ZM13 4H14V2H13V4ZM14 4C14.5523 4 15 4.44772 15 5H17C17 3.34315 15.6569 2 14 2V4ZM15 5V14H17V5H15ZM15 14C15 14.5523 14.5523 15 14 15V17C15.6569 17 17 15.6569 17 14H15ZM14 15H5V17H14V15ZM5 15C4.44772 15 4 14.5523 4 14H2C2 15.6569 3.34315 17 5 17V15ZM4 14V13H2V14H4Z" fill="black" mask="url(#path-1-inside-1_20_23)"/>
  </g>
  <defs>
    <clipPath id="clip0_20_23">
      <rect width="16" height="16" fill="white"/>
    </clipPath>
  </defs>
</svg>
