<svg width="24" height="24" viewBox="0 0 24 24" fill="none" xmlns="http://www.w3.org/2000/svg">
    <g clip-path="url(#xfoiw2174a)">
        <path d="M12.025 1.625a.551.551 0 0 0-.067.007 1.064 1.064 0 0 0-.09.007h-.014l-.022.007-.03.008h-.024l-.014.007-.053.023h-.007l-.068.03v.007h-.022l-.023.015-.015.015-.014.008-.008.007a.76.76 0 0 0-.068.038.105.105 0 0 0-.007.015.684.684 0 0 0-.037.037l-.008.008a.585.585 0 0 0-.052.045l-.008.015-2.49 2.49a.818.818 0 0 0-.008 1.162.826.826 0 0 0 1.163.008l1.155-1.155v3.72a.82.82 0 0 0 1.43.626.825.825 0 0 0 .205-.634v-3.69l1.14 1.133a.82.82 0 0 0 1.41-.578c0-.22-.09-.431-.247-.585L12.709 2a1.08 1.08 0 0 0-.037-.053.308.308 0 0 0-.023-.015.544.544 0 0 0-.03-.045l-.008-.007a.734.734 0 0 0-.067-.053.783.783 0 0 0-.113-.09l-.014-.007a.794.794 0 0 0-.06-.023l-.03-.015a.644.644 0 0 0-.053-.022h-.007a.58.58 0 0 0-.068-.015.117.117 0 0 0-.015-.008.709.709 0 0 0-.06-.015H12.041l-.014-.007h-.002zM4.931 8.622a.819.819 0 0 0-.51.248l-2.423 2.422a.745.745 0 0 0-.067.06.586.586 0 0 0-.045.03l-.008.015a1.043 1.043 0 0 0-.135.18l-.015.008-.022.06-.014.03c-.009.016-.016.034-.024.052v.008a.705.705 0 0 0-.014.067c-.003.005-.006.01-.007.015a.551.551 0 0 0-.008.068c-.003.004-.006.009-.007.015v.06c-.003.004-.006.009-.008.015.001.024.004.05.008.075v.006c0 .026.003.05.007.075v.023l.008.015c.001.01.004.02.007.03v.022c.002.006.005.01.008.015a.517.517 0 0 0 .022.053v.015c.008.02.019.04.03.06l.008.007v.015l.014.023.016.022c.001.006.004.01.006.015h.008l.037.068.015.007a.45.45 0 0 0 .038.038l.007.015a.746.746 0 0 0 .053.045l.007.007 2.49 2.498a.818.818 0 0 0 1.163.007.818.818 0 0 0 .007-1.162l-1.155-1.163h3.72a.818.818 0 0 0 .9-.821.824.824 0 0 0-.907-.814H4.45l1.132-1.14a.822.822 0 0 0-.57-1.41h-.082v.001zm13.98 0a.821.821 0 0 0-.488 1.41l1.125 1.14h-3.69a.822.822 0 1 0-.007 1.635h3.727l-1.155 1.163a.821.821 0 1 0 1.163 1.155l2.49-2.498.015-.007.045-.045.015-.015.038-.038.008-.007a.824.824 0 0 0 .044-.068l.007-.015a.326.326 0 0 0 .015-.022l.015-.023.008-.016v-.006c.013-.02.026-.04.037-.06v-.015a.658.658 0 0 0 .023-.053V12.2l.015-.03v-.037a.71.71 0 0 0 .015-.075V11.9a.117.117 0 0 0-.008-.015.584.584 0 0 0-.015-.068v-.015a.853.853 0 0 0-.014-.067l-.008-.008a3.067 3.067 0 0 0-.022-.052l-.008-.03-.03-.06-.007-.008a1.26 1.26 0 0 0-.037-.06l-.053-.06-.052-.06a.117.117 0 0 1-.008-.015 1.094 1.094 0 0 0-.038-.03l-.022-.022-.045-.038-2.43-2.422a.822.822 0 0 0-.585-.248.604.604 0 0 0-.082 0h-.001zm-6.946 6.353a.822.822 0 0 0-.772.877v3.728l-1.155-1.163a.823.823 0 0 0-1.155 1.17l2.49 2.49.008.014c.016.016.034.031.052.045l.008.008a.491.491 0 0 0 .037.037l.008.016.067.038.007.006.015.008.016.015.022.015a.22.22 0 0 0 .023.007.842.842 0 0 0 .067.038h.008l.052.015.015.007h.022l.03.008.023.007h.015c.025.004.05.006.075.008h.015l.067.007a.095.095 0 0 1 .015-.007H12.123l.06-.015h.015a.988.988 0 0 0 .067-.023h.008l.053-.022.03-.008.06-.03.014-.007.053-.038c.02-.017.041-.034.06-.052a.965.965 0 0 0 .068-.053l.007-.007.03-.038.023-.022.037-.053 2.423-2.422a.823.823 0 1 0-1.163-1.163l-1.14 1.133v-3.69a.823.823 0 0 0-.862-.885z" fill="#2A2C2E"/>
    </g>
    <defs>
        <clipPath id="xfoiw2174a">
            <path fill="#fff" d="M0 0h24v24H0z"/>
        </clipPath>
    </defs>
</svg>
