<svg width="54" height="42" viewBox="0 0 54 42" fill="none" xmlns="http://www.w3.org/2000/svg">
<path fill-rule="evenodd" clip-rule="evenodd" d="M49.1073 5.12028C50.0744 4.15312 50.0744 2.61703 49.1073 1.70676H49.1167C48.1496 0.739596 46.6135 0.739596 45.7032 1.70676L9.8328 37.5677C8.86564 38.5349 8.86564 40.0709 9.8328 40.9812C10.2879 41.4364 10.9138 41.7208 11.5396 41.7208C12.1654 41.7208 12.7912 41.4932 13.2463 40.9812L19.9501 34.2774H42.5742C48.8797 34.2774 54 29.1666 54 22.8516C54 16.6599 48.9935 11.5965 42.7448 11.4827L49.1073 5.12028ZM37.2263 4.02985C34.5524 1.53608 30.9777 0 26.9952 0C19.0398 0 12.5636 6.19175 12.0516 14.0428C11.4258 13.9291 10.8569 13.8722 10.1742 13.8722C4.55133 13.8722 -3.05176e-05 18.4235 -3.05176e-05 24.0464C-3.05176e-05 28.702 3.11955 32.6276 7.38645 33.8223L37.2263 4.02985ZM51 23C51 27.4183 47.4183 31 43 31C38.5817 31 35 27.4183 35 23C35 18.5817 38.5817 15 43 15C47.4183 15 51 18.5817 51 23ZM39.0934 23.5502L44.1235 17.1755C44.4183 16.8089 45.0334 17.0619 44.9398 17.5169L44.03 21.7668L46.5453 21.7667C46.92 21.7667 47.1338 22.1713 46.907 22.4371L41.8763 28.8241C41.5815 29.1912 40.9664 28.9383 41.06 28.4827L41.9698 24.2329H39.4545C39.0798 24.2329 38.866 23.8283 39.0934 23.5502Z" fill="black"/>
</svg>
