<svg width="70" height="54" viewBox="0 0 70 54" fill="none" xmlns="http://www.w3.org/2000/svg">
<path d="M63.5604 2.20909C64.8122 3.38727 64.8122 5.37545 63.5604 6.62727L55.3254 14.8623C63.4132 15.0095 69.8932 21.5632 69.8932 29.5773C69.8932 37.7509 63.2659 44.3659 55.1045 44.3659H25.8218L17.145 53.0427C16.5559 53.7055 15.7459 54 14.9359 54C14.1259 54 13.3159 53.6318 12.7268 53.0427C11.475 51.8645 11.475 49.8764 12.7268 48.6245L59.1545 2.20909C60.3327 0.957273 62.3209 0.957273 63.5727 2.20909H63.5604ZM34.9404 0C40.095 0 44.7218 1.98818 48.1827 5.21591L9.56042 43.7768C4.0377 42.2305 -3.05176e-05 37.1495 -3.05176e-05 31.1236C-3.05176e-05 23.8459 5.89088 17.955 13.1686 17.955C14.0522 17.955 14.7886 18.0286 15.5986 18.1759C16.2613 8.01409 24.6436 0 34.9404 0Z" fill="black"/>
</svg>
