<?xml version="1.0" encoding="UTF-8"?><svg version="1.1" width="57px" height="44px" viewBox="0 0 57.0 44.0" xmlns="http://www.w3.org/2000/svg" xmlns:xlink="http://www.w3.org/1999/xlink"><defs><clipPath id="i0"><path d="M1440,0 L1440,1239 L0,1239 L0,0 L1440,0 Z"></path></clipPath><clipPath id="i1"><path d="M51.7921048,1.7986705 C52.8107088,2.75876712 52.8107088,4.37683203 51.7921048,5.39543603 L45.0787419,12.1087989 C51.6729919,12.2280916 56.948724,17.5644927 56.9510655,24.0956195 C56.9510655,30.7508346 51.5559172,36.1459829 44.900702,36.1459829 L21.0415579,36.1459829 L13.9673196,43.2202212 C13.4872713,43.7611508 12.829303,44 12.1689368,44 C11.5085707,44 10.8505904,43.7002576 10.370554,43.2202212 C9.35195005,42.2601246 9.35195005,40.6420597 10.370554,39.6234557 L48.1953392,1.7986705 C49.1554359,0.780066507 50.7735008,0.780066507 51.7921048,1.7986705 Z M28.4742739,0 C32.6706202,0 36.4477036,1.61812486 39.2646903,4.25479378 L7.79299197,35.6653471 C3.29703507,34.4082776 0,30.2703187 0,25.3552187 C0,19.4217545 4.79544758,14.6260672 10.7291516,14.6260672 C11.4480251,14.6260672 12.047486,14.6869484 12.7078522,14.806373 C13.2491654,6.53321286 20.081821,0 28.4742739,0 Z"></path></clipPath></defs><g transform="translate(-768.0 -580.0)"><g clip-path="url(#i0)"><g transform="translate(240.0 580.0)"><g transform="translate(528.0 0.0)"><g clip-path="url(#i1)"><polygon points="0,0 56.9510655,0 56.9510655,44 0,44 0,0" stroke="none" fill="#000000"></polygon></g></g></g></g></g></svg>