<svg width="88" height="56" viewBox="0 0 88 56" fill="none" xmlns="http://www.w3.org/2000/svg">
<path opacity="0.1" d="M84.7809 20.6608L39.7601 2.12442C38.3576 1.54647 36.7436 1.86834 35.6699 2.93967C34.5962 4.01336 34.2743 5.62498 34.8499 7.02994L53.3887 52.0531C53.9643 53.4557 55.3246 54.3743 56.8399 54.3813H56.8681C58.3717 54.3837 59.7297 53.4862 60.3194 52.1024L67.6732 34.9452L84.828 27.5914H84.8304C86.2212 26.997 87.1187 25.6249 87.1093 24.1096C87.0975 22.5966 86.1813 21.2386 84.781 20.6607L84.7809 20.6608Z" fill="black"/>
<path d="M68.3617 20.6608L23.3409 2.12442C21.9384 1.54647 20.3244 1.86834 19.2507 2.93967C18.177 4.01336 17.8552 5.62498 18.4307 7.02994L36.9695 52.0531C37.5451 53.4557 38.9054 54.3743 40.4207 54.3813H40.4489C41.9525 54.3837 43.3105 53.4862 43.9002 52.1024L51.254 34.9452L68.4088 27.5914H68.4112C69.802 26.997 70.6995 25.6249 70.6902 24.1096C70.6783 22.5966 69.7621 21.2386 68.3619 20.6607L68.3617 20.6608Z" fill="black" fill-opacity="0.3" stroke="white"/>
<path d="M51.9425 20.6608L6.92179 2.12442C5.51923 1.54647 3.90521 1.86834 2.83152 2.93967C1.75783 4.01336 1.436 5.62498 2.01158 7.02994L20.5503 52.0531C21.1259 53.4557 22.4863 54.3743 24.0016 54.3813H24.0298C25.5334 54.3837 26.8913 53.4862 27.481 52.1024L34.8348 34.9452L51.9897 27.5914H51.992C53.3828 26.997 54.2803 25.6249 54.271 24.1096C54.2592 22.5966 53.3429 21.2386 51.9427 20.6607L51.9425 20.6608Z" fill="black"/>
<path d="M4.61082 1.19767C5.46215 1.02798 6.36255 1.10448 7.19964 1.44942L52.2212 19.9859C53.0568 20.3309 53.7481 20.9086 54.2322 21.6258C54.7166 22.3432 54.9937 23.2003 55.0008 24.1049C55.0063 25.0095 54.7411 25.8712 54.267 26.5955C53.7927 27.3201 53.1094 27.9072 52.2795 28.2619L35.3906 35.5007L28.1524 52.3883C27.8001 53.215 27.2182 53.8963 26.4999 54.3706C25.7816 54.8449 24.9269 55.1122 24.0265 55.1108C23.1084 55.1066 22.2451 54.8311 21.525 54.3493C20.8 53.8642 20.2199 53.1697 19.8756 52.3307L1.33633 7.30636C0.992708 6.46759 0.917162 5.56712 1.08775 4.71616C1.25828 3.86548 1.67476 3.06423 2.31611 2.42288C2.95712 1.78328 3.75941 1.36736 4.61082 1.19767Z" stroke="white"/>
<path d="M4.89609 2.62894C5.47077 2.5144 6.07858 2.56595 6.64398 2.79894L51.6643 21.3349C52.2287 21.5679 52.6956 21.958 53.0226 22.4423C53.3495 22.9266 53.5365 23.5052 53.5413 24.1138C53.545 24.7248 53.3661 25.3069 53.0458 25.7962C52.726 26.2848 52.2653 26.6807 51.7046 26.9204L34.2791 34.3891L26.8097 51.816C26.5722 52.3734 26.18 52.8329 25.6956 53.1527C25.2118 53.4722 24.636 53.6523 24.0331 53.6513C23.4108 53.6485 22.825 53.463 22.3367 53.1363C21.8482 52.8094 21.4576 52.3414 21.2251 51.775L2.68687 6.75303C2.4547 6.18633 2.40349 5.57794 2.51875 5.00297C2.63386 4.42876 2.91502 3.88793 3.34697 3.45597C3.77971 3.02419 4.32135 2.7435 4.89609 2.62894Z" stroke="black"/>
</svg>
