<?xml version="1.0" encoding="UTF-8"?>
<svg width="36px" height="53.9994582px" viewBox="0 0 36 53.9994582" version="1.1" xmlns="http://www.w3.org/2000/svg" xmlns:xlink="http://www.w3.org/1999/xlink">
    <title>Icons / Features / Collaboration</title>
    <defs>
        <path d="M34.4045873,12.8949739 L3.55748564,0.19431698 C2.59648849,-0.201678128 1.49060002,0.0188567046 0.754934453,0.752906871 C0.0192688883,1.48857244 -0.201241219,2.59281255 0.193130249,3.55545805 L12.8954355,34.4042081 C13.2898193,35.3652052 14.2218753,35.9946336 15.2601396,35.9994582 L15.2794564,35.9994582 C16.3096849,36.0010647 17.2401048,35.3861394 17.6441604,34.4379995 L22.682802,22.6822682 L34.4368849,17.6436267 L34.4384946,17.6436267 C35.3914559,17.236365 36.0063787,16.2962939 36,15.2579884 C35.9919011,14.2213313 35.364093,13.2909113 34.4047031,12.8948915 L34.4045873,12.8949739 Z" id="path-1"></path>
    </defs>
    <g id="Icons-/-Features-/-Collaboration" stroke="none" stroke-width="1" fill="none" fill-rule="evenodd">
        <path d="M34.4045873,30.8949739 L3.55748564,18.194317 C2.59648849,17.7983219 1.49060002,18.0188567 0.754934453,18.7529069 C0.0192688883,19.4885724 -0.201241219,20.5928125 0.193130249,21.5554581 L12.8954355,52.4042081 C13.2898193,53.3652052 14.2218753,53.9946336 15.2601396,53.9994582 L15.2794564,53.9994582 C16.3096849,54.0010647 17.2401048,53.3861394 17.6441604,52.4379995 L22.682802,40.6822682 L34.4368849,35.6436267 L34.4384946,35.6436267 C35.3914559,35.236365 36.0063787,34.2962939 36,33.2579884 C35.9919011,32.2213313 35.364093,31.2909113 34.4047031,30.8948915 L34.4045873,30.8949739 Z" id="Path-Copy-2" fill="#000000" fill-rule="nonzero" opacity="0.1"></path>
        <path d="M34.4045873,21.8949739 L3.55748564,9.19431698 C2.59648849,8.79832187 1.49060002,9.0188567 0.754934453,9.75290687 C0.0192688883,10.4885724 -0.201241219,11.5928125 0.193130249,12.5554581 L12.8954355,43.4042081 C13.2898193,44.3652052 14.2218753,44.9946336 15.2601396,44.9994582 L15.2794564,44.9994582 C16.3096849,45.0010647 17.2401048,44.3861394 17.6441604,43.4379995 L22.682802,31.6822682 L34.4368849,26.6436267 L34.4384946,26.6436267 C35.3914559,26.236365 36.0063787,25.2962939 36,24.2579884 C35.9919011,23.2213313 35.364093,22.2909113 34.4047031,21.8948915 L34.4045873,21.8949739 Z" id="Path-Copy" stroke="#FFFFFF" fill-opacity="0.3" fill="#000000" fill-rule="nonzero"></path>
        <g id="Path" fill-rule="nonzero">
            <use fill="#000000" xlink:href="#path-1"></use>
            <path stroke="#FFFFFF" stroke-width="1" d="M1.9740474,-0.440524185 C2.55736221,-0.556787451 3.17429407,-0.504369842 3.74784489,-0.268028512 L3.74784489,-0.268028512 L34.5954803,12.4327183 C35.1680668,12.6690722 35.6416752,13.0649209 35.9734008,13.5563028 C36.3052679,14.047894 36.4951491,14.6351243 36.4999906,15.2549167 C36.5037983,15.8747261 36.3220676,16.4651821 35.9972333,16.9614577 C35.6722611,17.4579441 35.2040702,17.8601933 34.6354703,18.1031923 L34.6354703,18.1031923 L23.0635856,23.0630514 L18.1041343,34.6340202 C17.8627442,35.2004558 17.4640586,35.6673022 16.9718871,35.9922923 C16.4797412,36.3172655 15.8941113,36.5004173 15.2771754,36.499453 C14.6481599,36.4965835 14.0566268,36.3078056 13.5632397,35.9776592 C13.0664893,35.6452622 12.6690022,35.1694165 12.4330958,34.5945814 L12.4330958,34.5945814 L-0.269548521,3.74500582 C-0.504990147,3.17030191 -0.556752847,2.55331695 -0.439872459,1.97026102 C-0.32302994,1.38739401 -0.0376648379,0.83839938 0.401769874,0.398965095 C0.840974693,-0.0392753033 1.39068645,-0.324251721 1.9740474,-0.440524185 Z"></path>
            <path stroke="#000000" stroke-width="1" d="M2.16951734,0.540185508 C2.56327018,0.461704746 2.97972705,0.497028058 3.36712638,0.656662472 L3.36712638,0.656662472 L34.2139259,13.3570646 C34.600623,13.5166866 34.9205441,13.7839547 35.1445858,14.1158254 C35.3686093,14.4476691 35.4967511,14.8440804 35.5000094,15.26106 C35.5025813,15.6797056 35.3799514,16.0785734 35.1605313,16.4137993 C34.9414057,16.7485752 34.6257431,17.019857 34.2415188,17.1840611 L34.2415188,17.1840611 L22.3020183,22.301485 L17.1841866,34.2419789 C17.0214393,34.6238749 16.7526989,34.9386855 16.4208595,35.1578053 C16.0893277,35.376722 15.6948216,35.5001053 15.2817373,35.4994634 C14.8553437,35.4975182 14.4539725,35.3704609 14.1193638,35.1465599 C13.7847106,34.9226292 13.5170626,34.6019703 13.3577752,34.2138347 L13.3577752,34.2138347 L0.655809019,3.36591029 C0.496736974,2.97762157 0.461648545,2.56076555 0.540621062,2.16681243 C0.619490258,1.77337472 0.812133446,1.40281466 1.10809903,1.10684865 C1.40459575,0.811002985 1.77571509,0.61867612 2.16951734,0.540185508 Z" stroke-linejoin="square"></path>
        </g>
    </g>
</svg>