<svg width="320" height="113" viewBox="0 0 320 113" fill="none" xmlns="http://www.w3.org/2000/svg">
<g clip-path="url(#clip0_1_2)">
<path fill-rule="evenodd" clip-rule="evenodd" d="M24.3041 112.776C17.3975 112.776 11.6748 110.803 7.13613 106.856C2.59746 102.811 0.328125 97.088 0.328125 89.688C0.328125 82.88 2.64679 77.5027 7.28412 73.556C12.0201 69.5107 18.4335 67.1427 26.5241 66.452L44.4321 64.88V60.976C44.4321 58.1147 43.5935 55.8947 41.9161 54.316C40.2388 52.6387 38.1175 51.8 35.5521 51.8C32.6908 51.8 30.4215 52.5893 28.7441 54.168C27.1655 55.648 26.2775 57.6707 26.0801 60.236H1.95612C2.15346 54.908 3.63346 50.1227 6.39613 45.88C9.15879 41.6373 13.0068 38.332 17.9401 35.964C22.9721 33.4973 28.9415 32.264 35.8481 32.264C46.6028 32.264 54.8415 34.9773 60.5641 40.404C66.3855 45.8307 69.2961 53.3293 69.2961 62.9V93.24L70.1841 111H46.8001L46.2081 101.084H45.0241C42.9521 105.031 40.1401 107.991 36.5881 109.964C33.0361 111.839 28.9415 112.776 24.3041 112.776ZM33.9241 79.476C30.5695 79.8707 28.1521 80.7587 26.6721 82.14C25.1921 83.4227 24.4521 85.1 24.4521 87.172C24.4521 89.244 25.0935 91.02 26.3761 92.5C27.7575 93.8813 29.7308 94.572 32.2961 94.572C34.9601 94.572 37.1801 94.0293 38.9561 92.944C40.8308 91.76 42.2121 90.132 43.1001 88.06C43.9881 85.8893 44.4321 83.2747 44.4321 80.216V78.2227L33.9241 79.476Z" fill="#2A2C2E"/>
<path d="M83.2373 111V4.44H108.397V111H83.2373Z" fill="#2A2C2E"/>
<path d="M123.007 111V34.04H148.167V111H123.007ZM120.935 13.912C120.935 9.96534 122.218 6.66001 124.783 3.996C127.447 1.332 131.048 0 135.587 0C140.126 0 143.678 1.332 146.243 3.996C148.907 6.66001 150.239 9.96534 150.239 13.912C150.239 17.6613 148.907 20.9173 146.243 23.68C143.678 26.4427 140.126 27.824 135.587 27.824C131.048 27.824 127.447 26.4427 124.783 23.68C122.218 20.9173 120.935 17.6613 120.935 13.912Z" fill="#2A2C2E"/>
<path d="M183.348 111L154.488 34.04H183.052L196.668 80.068H198.148L212.652 34.04H240.328L211.468 111H183.348Z" fill="#2A2C2E"/>
<path fill-rule="evenodd" clip-rule="evenodd" d="M282.028 112.776C274.233 112.776 267.326 111.197 261.308 108.04C255.289 104.784 250.602 100.147 247.248 94.128C243.893 88.1093 242.216 80.9067 242.216 72.52C242.216 65.416 243.794 58.8053 246.952 52.688C250.208 46.5707 254.746 41.6373 260.568 37.888C266.488 34.1387 273.444 32.264 281.436 32.264C289.625 32.264 296.532 34.04 302.156 37.592C307.78 41.0453 312.022 45.9293 314.884 52.244C317.844 58.5587 319.324 65.9587 319.324 74.444V78.588H267.765C268.06 80.6645 268.522 82.4898 269.152 84.064C270.434 86.9253 272.161 89.0467 274.332 90.428C276.502 91.8093 279.068 92.5 282.028 92.5C284.889 92.5 287.257 91.8587 289.132 90.576C291.105 89.1947 292.733 87.5173 294.016 85.544L316.512 93.684C313.946 99.4067 309.95 104.044 304.524 107.596C299.097 111.049 291.598 112.776 282.028 112.776ZM292.536 60.384C291.746 57.8187 290.414 55.8453 288.54 54.464C286.764 52.984 284.396 52.244 281.436 52.244C278.377 52.244 275.762 52.984 273.592 54.464C271.52 55.8453 269.941 58.0653 268.856 61.124C268.457 62.3193 268.139 63.6513 267.902 65.12H293.623C293.406 63.4286 293.043 61.8499 292.536 60.384Z" fill="#2A2C2E"/>
</g>
<defs>
<clipPath id="clip0_1_2">
<rect width="320" height="113" fill="white"/>
</clipPath>
</defs>
</svg>
