<?xml version="1.0" encoding="UTF-8"?><svg id="Layer_2" xmlns="http://www.w3.org/2000/svg" width="597.71" height="208.78" viewBox="0 0 597.71 208.78"><defs><style>.cls-1,.cls-2{stroke:#000;stroke-miterlimit:10;stroke-width:3px;}.cls-2{fill-rule:evenodd;}</style></defs><g id="alive-clean"><path class="cls-2" d="m45.25,207.28c-12.6,0-23.04-3.6-31.33-10.8-8.28-7.38-12.42-17.82-12.42-31.33,0-12.42,4.23-22.23,12.69-29.44,8.64-7.38,20.34-11.7,35.11-12.96l32.68-2.87v-7.12c0-5.22-1.53-9.27-4.59-12.15-3.06-3.06-6.93-4.59-11.61-4.59-5.22,0-9.36,1.44-12.42,4.32-2.88,2.7-4.5,6.39-4.86,11.07H4.47c.36-9.72,3.06-18.45,8.1-26.2,5.04-7.74,12.06-13.77,21.06-18.09,9.18-4.5,20.07-6.75,32.68-6.75,19.62,0,34.66,4.95,45.1,14.85,10.62,9.9,15.93,23.58,15.93,41.05v55.36l1.62,32.41h-42.67l-1.08-18.09h-2.16c-3.78,7.2-8.91,12.6-15.39,16.2-6.48,3.42-13.95,5.13-22.41,5.13Zm17.55-60.76c-6.12.72-10.53,2.34-13.23,4.86-2.7,2.34-4.05,5.4-4.05,9.18s1.17,7.02,3.51,9.72c2.52,2.52,6.12,3.78,10.8,3.78s8.91-.99,12.15-2.97c3.42-2.16,5.94-5.13,7.56-8.91,1.62-3.96,2.43-8.73,2.43-14.31v-3.64l-19.17,2.29Z"/><path class="cls-1" d="m155.43,204.04V9.6h45.91v194.44h-45.91Z"/><path class="cls-1" d="m232.41,204.04V63.61h45.91v140.43h-45.91Zm-3.78-177.16c0-7.2,2.34-13.23,7.02-18.09,4.86-4.86,11.43-7.29,19.71-7.29s14.76,2.43,19.44,7.29c4.86,4.86,7.29,10.89,7.29,18.09s-2.43,12.78-7.29,17.82c-4.68,5.04-11.16,7.56-19.44,7.56s-14.85-2.52-19.71-7.56c-4.68-5.04-7.02-10.98-7.02-17.82Z"/><path class="cls-1" d="m343.4,204.04l-52.66-140.43h52.12l24.85,83.99h2.7l26.47-83.99h50.5l-52.66,140.43h-51.31Z"/><path class="cls-2" d="m528.16,207.28c-14.22,0-26.83-2.88-37.81-8.64-10.98-5.94-19.54-14.4-25.66-25.39-6.12-10.98-9.18-24.13-9.18-39.43,0-12.96,2.88-25.03,8.64-36.19,5.94-11.16,14.22-20.16,24.85-27.01,10.8-6.84,23.49-10.26,38.08-10.26s27.55,3.24,37.81,9.72c10.26,6.3,18,15.21,23.22,26.74,5.4,11.52,8.1,25.03,8.1,40.51v7.56h-94.08c.54,3.79,1.38,7.12,2.53,9.99,2.34,5.22,5.49,9.09,9.45,11.61,3.96,2.52,8.64,3.78,14.04,3.78s9.54-1.17,12.96-3.51c3.6-2.52,6.57-5.58,8.91-9.18l41.05,14.85c-4.68,10.44-11.97,18.9-21.87,25.39-9.9,6.3-23.59,9.45-41.05,9.45Zm19.17-95.6c-1.44-4.68-3.87-8.28-7.29-10.8-3.24-2.7-7.56-4.05-12.96-4.05s-10.35,1.35-14.31,4.05c-3.78,2.52-6.66,6.57-8.64,12.15-.73,2.18-1.31,4.61-1.74,7.29h46.93c-.4-3.09-1.06-5.97-1.98-8.64Z"/></g></svg>