<svg width="63" height="56" viewBox="0 0 63 56" fill="none" xmlns="http://www.w3.org/2000/svg">
<path fill-rule="evenodd" clip-rule="evenodd" d="M62.5901 36.6442L49 41.692C49 41.692 46 35.192 39 37.692C32.209 40.1174 35 47.692 35 47.692L21.5041 55.1897V49.664C21.5041 44.7147 20.0534 40.8747 17.1521 38.144C14.2507 35.2427 10.5814 33.792 6.14407 33.792C6.09595 33.792 6.04793 33.7921 6 33.7924V24.692C6 24.692 0 24.692 0 18.692C0 12.692 6 12.692 6 12.692V0.00215532C6.21814 0.000718438 6.43683 0 6.65607 0C25.2587 0 39.5094 4.69333 49.4081 14.08C55.8855 20.1183 60.2795 27.6397 62.5901 36.6442Z" fill="#FC49AB"/>
</svg>
