<svg width="50" height="58" viewBox="0 0 50 58" fill="none" xmlns="http://www.w3.org/2000/svg">
<path fill-rule="evenodd" clip-rule="evenodd" d="M47.5901 0C48.8714 4.9932 49.5121 10.4425 49.5121 16.3478V57.5478H33C33 57.5478 33 52.5478 28 52.5478C23 52.5478 23 57.5478 23 57.5478H5.02194C6.01003 54.2925 6.50407 50.5431 6.50407 46.2998V42.852L6.5 42.8525V37.5478C6.5 37.5478 0 37.5478 0 31.5478C0 25.5478 6.5 25.5478 6.5 25.5478V19.7647L6.50407 19.7643V18.5455L20 11.0478C20 11.0478 17.209 3.47313 24 1.04777C31 -1.45223 34 5.04777 34 5.04777L47.5901 0Z" fill="#FC49AB"/>
</svg>
