<svg width="47" height="66" viewBox="0 0 47 66" fill="none" xmlns="http://www.w3.org/2000/svg">
<path fill-rule="evenodd" clip-rule="evenodd" d="M10.1501 65.638C3.38336 58.756 0 49.3732 0 37.4896C0 25.7136 4.01067 16.4123 12.032 9.58563C17.0444 5.30424 23.1429 2.10903 30.3276 0L35.7839 9.35363C35.7839 9.35363 32.2839 10.8536 34.2839 13.8536C36.1329 16.6271 38.7839 14.3536 38.7839 14.3536L46.6938 23.5124C46.2889 23.8039 45.9137 24.111 45.568 24.4336C43.008 26.6523 41.728 29.5536 41.728 33.1376C41.728 34.936 42.0073 36.6054 42.5659 38.146L32.7839 44.8536C32.7839 44.8536 25.8839 38.2536 20.2839 43.8536C14.6839 49.4536 20.2839 55.8536 20.2839 55.8536L10.1501 65.638Z" fill="#FC49AB"/>
</svg>
