<svg width="61" height="40" viewBox="0 0 61 40" fill="none" xmlns="http://www.w3.org/2000/svg">
<path fill-rule="evenodd" clip-rule="evenodd" d="M1.62591 29.0397C9.47658 35.8663 19.3752 39.2797 31.3219 39.2797C39.3432 39.2797 46.4259 37.6583 52.5699 34.4156C55.4259 32.829 58.0053 30.8736 60.3081 28.5494L54.6338 22.2076C54.6338 22.2076 59.7116 18.5742 56.1338 13.2076C53.1338 8.70765 47.1338 12.7076 47.1338 12.7076L45.222 7.79156C45.1967 7.79162 45.1713 7.79165 45.1459 7.79165C40.7086 7.79165 37.2952 6.59698 34.9059 4.20765C33.8005 2.93219 32.9705 1.52964 32.4158 0L22.6338 6.70764C22.6338 6.70764 15.7338 0.107649 10.1338 5.70765C4.53385 11.3076 10.1338 17.7076 10.1338 17.7076L0 27.492C0.521848 28.0228 1.06382 28.5387 1.62591 29.0397Z" fill="#FC49AB"/>
</svg>
