<svg width="68" height="44" viewBox="0 0 68 44" fill="none" xmlns="http://www.w3.org/2000/svg">
<path fill-rule="evenodd" clip-rule="evenodd" d="M0.98875 2.62453C-0.0976156 7.70109 5.7855 13.192 5.7855 13.192C5.7855 13.192 -1.5145 14.192 0.2855 20.192C2.0855 26.192 10.7855 22.692 10.7855 22.692C11.0418 23.3327 12.0204 24.1703 13.1997 25.1798C15.9446 27.5293 19.7766 30.8093 18.1178 34.7015C19.0767 34.6072 20.064 34.56 21.0795 34.56C26.1995 34.56 30.2955 35.84 33.3675 38.4C35.3514 39.8618 36.984 41.7069 38.2651 43.9353C43.78 42.259 48.681 35.177 49.7854 32.692C49.7854 32.692 54.2854 42.692 60.2854 38.192C66.2854 33.692 58.7854 27.692 58.7854 27.692C58.1643 21.1705 61.5294 19.7925 64.3283 18.6462C65.3984 18.208 66.3857 17.8037 67.0359 17.1588C64.0135 14.149 60.6414 11.5014 56.9195 9.216C47.1915 3.072 35.2448 0 21.0795 0C13.8991 0 7.2022 0.874842 0.98875 2.62453Z" fill="#1D9DE5"/>
</svg>
