<svg width="50" height="63" viewBox="0 0 50 63" fill="none" xmlns="http://www.w3.org/2000/svg">
<path fill-rule="evenodd" clip-rule="evenodd" d="M30.1033 0C34.9807 4.85708 38.9472 10.6575 42.0029 17.4012C47.1229 28.3238 49.6829 41.1239 49.6829 55.8012V62.9692H3.03966C4.29648 61.4309 3.42746 59.8654 2.53742 58.2621C1.94969 57.2033 1.35281 56.128 1.35281 55.0332C1.35281 55.0332 6.35281 55.0332 6.35281 50.5332C6.35281 46.0332 1.35281 46.0332 1.35281 46.0332C-0.776963 46.0332 0.0171494 42.3478 0.966346 39.6732H5.22771C4.85155 36.7475 4.22463 34.0168 3.34692 31.4812C2.81691 29.7586 2.14545 28.1904 1.33255 26.7765C6.8474 25.1001 11.7484 18.0182 12.8528 15.5332C12.8528 15.5332 17.3528 25.5332 23.3528 21.0332C29.3528 16.5332 21.8528 10.5332 21.8528 10.5332C21.2317 4.01171 24.5968 2.63365 27.3958 1.48741C28.4658 1.0492 29.4531 0.644873 30.1033 0Z" fill="#1D9DE5"/>
</svg>
