<svg width="48" height="24" viewBox="0 0 48 24" fill="none" xmlns="http://www.w3.org/2000/svg">
<path fill-rule="evenodd" clip-rule="evenodd" d="M44.3993 23.3408H1.85986C1.86236 23.3584 1.86486 23.376 1.86737 23.3936C1.85467 23.376 1.84201 23.3584 1.82938 23.3408C0.248101 21.133 -0.75063 18.2337 0.7125 16.4048C0.7125 16.4048 0.918217 16.4048 1.25347 16.3731C2.72876 16.2334 6.7125 15.479 6.7125 11.4048C6.7125 6.4048 1.7125 5.9048 1.7125 5.9048C1.62544 5.61461 1.55186 5.33622 1.49048 5.06922C0.865237 2.34945 1.50618 0.812393 2.07023 0.0447942C2.08143 0.0295603 2.09259 0.014631 2.10371 0C2.10129 0.0149232 2.09887 0.0298546 2.09645 0.0447942H42.3259C41.3767 2.71936 40.5826 6.40479 42.7124 6.40479C42.7124 6.40479 47.7124 6.4048 47.7124 10.9048C47.7124 15.4048 42.7124 15.4048 42.7124 15.4048C42.7124 16.4996 43.3093 17.5749 43.897 18.6337C44.7871 20.237 45.6561 21.8025 44.3993 23.3408Z" fill="#1D9DE5"/>
</svg>
