<svg width="44" height="67" viewBox="0 0 44 67" fill="none" xmlns="http://www.w3.org/2000/svg">
<path fill-rule="evenodd" clip-rule="evenodd" d="M43.52 14.5917V46.9522C39.0075 47.2629 31.0122 52.7454 26.9138 56.5706C26.9138 56.5706 22.4138 51.0706 17.4138 53.5706C11.9138 56.3206 13.9138 62.5706 13.9138 62.5706C11.2108 66.0459 4.7304 66.7379 0 66.9496V7.31294C6.30489 4.25944 14.7705 0.589711 18.4138 3.57061C18.5805 1.73728 23.2119 -1.25904 26.4138 0.570617C29.9138 2.5706 29.5805 5.73729 28.9138 7.57062C29.5935 8.06282 30.2897 8.60446 31.0065 9.16217C34.5185 11.8945 38.5261 15.0125 43.52 14.5917Z" fill="#5FE8FF"/>
</svg>
