<svg width="49" height="56" viewBox="0 0 49 56" fill="none" xmlns="http://www.w3.org/2000/svg">
<path fill-rule="evenodd" clip-rule="evenodd" d="M0 20.4275C1.96719 17.1461 5.42972 14.5741 11.3612 15.5107C11.3612 15.5107 12.8612 20.4607 17.3612 20.0107C22.1539 19.5314 22.3612 13.5107 22.3612 13.5107C25.5626 8.44174 32.3513 0.212607 38.2155 0L48.5673 34.9934C44.2046 34.773 42.4589 36.2988 40.6661 37.8658C39.4972 38.8874 38.3083 39.9265 36.3612 40.5107C36.3612 40.5107 33.8612 35.0107 28.3612 38.5107C22.8612 42.0107 26.3612 47.0107 26.3612 47.0107L13.2857 55.8559L0 20.4275ZM48.7998 35.0067H48.8604L48.8612 35.0107C48.8407 35.0093 48.8202 35.008 48.7998 35.0067Z" fill="#D505E8"/>
</svg>
