<svg width="70" height="54" viewBox="0 0 70 54" fill="none" xmlns="http://www.w3.org/2000/svg">
<path fill-rule="evenodd" clip-rule="evenodd" d="M0 20.8838L12.2456 53.5386H60.8855L69.705 30.02L57.0755 25.5385C57.0755 25.5385 53.5755 32.7386 47.5755 29.5386C42.2 26.6716 45.2927 20.9954 45.9587 19.7729C46.0361 19.6309 46.0808 19.5489 46.0755 19.5385C44.9951 17.3777 43.0223 15.2364 41.0308 13.0747C37.1851 8.90037 33.2697 4.65033 35.5755 0.0385654C35.555 0.0371971 35.5346 0.0358662 35.5141 0.0345726H35.2856L35.2816 0.0213207C30.9189 -0.199119 29.1733 1.32667 27.3804 2.89366C26.2116 3.91526 25.0227 4.95438 23.0755 5.53853C23.0755 5.53853 20.5755 0.0385321 15.0755 3.53853C9.57554 7.03853 13.0755 12.0386 13.0755 12.0386L0 20.8838Z" fill="#D505E8"/>
</svg>
