<svg width="49" height="54" viewBox="0 0 49 54" fill="none" xmlns="http://www.w3.org/2000/svg">
<path fill-rule="evenodd" clip-rule="evenodd" d="M48.62 16.2626L34.8175 53.0692L22.188 48.5878C22.188 48.5878 18.688 55.7878 12.688 52.5878C7.31252 49.7209 10.4052 44.0446 11.0712 42.8221C11.1486 42.6801 11.1932 42.5982 11.188 42.5878C10.1076 40.427 8.13481 38.2856 6.14329 36.1239C2.2976 31.9496 -1.61786 27.6996 0.688017 23.0878L0.689376 23.0838H2.95801L10.232 0C12.5182 4.14509 16.506 10.2333 27.188 11.0878C27.188 11.0878 23.5657 16.8615 29.688 19.0878C35.8102 21.3141 36.688 17.0878 37.188 14.5878C42.8531 13.2648 46.4805 14.6794 48.62 16.2626Z" fill="#D505E8"/>
</svg>
