<?xml version="1.0" encoding="UTF-8"?>
<svg width="601px" height="110px" viewBox="0 0 601 110" version="1.1" xmlns="http://www.w3.org/2000/svg" xmlns:xlink="http://www.w3.org/1999/xlink">
    <title>Group</title>
    <g id="Page-1" stroke="none" stroke-width="1" fill="none" fill-rule="evenodd">
        <g id="Group" transform="translate(0.121739, 0.300000)" fill-rule="nonzero">
            <path d="M12.4782609,86.4 C7.97826087,86.4 3.77826087,84 1.57826087,80.1 C-0.62173913,76.2 -0.52173913,71.4 1.87826087,67.7 L24.2782609,32.5 C26.5782609,28.6 30.8782609,26.4 35.3782609,26.5 C39.8782609,26.6 43.9782609,29.1 46.0782609,33.1 C48.1782609,37.1 47.8782609,41.8 45.3782609,45.5 L23.0782609,80.7 C20.7782609,84.3 16.7782609,86.4 12.4782609,86.4 Z" id="Path" fill="#F62B54"></path>
            <path d="M50.9782609,86.4 C46.4782609,86.4 42.2782609,84 40.0782609,80.1 C37.8782609,76.2 37.9782609,71.5 40.3782609,67.7 L62.7782609,32.6 C65.0782609,28.7 69.2782609,26.3 73.8782609,26.5 C78.4782609,26.6 82.5782609,29.1 84.6782609,33.1 C86.7782609,37.1 86.4782609,41.9 83.8782609,45.6 L61.4782609,80.7 C59.1782609,84.3 55.1782609,86.4 50.9782609,86.4 Z" id="Path" fill="#FFCC00"></path>
            <ellipse id="Oval" fill="#00CA72" cx="88.4782609" cy="75.4" rx="11.5" ry="11.3"></ellipse>
            <path d="M589.778261,64.8 C593.278261,64.8 595.378261,67.3 595.378261,71.3 L595.378261,85.2 L600.078261,85.2 L600.078261,71 C600.078261,64.1 596.778261,60.1 590.678261,60.1 C588.278261,60.1 584.478261,60.8 582.178261,65.2 C581.078261,62.6 578.678261,60.7 575.878261,60.4 C574.978261,60.2 574.078261,60.2 573.178261,60.2 C571.278261,60.4 567.778261,61.6 566.478261,64.3 L566.478261,60.6 L561.778261,60.6 L561.778261,85.2 L566.478261,85.2 L566.478261,71.9 C566.478261,66.7 569.878261,64.7 573.278261,64.7 C576.478261,64.7 578.578261,67.1 578.578261,71.2 L578.578261,85.2 L583.278261,85.2 L583.278261,71.9 C583.278261,67.8 585.678261,64.7 589.778261,64.8 Z M544.378261,81.1 C546.578261,81.1 548.678261,80.3 550.178261,78.7 C551.678261,77.1 552.478261,75 552.378261,72.8 C552.378261,67.8 548.778261,64.7 544.378261,64.7 C539.978261,64.7 536.378261,67.8 536.378261,72.8 C536.278261,75 537.078261,77.1 538.578261,78.7 C540.078261,80.3 542.178261,81.1 544.378261,81.1 C544.378261,81.1 544.378261,81.1 544.378261,81.1 Z M544.378261,85.7 C537.478261,85.7 531.678261,80.6 531.678261,72.8 C531.678261,65 537.478261,60 544.378261,60 C551.278261,60 557.078261,65 557.078261,72.8 C557.178261,80.6 551.278261,85.7 544.378261,85.7 L544.378261,85.7 Z M507.278261,72.8 L507.278261,72.8 C507.278261,65 513.178261,60.1 520.178261,60 C523.678261,59.9 527.078261,61.4 529.578261,64 L525.978261,67.1 C524.478261,65.6 522.378261,64.8 520.178261,64.8 C515.778261,64.8 511.978261,67.9 511.978261,72.9 C511.978261,76.2 513.978261,79.3 516.978261,80.5 C520.078261,81.8 523.578261,81.1 525.878261,78.7 L529.478261,81.8 C527.078261,84.4 523.578261,85.9 520.078261,85.8 C513.278261,85.7 507.278261,80.6 507.278261,72.8 Z M492.178261,80.5 C492.178261,78.7 493.578261,77.2 495.378261,77.2 C495.378261,77.2 495.378261,77.2 495.378261,77.2 C497.178261,77.2 498.678261,78.7 498.578261,80.5 C498.578261,80.5 498.578261,80.5 498.578261,80.5 C498.478261,82.2 497.078261,83.6 495.378261,83.6 C493.678261,83.6 492.278261,82.2 492.178261,80.5 Z M505.078261,29.3 L488.178261,29.3 L476.378261,59.8 L464.578261,29.3 L447.678261,29.3 L468.178261,77.4 L455.478261,109.200094 L472.178261,109.200094 C472.278261,109.3 505.078261,29.3 505.078261,29.3 Z M402.578261,56.1 C402.578261,63.8 409.278261,68.9 415.878261,68.9 C422.378261,68.9 428.778261,64.2 428.778261,56.1 C428.778261,48.1 422.378261,43.3 415.878261,43.3 C409.278261,43.3 402.578261,48.4 402.578261,56.1 L402.578261,56.1 Z M428.778261,83 L428.778261,76.9 C425.378261,82.1 417.378261,84 413.278261,84 C399.678261,84 386.178261,73.3 386.178261,56.1 C386.178261,38.9 399.778261,28.2 413.278261,28.2 C416.678261,28.2 424.678261,29.3 428.778261,35.3 L428.778261,29.3 L444.478261,29.3 L444.478261,83 L428.778261,83 L428.778261,83 Z M381.678261,83 L365.978261,83 L365.978261,76.3 C363.378261,81.2 356.978261,84.1 350.378261,84.1 C336.678261,84.1 324.678261,73.2 324.678261,56.3 C324.678261,39.1 336.778261,28.1 350.378261,28.1 C356.978261,28.1 363.378261,30.9 365.978261,35.8 L365.978261,0 L381.678261,0 L381.678261,83 Z M365.678261,56 C365.678261,48 359.878261,43.2 353.378261,43.2 C346.678261,43.2 341.078261,48.3 341.078261,56 C341.078261,63.9 346.678261,69 353.378261,69 C359.978261,69 365.678261,63.7 365.678261,56 Z M285.778261,54.6 C285.778261,46.4 289.978261,43.7 295.578261,43.7 C300.978261,43.7 304.778261,47.3 304.778261,54.4 L304.778261,83 L320.578261,83 L320.578261,50.9 C320.578261,35.6 313.078261,28.1 301.078261,28.1 C294.778261,28.1 288.578261,31.7 285.678261,37.1 L285.678261,29.3 L269.878261,29.3 L269.878261,83 L285.678261,83 C285.778261,83 285.778261,54.6 285.778261,54.6 Z M237.778261,83.9 C222.778261,83.9 210.178261,72.9 210.178261,56 C210.178261,39.1 222.678261,28.2 237.778261,28.2 C252.778261,28.2 265.478261,39.1 265.478261,56 C265.478261,72.9 252.878261,83.9 237.778261,83.9 L237.778261,83.9 Z M237.778261,68.3 C244.378261,68.3 249.878261,63.5 249.878261,56 C249.878261,48.8 244.378261,43.8 237.778261,43.8 C234.578261,43.7 231.478261,45 229.178261,47.3 C226.878261,49.6 225.678261,52.7 225.778261,56 C225.878261,63.5 231.278261,68.3 237.778261,68.3 Z M181.878261,43.7 C186.578261,43.7 190.678261,47.4 190.678261,54.4 L190.678261,83 L206.378261,83 L206.378261,52.5 C206.378261,36.3 198.478261,28.1 185.878261,28.1 C182.078261,28.1 175.078261,29.2 169.978261,37.6 C166.978261,31.4 161.278261,28.2 152.878261,28.2 C146.878261,28.2 141.478261,31.6 138.978261,37.1 L138.978261,29.3 L123.178261,29.3 L123.178261,83 L138.878261,83 L138.878261,54.6 C138.878261,46.4 143.278261,43.7 148.078261,43.7 C152.678261,43.7 156.778261,47.3 156.878261,54 L156.878261,83 L172.678261,83 L172.678261,54.6 C172.778261,46.8 176.878261,43.7 181.878261,43.7 L181.878261,43.7 Z" id="Shape" fill="#FFFFFF"></path>
        </g>
    </g>
</svg>