<svg width="66" height="55" viewBox="0 0 66 55" fill="none" xmlns="http://www.w3.org/2000/svg">
<path fill-rule="evenodd" clip-rule="evenodd" d="M58.9403 2.91672H51.9992C51.7011 2.91672 51.4142 3.03484 51.2032 3.24577L45.4433 9.0057C41.8546 6.58135 37.5292 5.16671 32.8744 5.16671C28.2227 5.16671 23.8969 6.58135 20.3056 9.0057L14.5456 3.24577C14.3347 3.03484 14.0478 2.91672 13.7497 2.91672H6.80856C6.3445 1.60612 5.09297 0.666748 3.62483 0.666748C1.76301 0.666748 0.249878 2.17988 0.249878 4.0417C0.249878 5.90353 1.76301 7.41666 3.62483 7.41666C5.09297 7.41666 6.34445 6.47729 6.80856 5.16669H13.2857L18.4887 10.3726C15.8141 12.6001 13.6626 15.435 12.2507 18.6669H6.99979C6.37823 18.6669 5.8748 19.1703 5.8748 19.7919C5.8748 20.4134 6.37823 20.9168 6.99979 20.9168H11.4069C10.8444 22.7056 10.4985 24.5899 10.4029 26.5418H6.99979C6.37823 26.5418 5.8748 27.0452 5.8748 27.6667C5.8748 28.2883 6.37823 28.7917 6.99979 28.7917H10.4029C10.4985 30.7407 10.8445 32.6279 11.4069 34.4167H6.99979C6.37823 34.4167 5.8748 34.9201 5.8748 35.5416C5.8748 36.1632 6.37823 36.6666 6.99979 36.6666H12.2507C13.6625 39.8982 15.8141 42.7359 18.4887 44.9609L13.2857 50.1668H6.80856C6.3445 48.8562 5.09297 47.9168 3.62483 47.9168C1.76301 47.9168 0.249878 49.43 0.249878 51.2918C0.249878 53.1536 1.76301 54.6668 3.62483 54.6668C5.09297 54.6668 6.34445 53.7274 6.80856 52.4168H13.7497C14.0478 52.4168 14.3347 52.2987 14.5456 52.0877L20.3056 46.3278C23.8943 48.7522 28.2197 50.1668 32.8744 50.1668C37.5262 50.1668 41.852 48.7522 45.4433 46.3278L51.2032 52.0877C51.4142 52.2987 51.701 52.4168 51.9992 52.4168H58.9403C59.4044 53.7274 60.6559 54.6668 62.1241 54.6668C63.9859 54.6668 65.499 53.1536 65.499 51.2918C65.499 49.43 63.9859 47.9168 62.1241 47.9168C60.6559 47.9168 59.4044 48.8562 58.9403 50.1668H52.4632L47.2601 44.9609C49.9348 42.7334 52.0863 39.8985 53.4982 36.6666H58.7491C59.3707 36.6666 59.8741 36.1632 59.8741 35.5416C59.8741 34.9201 59.3707 34.4167 58.7491 34.4167H54.342C54.9045 32.6279 55.2504 30.7436 55.346 28.7917H58.7491C59.3707 28.7917 59.8741 28.2883 59.8741 27.6667C59.8741 27.0452 59.3707 26.5418 58.7491 26.5418H55.346C55.2504 24.5927 54.9044 22.7056 54.342 20.9168H58.7491C59.3707 20.9168 59.8741 20.4134 59.8741 19.7919C59.8741 19.1703 59.3707 18.6669 58.7491 18.6669H53.4982C52.0864 15.4353 49.9348 12.5976 47.2601 10.3726L52.4632 5.16669H58.9403C59.4044 6.47729 60.6559 7.41666 62.1241 7.41666C63.9859 7.41666 65.499 5.90353 65.499 4.0417C65.499 2.17988 63.9859 0.666748 62.1241 0.666748C60.6559 0.666748 59.4044 1.60612 58.9403 2.91672ZM3.62491 52.4161C3.00335 52.4161 2.49992 51.9126 2.49992 51.2911C2.49992 50.6695 3.00335 50.1661 3.62491 50.1661C4.24646 50.1661 4.74989 50.6695 4.74989 51.2911C4.74989 51.9126 4.24646 52.4161 3.62491 52.4161ZM26.1246 22.0411H23.3122C21.7597 22.0411 20.4998 23.3011 20.4998 24.8535V36.1034C20.4998 37.6558 21.7597 38.9158 23.3122 38.9158H42.4366C43.989 38.9158 45.249 37.6558 45.249 36.1034V24.8535C45.249 23.3011 43.989 22.0411 42.4366 22.0411H39.6241V18.6661C39.6241 14.9424 36.5979 11.9162 32.8742 11.9162C29.1505 11.9162 26.1243 14.9424 26.1243 18.6661L26.1246 22.0411ZM42.9997 24.8535V36.1034C42.9997 36.4128 42.7466 36.6659 42.4372 36.6659H23.3129C23.0035 36.6659 22.7504 36.4128 22.7504 36.1034V24.8535C22.7504 24.5442 23.0035 24.291 23.3129 24.291H42.4372C42.7466 24.291 42.9997 24.5442 42.9997 24.8535ZM31.7499 31.3025C31.0777 30.9144 30.6249 30.1859 30.6249 29.3535C30.6249 28.1103 31.6317 27.1035 32.8749 27.1035C34.118 27.1035 35.1248 28.1103 35.1248 29.3535C35.1248 30.1859 34.672 30.9116 33.9999 31.3025V32.7284C33.9999 33.35 33.4964 33.8534 32.8749 33.8534C32.2533 33.8534 31.7499 33.35 31.7499 32.7284V31.3025ZM37.3748 22.0412V18.6663C37.3748 16.1829 35.3583 14.1664 32.8749 14.1664C30.3915 14.1664 28.3749 16.1829 28.3749 18.6663V22.0412H37.3748ZM62.1245 2.91686C62.746 2.91686 63.2495 3.42029 63.2495 4.04185C63.2495 4.6634 62.746 5.16683 62.1245 5.16683C61.5029 5.16683 60.9995 4.6634 60.9995 4.04185C60.9995 3.42029 61.5029 2.91686 62.1245 2.91686Z" fill="black"/>
</svg>
