<?xml version="1.0" encoding="UTF-8"?>
<svg width="62.7298693px" height="54px" viewBox="0 0 62.7298693 54" version="1.1" xmlns="http://www.w3.org/2000/svg" xmlns:xlink="http://www.w3.org/1999/xlink">
    <title>Icons / Features / Backend</title>
    <g id="Icons-/-Features-/-Backend" stroke="none" stroke-width="1" fill="none" fill-rule="evenodd">
        <path d="M38.0908952,21.0665566 C45.4646205,21.0665566 50.4228151,23.3562255 50.4228151,25.4994904 C50.4228151,27.6427553 45.4644867,29.9324242 38.0908952,29.9324242 C30.707133,29.9324242 25.7589753,27.6427553 25.7589753,25.4968808 C25.7589753,23.3536159 30.7067985,21.0665566 38.0908952,21.0665566 L38.0908952,21.0665566 Z M50.0046138,29.7758496 C50.0124553,29.7575531 50.0229096,29.7418702 50.0359789,29.7235738 C50.276448,29.4334491 50.4123601,29.0675196 50.4228118,28.6885088 L50.4228118,27.6822161 L50.4228118,27.6848304 C50.2685992,27.8312008 50.1091608,27.9723455 49.9418803,28.1030317 C49.8843773,28.1370104 49.8268716,28.1762136 49.7745998,28.2180337 C49.6386877,28.322584 49.4923106,28.4166827 49.3354884,28.521233 C49.2727582,28.5630531 49.1995763,28.6048733 49.1368395,28.6466934 C48.9486489,28.7512437 48.7500066,28.8662457 48.5409059,28.970796 C48.5095409,28.9917061 48.4781758,29.0021618 48.446814,29.0230719 C48.2063449,29.1380739 47.9449724,29.2530826 47.6836134,29.3680846 C47.5999731,29.3994504 47.5163328,29.4308148 47.4326926,29.4621832 C47.2340436,29.5458235 47.0354013,29.6190054 46.8158423,29.692194 C46.7217504,29.7235584 46.6381101,29.7653758 46.5440115,29.7967443 C46.2721806,29.8803845 46.0003498,29.9640248 45.7180472,30.0476651 L45.7180472,30.0502787 C45.6840685,30.0607337 45.6474749,30.0685751 45.6134968,30.0711887 C45.2998459,30.1652807 44.9652848,30.2384692 44.6306903,30.3221095 L44.3170394,30.3848397 C44.0661186,30.4371149 43.8151978,30.48939 43.5538387,30.5312101 C43.43883,30.5521202 43.3342864,30.5730303 43.2192777,30.5939403 C42.8742649,30.6462155 42.529279,30.6984907 42.1842127,30.7507692 C42.1580748,30.7481549 42.1319376,30.7507692 42.1110242,30.7612242 C41.734643,30.8030443 41.3373852,30.8448645 40.9504988,30.8762329 L40.6054861,30.907598 C40.3127452,30.9285081 40.0095526,30.9389631 39.7063198,30.9598732 C39.5808595,30.9598732 39.4658507,30.9703282 39.3403904,30.9703282 C38.9326407,30.9912383 38.5144261,31.0016933 38.0962248,31.0016933 C37.6675718,31.0016933 37.2598222,30.9912383 36.8416209,30.9703282 C36.7266122,30.9703282 36.6011518,30.9598732 36.4861498,30.9598732 C36.1829572,30.9389631 35.8797579,30.9285081 35.5869835,30.907598 C35.4719748,30.897143 35.3465144,30.8866879 35.2315124,30.8762329 C34.8446795,30.8448678 34.4578734,30.8030443 34.0814254,30.7612242 L34.0788118,30.7612242 C34.0552875,30.7533828 34.0317638,30.7507692 34.0056232,30.7507692 C33.6501521,30.698494 33.3051193,30.6462188 32.9705583,30.5939403 C32.8555496,30.5730303 32.7405475,30.5521202 32.6255388,30.5312101 C32.3746181,30.48939 32.1132456,30.4371182 31.8623382,30.3848397 L31.5486872,30.3221095 C31.2141262,30.2384692 30.8900168,30.1652807 30.5763859,30.0711887 C30.5371801,30.0685751 30.4979715,30.0607337 30.4613839,30.0502787 C30.1790947,29.9666384 29.9072638,29.8829981 29.6458579,29.7993579 C29.5517593,29.7679928 29.4576673,29.7261693 29.3635687,29.6948075 C29.154468,29.621619 28.9453674,29.5484371 28.7467251,29.4647968 L28.4958043,29.3707049 C28.2344252,29.2556962 27.9835044,29.1406942 27.743042,29.0256922 L27.6384917,28.973417 C27.429391,28.8688667 27.2412004,28.7538647 27.0530099,28.6493076 C26.9798213,28.6074875 26.9170911,28.5656674 26.8439092,28.5238473 C26.6975388,28.4192969 26.5511683,28.3251983 26.4047978,28.2206547 L26.4047978,28.2180404 C26.3551363,28.1762203 26.3028638,28.1370164 26.247969,28.1030384 C26.0780722,27.9749617 25.9186338,27.8338238 25.7670375,27.6848371 L25.7670375,28.6911298 L25.7670375,28.6885162 C25.7774932,29.0648974 25.9107917,29.4282306 26.1434187,29.7235811 C27.5130447,31.605487 31.9172062,32.9437311 37.0608145,33.1110117 C37.3953756,33.1214674 37.7403749,33.1214674 38.0958795,33.1214674 C38.4199888,33.1214674 38.7336331,33.1214674 39.0577425,33.1110117 C39.3086633,33.1005573 39.559584,33.0901016 39.8105048,33.0796472 L39.8131184,33.0822608 C39.86278,33.0744194 39.9150525,33.0691915 39.9699472,33.0718058 C44.2591536,32.820885 48.0020887,31.7231233 49.6327392,30.1757785 C49.6954694,30.1235034 49.7372895,30.0816866 49.789568,30.0294081 C49.8522982,29.9562195 49.9150284,29.893496 49.9777586,29.8203074 C49.9829865,29.8072381 49.9934415,29.7889423 50.0038965,29.7758737 L50.0046138,29.7758496 Z M41.6901029,33.991854 C41.1464412,34.0545842 40.5819029,34.0964043 40.0172977,34.1382245 C39.9441091,34.1382245 39.868311,34.1408381 39.7977386,34.1486795 C39.2331669,34.1695896 38.6685951,34.1904996 38.0935516,34.1904996 C37.5185215,34.1904996 36.9644081,34.1695896 36.4103081,34.1486795 C36.3057578,34.1382245 36.2116658,34.1382245 36.1175672,34.1277694 C35.5843639,34.0964043 35.072064,34.0545809 34.5702224,34.002309 C34.4656721,33.991854 34.3715801,33.981399 34.2670298,33.9709439 C33.7547299,33.9082137 33.2529084,33.8350319 32.7615051,33.7513916 C32.7301393,33.7513916 32.7092293,33.7409366 32.6778649,33.7409366 C32.1969334,33.6572963 31.7473837,33.5632044 31.3082389,33.4586474 C31.235057,33.4377373 31.1618684,33.4272823 31.0886865,33.4063722 C30.6495752,33.3018219 30.2209021,33.1763615 29.8236443,33.0509011 C29.7400041,33.029991 29.6668222,32.9986259 29.5831819,32.9777125 C29.1858907,32.8418004 28.7885995,32.7058817 28.4330949,32.5490595 C28.3912748,32.5386045 28.3599063,32.5176944 28.3285446,32.5072394 L28.3233167,32.5072394 C27.9913719,32.3634852 27.6672626,32.2040468 27.3510154,32.0263079 L27.225555,31.9635777 C26.9328141,31.8041393 26.6531412,31.6237908 26.3891524,31.419916 C26.3577873,31.409461 26.3290358,31.3911645 26.3055122,31.3676408 L26.6714417,38.5948284 C26.6714417,38.6261935 26.6818967,38.668017 26.6818967,38.7098371 C28.1769831,39.6821384 30.2261694,40.9890008 31.6375486,41.7417631 C31.8466493,41.8619977 32.0452983,42.000526 32.2334821,42.1495127 C34.1650369,42.5232776 36.1253638,42.7088586 38.0909099,42.7037337 C38.8018521,42.7037337 39.5232326,42.672261 40.2969385,42.6199858 C43.0126374,42.5180518 45.681297,41.8854905 48.1510935,40.7590235 C48.3392841,40.6701574 48.5117904,40.5525391 48.6633867,40.4140108 C49.1678446,39.9356956 49.4631884,39.2796481 49.489351,38.5843634 L49.5939014,36.6397608 L49.5939014,36.6293057 L49.8552738,31.3677981 C48.1510868,32.6642221 45.2315064,33.5947033 41.7394921,33.992028 L41.6901029,33.991854 Z M31.1253343,42.6824116 C29.630248,41.8668856 27.4425533,40.4659447 25.9160851,39.4805286 L25.9160851,39.4700736 L25.9056301,39.4700736 C24.8705651,38.7905132 24.1491846,38.2991099 24.1491846,38.2991099 L24.1491846,38.3017235 C23.9087155,38.1318267 23.845992,37.8051078 24.0028142,37.5593995 C24.1700947,37.3163208 24.5020395,37.2562069 24.7451382,37.4234874 C24.7451382,37.4234874 25.0692476,37.6430398 25.5711025,37.9776008 L25.1842697,30.2070861 L25.1842697,30.2044718 C24.8732349,29.7601346 24.7007219,29.2321705 24.6928798,28.6911184 L24.6928798,25.4997406 C24.6928798,22.7396121 29.4107257,20.5231452 35.7802327,20.0813908 C33.1194018,18.4739588 30.3070148,17.1357146 27.3820814,16.0875349 C27.0057003,15.9411644 26.6711392,15.8052457 26.3888366,15.6902437 C20.019129,13.1261679 3.88157719,2.57411264 0,0 L0,20.8759398 C3.82657535,22.4023411 14.5480523,26.9006481 14.5480523,29.5664974 C14.5480523,29.9742403 14.5375966,30.4029 14.5166865,30.8315396 C14.4330462,33.1316467 14.3284959,35.7349331 16.7017716,38.5706056 C17.5277359,39.5534121 18.2177346,40.4943315 18.8241599,41.3333437 C20.4237631,43.5288671 21.678367,45.2644359 24.3470266,46.2811669 C25.8629896,46.8561971 27.3371994,47.5253325 28.6466713,48.1108143 C30.1835778,48.800813 32.0863603,49.6791027 32.5281147,49.5745189 L32.5255011,49.5745189 C32.7215338,49.2451837 32.8679042,48.8897394 32.9541541,48.5185773 C33.3305352,47.1698949 33.4873641,44.5116736 31.6995502,43.0584073 C31.5192017,42.9172627 31.3283948,42.7918023 31.12452,42.6820262 L31.1253343,42.6824116 Z M51.11268,50.495081 C49.1785157,48.3622544 44.7429724,45.9654591 40.2240564,43.6860947 C39.4817324,43.7383699 38.7812954,43.769735 38.0912298,43.769735 L38.0912298,43.7723486 C36.5203319,43.7749622 34.9495009,43.6599561 33.3943273,43.4273358 C34.2281203,44.9224222 34.473822,46.6736485 34.084326,48.3412346 C39.3144518,50.5995216 47.5450549,54 48.559444,54 C50.4622933,54 51.779594,53.8745396 51.967818,52.3063182 L51.9704323,52.3037046 C51.946908,51.6319729 51.6567813,50.9968423 51.1654115,50.5368208 C51.1445014,50.5263658 51.1288186,50.5132972 51.1131364,50.4950007 L51.11268,50.495081 Z M53.3082034,44.1671935 C51.8026787,43.3412292 50.2553339,42.4735117 48.7890198,41.6057272 C48.7393589,41.6449338 48.6870857,41.6789158 48.6321976,41.7102776 C46.6065643,42.669531 44.4319176,43.2758894 42.2023359,43.4981049 C46.2301163,45.5682348 49.9728506,47.7141093 51.8028995,49.6796554 C54.2389054,50.9446976 57.3467098,52.1574814 58.4758533,51.8778552 C59.5553479,51.7210264 60.3787027,50.832352 60.4518377,49.742419 C60.4439963,49.3477441 60.3472874,48.9582749 60.1695485,48.6028372 C59.7722572,47.745558 56.3429731,45.8505374 53.3083707,44.1699034 L53.3082034,44.1671935 Z M59.5524506,42.891713 L58.7683065,42.3898714 C58.7473964,42.3794164 58.7160313,42.3689613 58.6951179,42.3585063 C56.4263926,40.9470602 53.1618129,39.0442777 50.6107849,37.5805732 L50.5585098,38.6365147 L50.5585098,38.6339012 C50.514076,39.462475 50.1978128,40.2518383 49.6593435,40.8817499 C51.0184643,41.6763323 52.4403487,42.4709148 53.8230895,43.2341155 C58.0181504,45.5577757 60.611333,47.0423569 61.1339173,48.1401186 L61.1313037,48.1401186 C61.1914203,48.2812632 61.2436962,48.4250173 61.2881326,48.5713878 C61.8370201,48.4589954 62.2996444,48.0930726 62.5322982,47.5859717 C62.7936706,46.9299176 63.3895774,45.3930579 59.5526306,42.8916788 L59.5524506,42.891713 Z M59.249258,41.4489519 C60.0438405,41.6920306 60.8959006,41.3234916 61.2670626,40.5811675 C61.4343431,40.3093367 61.6434438,38.6365649 50.9036998,31.7755209 L50.6736891,36.3992883 C53.2769755,37.8839364 56.7820376,39.9226176 59.2076721,41.4307518 L59.2076721,41.4281382 C59.2233543,41.4281382 59.2390372,41.4359797 59.2494922,41.4490483 L59.249258,41.4489519 Z" id="Shape" fill="#000000" fill-rule="nonzero"></path>
    </g>
</svg>