<svg width="83" height="54" viewBox="0 0 83 54" fill="none" xmlns="http://www.w3.org/2000/svg">
<path fill-rule="evenodd" clip-rule="evenodd" d="M41.1272 4.00016C45.3637 1.382 50.2727 -0.0180075 55.2545 0.000174887C70.1452 0.000174887 82.2543 12.1093 82.2543 27C82.2543 41.8907 70.1452 53.9998 55.2545 53.9998C50.2725 54.018 45.3635 52.618 41.1272 49.9998C36.8906 52.618 31.9816 54.018 26.9998 53.9998C12.1091 53.9998 -1.52588e-05 41.8907 -1.52588e-05 27C-1.52588e-05 12.1093 12.1091 0.000174887 26.9998 0.000174887C31.9818 -0.0179777 36.8908 1.382 41.1272 4.00016ZM3.61839 27.0177C3.61839 39.9088 14.091 50.3814 26.9998 50.3814C30.7996 50.3814 34.5449 49.4541 37.8904 47.6723C36.6905 46.6542 35.5814 45.5451 34.5632 44.3451C24.9816 32.9267 26.472 15.9089 37.8904 6.32713C34.5452 4.54535 30.7997 3.63627 26.9998 3.63627C14.091 3.63627 3.61839 14.1266 3.61839 27.0177ZM44.3639 47.6906C47.7091 49.4723 51.4546 50.3814 55.2545 50.3814V50.382C68.1633 50.382 78.6359 39.9093 78.6359 27.0182C78.6359 14.1271 68.1633 3.65452 55.2545 3.65452C51.4547 3.63627 47.7275 4.56354 44.3639 6.34538C45.5638 7.3635 46.6729 8.47257 47.6911 9.6726C57.2727 21.091 55.7823 38.1088 44.3639 47.6906Z" fill="black"/>
</svg>
