<?xml version="1.0" encoding="UTF-8"?>
<svg width="62px" height="34px" viewBox="0 0 62 34" version="1.1" xmlns="http://www.w3.org/2000/svg" xmlns:xlink="http://www.w3.org/1999/xlink">
    <title>Icons / Features / Lagfree UI</title>
    <g id="Icons-/-Features-/-Lagfree-UI" stroke="none" stroke-width="1" fill="none" fill-rule="evenodd">
        <path d="M45,0 C54.375,0 62,7.625 62,17 C62,26.375 54.375,34 45,34 L45,34 L17,34 C7.625,34 0,26.375 0,17 C0,7.625 7.625,0 17,0 L17,0 Z M45,4 C37.8203,4 32,9.8203 32,17 C32,24.1797 37.8203,30 45,30 C52.1797,30 58,24.1797 58,17 C58,9.8203 52.1797,4 45,4 Z M18.6507498,10.204794 L13.1029864,17.6418484 C12.8522614,17.9663508 13.0880007,18.4384079 13.5012662,18.4384079 L16.275443,18.4384079 L15.2719526,23.3965426 C15.1687794,23.9279758 15.8471801,24.2230853 16.1722727,23.7948224 L21.7206263,16.3433076 C21.9707759,16.0332065 21.7350359,15.5611494 21.3217711,15.5611494 L18.5475795,15.5612084 L19.5510699,10.6030737 C19.6542431,10.072216 18.9758424,9.77710653 18.6507498,10.204794 Z" id="Shape" fill="#000000" fill-rule="nonzero"></path>
    </g>
</svg>