<?xml version="1.0" encoding="UTF-8"?><svg version="1.1" width="54px" height="54px" viewBox="0 0 54.0 54.0" xmlns="http://www.w3.org/2000/svg" xmlns:xlink="http://www.w3.org/1999/xlink"><defs><clipPath id="i0"><path d="M1440,0 L1440,1239 L0,1239 L0,0 L1440,0 Z"></path></clipPath><clipPath id="i1"><path d="M27,0 C41.9109541,0 54,12.089044 54,27 C54,41.9109541 41.9115841,54 27,54 C12.089044,54 0,41.9109541 0,27 C0,12.089044 12.089044,0 27,0 Z M33.7358168,17.635501 L22.9295169,29.7806178 L20.0476269,27.122641 C18.7679069,25.941332 16.7744243,26.022543 15.5955724,27.3023008 C14.4167205,28.5795636 14.4954745,30.5730462 15.7752322,31.7518981 L20.3429604,35.9652336 C22.0066216,37.5009353 24.6079585,37.3729759 26.1141748,35.6797537 L38.4413707,21.8217703 C39.5980455,20.5223304 39.4823717,18.5313049 38.182957,17.3746301 C36.8835171,16.2179553 34.8924916,16.3360862 33.7358168,17.635501 Z"></path></clipPath></defs><g transform="translate(-288.0 -867.0)"><g clip-path="url(#i0)"><g transform="translate(240.0 819.0)"><g transform="translate(48.00000000000003 48.0)"><g clip-path="url(#i1)"><polygon points="0,0 54,0 54,54 0,54 0,0" stroke="none" fill="#000000"></polygon></g></g></g></g></g></svg>