<svg width="54" height="51" viewBox="0 0 54 51" fill="none" xmlns="http://www.w3.org/2000/svg">
<g clip-path="url(#clip0_501_438)">
<path d="M45.0529 9.04279C45.0529 9.04279 38.3877 6.29797 38.3836 6.29596C38.3434 6.27988 37.823 6.23969 37.7908 6.24773C37.7848 6.24974 33.1029 7.34085 33.1029 7.34085V4.80297C33.1029 4.38903 32.8537 4.01531 32.4699 3.85657L23.2991 0.0768601C23.0499 -0.02562 22.7706 -0.02562 22.5214 0.0768601L0.634984 9.04297C0.25119 9.1997 0 9.57343 0 9.98937V35.8301C0 36.2601 0.269261 36.6459 0.675159 36.7926L22.5616 44.7016C22.6741 44.7418 22.7907 44.7619 22.9092 44.7619C23.0278 44.7619 23.1464 44.7418 23.2589 44.6996L32.4297 41.364C32.8336 41.2173 33.1029 40.8335 33.1029 40.4035V38.2855L37.7767 39.2481C37.8471 39.2621 38.2429 39.2501 38.3574 39.2079L45.0128 36.7886C45.4167 36.6419 45.686 36.2581 45.686 35.8281V9.98736C45.686 9.57342 45.4347 9.20153 45.0529 9.04279ZM37.4957 22.2286L33.1031 22.2889V20.4904L36.2358 20.3277C36.3423 20.3216 36.4227 20.2312 36.4166 20.1267C36.4106 20.0222 36.3242 19.9439 36.2157 19.9459L33.1031 20.1087V18.2138L36.2438 17.9405C36.3483 17.9305 36.4267 17.838 36.4186 17.7335C36.4106 17.6291 36.3182 17.5527 36.2117 17.5587L33.1051 17.828V15.9532L37.4997 15.3987L37.4957 22.2286ZM33.1011 27.9817L36.2117 28.1746H36.2238C36.3242 28.1746 36.4086 28.0962 36.4147 27.9958C36.4207 27.8893 36.3403 27.7988 36.2358 27.7928L33.1011 27.5979V25.6006L36.2197 25.6809H36.2257C36.3282 25.6809 36.4146 25.5986 36.4166 25.4941C36.4186 25.3876 36.3363 25.2991 36.2298 25.2971L33.1031 25.2168V23.3139L37.4957 23.2536V30.1718L33.1031 29.7338L33.1011 27.9817ZM37.4957 8.41624V14.37L33.1011 14.9246V13.2286L36.2559 12.7142C36.3604 12.6981 36.4307 12.5977 36.4146 12.4932C36.3986 12.3887 36.2961 12.3163 36.1936 12.3344L33.1011 12.8388V11.2011L36.2599 10.5883C36.3644 10.5682 36.4327 10.4677 36.4126 10.3632C36.3925 10.2587 36.288 10.1904 36.1876 10.2105L33.1011 10.8093V9.44089L37.4957 8.41624ZM22.3326 22.44L16.7425 22.5184L16.7405 13.2086L22.3305 11.9548L22.3326 22.44ZM16.2301 22.5264L11.2991 22.5947V14.4285L16.2301 13.3234V22.5264ZM16.2301 23.5492V31.8502L11.2991 30.9741V23.6176L16.2301 23.5492ZM16.7405 23.5412L22.3306 23.4628V32.931L16.7405 31.9383V23.5412ZM22.3327 10.9078L16.7405 12.1597V4.65451L22.3306 2.36381L22.3327 10.9078ZM16.2302 12.2742L11.2992 13.3794V6.88498L16.2302 4.86552V12.2742ZM10.7868 13.4939L5.85574 14.5991L5.85775 9.11344L10.7888 7.09398L10.7868 13.4939ZM10.7868 14.5428V22.6026L5.85574 22.6709L5.85775 15.6462L10.7868 14.5428ZM5.3454 22.6766L2.04594 22.7229V16.5016L5.3454 15.7622V22.6766ZM2.04594 23.7456L5.3454 23.6994V29.9165L2.04594 29.3298V23.7456ZM5.8578 23.6934L10.7889 23.6251V30.8828L5.8578 30.0068V23.6934ZM10.7868 31.9198V38.2717L5.8558 36.4894L5.8578 31.0459L10.7868 31.9198ZM11.2992 32.0122L16.2303 32.8883V40.2387L11.2992 38.4563V32.0122ZM16.7406 32.9767L22.3307 33.9694V42.4432L16.7406 40.4217V32.9767ZM5.3455 9.32225V14.7132L2.04604 15.4527V10.6743L5.3455 9.32225ZM2.04604 30.3687L5.3455 30.9554V36.3042L2.04604 35.1106V30.3687ZM33.1033 34.8356L36.1958 35.35C36.2058 35.352 36.2159 35.352 36.228 35.352C36.3204 35.352 36.4008 35.2857 36.4168 35.1913C36.4329 35.0868 36.3646 34.9883 36.2581 34.9702L33.1033 34.4438V32.8141L36.1998 33.2341C36.2079 33.2361 36.2179 33.2361 36.2259 33.2361C36.3204 33.2361 36.4028 33.1658 36.4148 33.0693C36.4289 32.9648 36.3565 32.8684 36.2501 32.8543L33.1013 32.4263V30.7565L37.4939 31.1946V37.102L33.1013 36.1958L33.1033 34.8356ZM17.4222 6.42491L21.3124 5.09872C21.447 5.0525 21.5917 5.12484 21.6379 5.25746C21.6841 5.39209 21.6118 5.53676 21.4792 5.58298L17.589 6.90917C17.5608 6.91922 17.5347 6.92324 17.5066 6.92324C17.4001 6.92324 17.3016 6.85693 17.2654 6.75043C17.2152 6.6158 17.2875 6.47112 17.4222 6.42491ZM11.9725 8.28361L15.3122 7.14431C15.4468 7.09809 15.5915 7.17043 15.6357 7.30305C15.6819 7.43768 15.6096 7.58235 15.477 7.62656L12.1373 8.76587C12.1092 8.77592 12.0831 8.77994 12.0549 8.77994C11.9484 8.77994 11.85 8.71362 11.8138 8.60713C11.7676 8.47451 11.8379 8.32983 11.9725 8.28361ZM6.30224 10.2167L9.9051 8.98691C10.0377 8.94069 10.1844 9.01303 10.2306 9.14565C10.2768 9.28028 10.2045 9.42496 10.0719 9.47117L6.46902 10.7009C6.44089 10.711 6.41477 10.715 6.38664 10.715C6.28014 10.715 6.18168 10.6487 6.14551 10.5422C6.09728 10.4075 6.16962 10.2629 6.30224 10.2167ZM2.49646 11.786C2.45024 11.6514 2.52258 11.5067 2.6552 11.4625L4.63247 10.7873C4.76509 10.7411 4.91178 10.8135 4.95599 10.9461C5.00221 11.0807 4.92987 11.2254 4.79725 11.2696L2.81997 11.9447C2.79184 11.9548 2.76572 11.9588 2.73759 11.9588C2.63109 11.9588 2.53262 11.8925 2.49646 11.786ZM21.6401 8.45239C21.6783 8.58903 21.5999 8.72969 21.4633 8.76787L17.5751 9.86499C17.551 9.87102 17.5289 9.87504 17.5048 9.87504C17.3922 9.87504 17.2918 9.80069 17.2596 9.68817C17.2214 9.55153 17.2998 9.41087 17.4364 9.37269L21.3246 8.27556C21.4613 8.23939 21.6019 8.31776 21.6401 8.45239ZM15.6401 10.1443C15.6782 10.281 15.5999 10.4216 15.4632 10.4598L12.1236 11.4022C12.0995 11.4082 12.0774 11.4122 12.0533 11.4122C11.9407 11.4122 11.8403 11.3379 11.8081 11.2254C11.77 11.0887 11.8483 10.9481 11.985 10.9099L15.3246 9.9675C15.4632 9.93133 15.6019 10.0097 15.6401 10.1443ZM10.1904 11.6815C10.2286 11.8182 10.1502 11.9588 10.0136 11.997L6.49311 12.9897C6.469 12.9957 6.4469 12.9997 6.42278 12.9997C6.31026 12.9997 6.20979 12.9254 6.17764 12.8128C6.13946 12.6762 6.21783 12.5355 6.35447 12.4974L9.87496 11.5047C10.0116 11.4665 10.1523 11.5449 10.1904 11.6815ZM5.00007 13.1444C5.03825 13.281 4.95989 13.4217 4.82325 13.4599L2.81788 14.0265C2.79377 14.0326 2.77167 14.0366 2.74755 14.0366C2.63503 14.0366 2.53456 13.9622 2.50241 13.8497C2.46423 13.7131 2.5426 13.5724 2.67924 13.5342L4.6846 12.9676C4.82325 12.9314 4.96189 13.0098 5.00007 13.1444ZM17.2512 16.046C17.2291 15.9073 17.3255 15.7767 17.4642 15.7546L21.3524 15.1558C21.493 15.1357 21.6216 15.2301 21.6437 15.3688C21.6658 15.5074 21.5694 15.638 21.4307 15.6601L17.5425 16.259C17.5285 16.261 17.5164 16.263 17.5044 16.263C17.3798 16.263 17.2713 16.1726 17.2512 16.046ZM11.8437 16.8799C11.8216 16.7412 11.9181 16.6106 12.0567 16.5885L15.3542 16.0801C15.4948 16.06 15.6234 16.1545 15.6456 16.2931C15.6677 16.4318 15.5712 16.5624 15.4326 16.5845L12.1351 17.0929C12.121 17.0949 12.109 17.0969 12.0969 17.0969C11.9723 17.0969 11.8638 17.0065 11.8437 16.8799ZM6.1328 17.762C6.11069 17.6233 6.20714 17.4927 6.34579 17.4706L9.90646 16.922C10.0471 16.8999 10.1757 16.9964 10.1978 17.135C10.2199 17.2737 10.1235 17.4043 9.98483 17.4264L6.42416 17.975C6.4101 17.977 6.39804 17.979 6.38598 17.979C6.2614 17.977 6.15088 17.8866 6.1328 17.762ZM2.52994 18.3166C2.50784 18.1779 2.60429 18.0473 2.74294 18.0252L4.67598 17.7278C4.81664 17.7057 4.94524 17.8021 4.96734 17.9408C4.98945 18.0794 4.893 18.2101 4.75435 18.2322L2.82131 18.5295C2.80724 18.5316 2.79519 18.5336 2.78313 18.5336C2.65855 18.5336 2.55004 18.4431 2.52994 18.3166ZM21.6895 19.1826C21.7016 19.3233 21.5971 19.4478 21.4564 19.4579L17.5261 19.7874C17.518 19.7874 17.512 19.7894 17.504 19.7894C17.3714 19.7894 17.2608 19.689 17.2488 19.5543C17.2367 19.4137 17.3412 19.2891 17.4819 19.2791L21.4122 18.9495C21.5589 18.9334 21.6775 19.042 21.6895 19.1826ZM15.6494 19.687C15.6614 19.8276 15.5569 19.9522 15.4163 19.9623L12.0767 20.2416C12.0686 20.2416 12.0626 20.2436 12.0546 20.2436C11.9219 20.2436 11.8114 20.1431 11.7994 20.0085C11.7873 19.8678 11.8918 19.7432 12.0324 19.7332L15.3721 19.4539C15.5168 19.4378 15.6373 19.5463 15.6494 19.687ZM10.1997 20.1431C10.2118 20.2838 10.1073 20.4083 9.96666 20.4184L6.40599 20.7158C6.39795 20.7158 6.39192 20.7178 6.38388 20.7178C6.25127 20.7178 6.14075 20.6173 6.12869 20.4827C6.11664 20.342 6.22113 20.2175 6.36179 20.2074L9.92246 19.91C10.0671 19.8939 10.1877 20.0024 10.1997 20.1431ZM4.96926 20.5811C4.98132 20.7218 4.87683 20.8464 4.73617 20.8564L2.87546 21.0132C2.86742 21.0132 2.8614 21.0152 2.85336 21.0152C2.72074 21.0152 2.61022 20.9147 2.59817 20.7801C2.58611 20.6394 2.6906 20.5148 2.83125 20.5048L4.69197 20.3481C4.83463 20.336 4.9572 20.4405 4.96926 20.5811ZM17.2466 26.2797C17.2546 26.1391 17.3732 26.0266 17.5159 26.0366L21.4061 26.2375C21.5467 26.2456 21.6552 26.3641 21.6492 26.5068C21.6412 26.6434 21.5286 26.7499 21.394 26.7499H21.3799L17.4897 26.549C17.3491 26.541 17.2406 26.4204 17.2466 26.2797ZM11.799 25.9984C11.8071 25.8578 11.9236 25.7473 12.0683 25.7553L15.4079 25.9281C15.5486 25.9361 15.6571 26.0547 15.6511 26.1974C15.643 26.334 15.5305 26.4405 15.3959 26.4405H15.3818L12.0422 26.2677C11.8995 26.2596 11.791 26.1391 11.799 25.9984ZM6.13028 25.7071C6.13832 25.5664 6.25486 25.4519 6.39954 25.4639L9.9582 25.6468C10.0989 25.6548 10.2074 25.7734 10.2013 25.916C10.1933 26.0527 10.0808 26.1592 9.94615 26.1592H9.93209L6.37342 25.9763C6.23075 25.9683 6.12224 25.8477 6.13028 25.7071ZM2.51539 25.5202C2.52342 25.3795 2.64198 25.267 2.78465 25.277L4.72772 25.3775C4.86838 25.3856 4.97688 25.5041 4.97086 25.6468C4.96282 25.7834 4.85029 25.8899 4.71566 25.8899H4.7016L2.75853 25.7894C2.61586 25.7814 2.50735 25.6608 2.51539 25.5202ZM21.6467 30.0313C21.6306 30.1619 21.5221 30.2563 21.3935 30.2563C21.3835 30.2563 21.3734 30.2563 21.3634 30.2543L17.4752 29.8002C17.3345 29.7841 17.234 29.6575 17.2501 29.5169C17.2662 29.3762 17.3908 29.2757 17.5334 29.2918L21.4216 29.7459C21.5623 29.764 21.6628 29.8906 21.6467 30.0313ZM15.6466 29.332C15.6306 29.4626 15.5221 29.557 15.3935 29.557C15.3834 29.557 15.3734 29.557 15.3633 29.555L12.0237 29.1652C11.883 29.1491 11.7826 29.0225 11.7986 28.8819C11.8147 28.7412 11.9393 28.6408 12.082 28.6568L15.4216 29.0467C15.5623 29.0627 15.6627 29.1913 15.6466 29.332ZM10.197 28.695C10.1809 28.8256 10.0724 28.9201 9.94384 28.9201C9.93379 28.9201 9.92374 28.9201 9.9137 28.918L6.35302 28.5021C6.21236 28.486 6.1119 28.3594 6.12797 28.2188C6.14405 28.0781 6.26863 27.9776 6.4113 27.9937L9.97197 28.4097C10.1146 28.4278 10.2131 28.5564 10.197 28.695ZM4.96859 28.0862C4.95252 28.2168 4.84401 28.3112 4.71541 28.3112C4.70536 28.3112 4.69531 28.3112 4.68527 28.3092L2.75825 28.0841C2.61759 28.0681 2.51712 27.9415 2.53319 27.8008C2.54927 27.6602 2.67385 27.5597 2.81652 27.5758L4.74354 27.8008C4.8842 27.8189 4.98467 27.9455 4.96859 28.0862ZM17.2542 35.4689C17.2863 35.3303 17.425 35.2479 17.5616 35.278L21.4518 36.1963C21.5884 36.2285 21.6749 36.3671 21.6427 36.5038C21.6146 36.6223 21.5101 36.7007 21.3935 36.7007C21.3734 36.7007 21.3554 36.6987 21.3353 36.6947L17.4451 35.7764C17.3064 35.7442 17.222 35.6056 17.2542 35.4689ZM11.8045 34.1809C11.8367 34.0422 11.9753 33.9599 12.112 33.99L15.4516 34.7797C15.5883 34.8119 15.6747 34.9505 15.6425 35.0872C15.6144 35.2057 15.5099 35.2841 15.3933 35.2841C15.3732 35.2841 15.3552 35.2821 15.3351 35.2781L11.9954 34.4883C11.8568 34.4562 11.7724 34.3175 11.8045 34.1809ZM6.13578 32.8426C6.16793 32.704 6.30658 32.6216 6.44322 32.6517L10.0039 33.4937C10.1405 33.5258 10.2269 33.6644 10.1948 33.8011C10.1667 33.9196 10.0622 33.998 9.94562 33.998C9.92553 33.998 9.90744 33.996 9.88735 33.992L6.32668 33.1501C6.18803 33.1179 6.10363 32.9793 6.13578 32.8426ZM2.52089 31.9886C2.55304 31.852 2.69169 31.7656 2.82833 31.7977L4.7714 32.2579C4.90804 32.29 4.99444 32.4287 4.96229 32.5653C4.93416 32.6839 4.82967 32.7622 4.71312 32.7622C4.69303 32.7622 4.67494 32.7602 4.65485 32.7562L2.71178 32.296C2.57313 32.2639 2.48874 32.1252 2.52089 31.9886ZM21.6362 39.554C21.6021 39.6645 21.5016 39.7368 21.3911 39.7368C21.367 39.7368 21.3429 39.7328 21.3168 39.7268L17.4245 38.5593C17.2899 38.5191 17.2136 38.3765 17.2537 38.2419C17.2939 38.1072 17.4366 38.0289 17.5712 38.0711L21.4634 39.2385C21.6001 39.2767 21.6764 39.4173 21.6362 39.554ZM15.6624 37.7616C15.6283 37.8721 15.5278 37.9444 15.4173 37.9444C15.3932 37.9444 15.3691 37.9404 15.3429 37.9344L11.9792 36.9257C11.8446 36.8855 11.7682 36.7428 11.8084 36.6082C11.8486 36.4736 11.9912 36.3972 12.1259 36.4374L15.4896 37.4461C15.6263 37.4843 15.7026 37.6269 15.6624 37.7616ZM10.1886 36.1199C10.1545 36.2304 10.054 36.3028 9.94349 36.3028C9.91938 36.3028 9.89527 36.2987 9.86914 36.2927L6.30647 35.2257C6.17184 35.1855 6.09548 35.0429 6.13567 34.9082C6.17586 34.7736 6.31852 34.6972 6.45316 34.7374L10.0158 35.8044C10.1525 35.8426 10.2288 35.9853 10.1886 36.1199ZM4.95609 34.5505C4.92193 34.6611 4.82146 34.7334 4.71095 34.7334C4.68683 34.7334 4.66272 34.7294 4.6366 34.7234L2.63324 34.1225C2.49861 34.0823 2.42225 33.9397 2.46244 33.805C2.50263 33.6704 2.6453 33.5941 2.77993 33.6342L4.78329 34.2351C4.91992 34.2732 4.99628 34.4159 4.95609 34.5505Z" fill="black"/>
<mask id="path-2-outside-1_501_438" maskUnits="userSpaceOnUse" x="27" y="24" width="31" height="31" fill="black">
<rect fill="white" x="27" y="24" width="31" height="31"/>
<path fill-rule="evenodd" clip-rule="evenodd" d="M50.6303 31.3729C51.6856 32.4308 52.517 33.6602 53.097 35.0291L53.0961 35.0283C53.6972 36.4459 54 37.9507 54 39.5013C54 45.8414 48.8409 50.9998 42.5 50.9998C36.1591 50.9998 31 45.8414 31 39.5013C31 33.1612 36.1591 28.0018 42.5 28C44.0509 28 45.5558 28.3055 46.9736 28.9065C48.3435 29.4873 49.5732 30.3177 50.6303 31.3729ZM45.7998 36.2382C46.0512 36.2382 46.2926 36.3392 46.4715 36.5181L46.4743 36.518L46.4762 36.5226C46.8405 36.8933 46.8359 37.497 46.4688 37.864L41.8162 42.4885C41.6373 42.6665 41.3987 42.7656 41.1463 42.7656C40.8922 42.7656 40.6508 42.6647 40.4719 42.4857L38.5265 40.5268C38.1594 40.1506 38.1631 39.5478 38.5375 39.1826C38.9082 38.8184 39.512 38.8229 39.8791 39.19L41.1528 40.4727L45.1281 36.5181C45.3061 36.3373 45.5475 36.2382 45.7998 36.2382Z"/>
</mask>
<path fill-rule="evenodd" clip-rule="evenodd" d="M50.6303 31.3729C51.6856 32.4308 52.517 33.6602 53.097 35.0291L53.0961 35.0283C53.6972 36.4459 54 37.9507 54 39.5013C54 45.8414 48.8409 50.9998 42.5 50.9998C36.1591 50.9998 31 45.8414 31 39.5013C31 33.1612 36.1591 28.0018 42.5 28C44.0509 28 45.5558 28.3055 46.9736 28.9065C48.3435 29.4873 49.5732 30.3177 50.6303 31.3729ZM45.7998 36.2382C46.0512 36.2382 46.2926 36.3392 46.4715 36.5181L46.4743 36.518L46.4762 36.5226C46.8405 36.8933 46.8359 37.497 46.4688 37.864L41.8162 42.4885C41.6373 42.6665 41.3987 42.7656 41.1463 42.7656C40.8922 42.7656 40.6508 42.6647 40.4719 42.4857L38.5265 40.5268C38.1594 40.1506 38.1631 39.5478 38.5375 39.1826C38.9082 38.8184 39.512 38.8229 39.8791 39.19L41.1528 40.4727L45.1281 36.5181C45.3061 36.3373 45.5475 36.2382 45.7998 36.2382Z" fill="black"/>
<path d="M53.097 35.0291L50.3923 37.9761L56.7801 33.4687L53.097 35.0291ZM50.6303 31.3729L53.4623 28.5479L53.4561 28.5418L50.6303 31.3729ZM53.0961 35.0283L55.8008 32.0813L49.4135 36.5898L53.0961 35.0283ZM42.5 28L42.5 24L42.4988 24L42.5 28ZM46.9736 28.9065L48.5349 25.2238L48.5347 25.2237L46.9736 28.9065ZM46.4715 36.5181L43.6433 39.3467L44.8685 40.5717L46.6001 40.516L46.4715 36.5181ZM46.4743 36.518L50.1883 35.0327L49.1475 32.43L46.3458 32.5201L46.4743 36.518ZM46.4762 36.5226L42.7621 38.0079L43.0604 38.7536L43.6233 39.3264L46.4762 36.5226ZM46.4688 37.864L49.2887 40.701L49.2971 40.6926L46.4688 37.864ZM41.8162 42.4885L38.9964 39.6515L38.9954 39.6525L41.8162 42.4885ZM40.4719 42.4857L37.6337 45.3044L37.6436 45.3144L40.4719 42.4857ZM38.5265 40.5268L35.6635 43.3203L35.6758 43.3329L35.6883 43.3454L38.5265 40.5268ZM38.5375 39.1826L41.3304 42.0461L41.3356 42.041L41.3409 42.0358L38.5375 39.1826ZM39.8791 39.19L42.7174 36.3715L42.7124 36.3664L42.7073 36.3614L39.8791 39.19ZM41.1528 40.4727L38.3144 43.2911L41.1354 46.1321L43.9738 43.3085L41.1528 40.4727ZM45.1281 36.5181L47.9491 39.3539L47.9636 39.3395L47.9779 39.3249L45.1281 36.5181ZM56.7801 33.4687C55.9972 31.621 54.8746 29.9638 53.4623 28.548L47.7984 34.1978C48.4967 34.8978 49.0368 35.6994 49.4139 36.5895L56.7801 33.4687ZM50.3914 37.9753L50.3923 37.9761L55.8016 32.0821L55.8008 32.0813L50.3914 37.9753ZM58 39.5013C58 37.4214 57.592 35.385 56.7787 33.4668L49.4135 36.5898C49.8023 37.5068 50 38.4799 50 39.5013H58ZM42.5 54.9998C51.0496 54.9998 58 48.051 58 39.5013H50C50 43.6318 46.6323 46.9998 42.5 46.9998V54.9998ZM27 39.5013C27 48.051 33.9504 54.9998 42.5 54.9998V46.9998C38.3677 46.9998 35 43.6318 35 39.5013H27ZM42.4988 24C33.9499 24.0025 27 30.9518 27 39.5013H35C35 35.3706 38.3682 32.0012 42.5012 32L42.4988 24ZM48.5347 25.2237C46.6209 24.4125 44.5849 24 42.5 24V32C43.5169 32 44.4907 32.1986 45.4125 32.5893L48.5347 25.2237ZM53.4561 28.5418C52.039 27.1273 50.381 26.0065 48.5349 25.2238L45.4122 32.5892C46.3061 32.9682 47.1073 33.508 47.8045 34.2039L53.4561 28.5418ZM49.2998 33.6895C48.3806 32.7705 47.126 32.2382 45.7998 32.2382V40.2382C44.9765 40.2382 44.2045 39.9079 43.6433 39.3467L49.2998 33.6895ZM46.3458 32.5201L46.343 32.5201L46.6001 40.516L46.6029 40.5159L46.3458 32.5201ZM50.1902 35.0373L50.1883 35.0327L42.7603 38.0033L42.7621 38.0079L50.1902 35.0373ZM49.2971 40.6926C51.2075 38.7825 51.2416 35.6649 49.329 33.7188L43.6233 39.3264C42.4393 38.1216 42.4643 36.2115 43.6406 35.0354L49.2971 40.6926ZM44.6361 45.3255L49.2887 40.701L43.649 35.027L38.9964 39.6515L44.6361 45.3255ZM41.1463 46.7656C42.463 46.7656 43.7137 46.243 44.6371 45.3245L38.9954 39.6525C39.5609 39.09 40.3344 38.7656 41.1463 38.7656V46.7656ZM37.6436 45.3144C38.5671 46.2377 39.8235 46.7656 41.1463 46.7656V38.7656C41.9608 38.7656 42.7345 39.0916 43.3001 39.6571L37.6436 45.3144ZM35.6883 43.3454L37.6337 45.3044L43.3101 39.6671L41.3647 37.7082L35.6883 43.3454ZM35.7446 36.3191C33.7624 38.2524 33.779 41.3889 35.6635 43.3203L41.3894 37.7333C42.5398 38.9123 42.5638 40.8432 41.3304 42.0461L35.7446 36.3191ZM42.7073 36.3614C40.7972 34.4515 37.6801 34.4173 35.7341 36.3294L41.3409 42.0358C40.1363 43.2194 38.2268 43.1944 37.0508 42.0186L42.7073 36.3614ZM43.9911 37.6542L42.7174 36.3715L37.0407 42.0084L38.3144 43.2911L43.9911 37.6542ZM42.307 33.6823L38.3317 37.6369L43.9738 43.3085L47.9491 39.3539L42.307 33.6823ZM45.7998 32.2382C44.4942 32.2382 43.2207 32.7543 42.2782 33.7113L47.9779 39.3249C47.3915 39.9203 46.6007 40.2382 45.7998 40.2382V32.2382Z" fill="white" mask="url(#path-2-outside-1_501_438)"/>
</g>
<defs>
<clipPath id="clip0_501_438">
<rect width="54" height="51" fill="white"/>
</clipPath>
</defs>
</svg>
