<svg width="70" height="56" viewBox="0 0 70 56" fill="none" xmlns="http://www.w3.org/2000/svg">
<path opacity="0.1" d="M22.8429 8.21909V47.7809C22.85 51.7651 26.0781 54.9958 30.0644 55H61.8568C65.8434 54.9953 69.0717 51.7648 69.0784 47.7809V8.21909C69.0712 4.23494 65.8432 1.00425 61.8568 1H30.0644C26.0779 1.00474 22.8496 4.23518 22.8429 8.21909Z" fill="black"/>
<path d="M11.9214 8.21909V47.7809C11.9286 51.7651 15.1566 54.9958 19.143 55H50.9354C54.9219 54.9953 58.1502 51.7648 58.1569 47.7809V8.21909C58.1498 4.23494 54.9217 1.00425 50.9354 1H19.143C15.1564 1.00474 11.9281 4.23518 11.9214 8.21909Z" fill="black" fill-opacity="0.3" stroke="white"/>
<path d="M0.999969 8.21909V47.7809C1.00708 51.7651 4.23515 54.9958 8.22149 55H40.0139C44.0004 54.9953 47.2287 51.7648 47.2354 47.7809V8.21909C47.2283 4.23494 44.0002 1.00425 40.0139 1H8.22149C4.23497 1.00474 1.00664 4.23518 0.999969 8.21909Z" fill="black" stroke="white"/>
<path fill-rule="evenodd" clip-rule="evenodd" d="M34.5032 18.0126C35.8395 19.3522 36.8922 20.9089 37.6266 22.6424L37.6255 22.6414C38.3866 24.4364 38.7701 26.3418 38.7701 28.3053C38.7701 36.3335 32.2374 42.8654 24.2081 42.8654C16.1788 42.8654 9.64613 36.3335 9.64613 28.3053C9.64613 20.2771 16.1788 13.744 24.2081 13.7417C26.172 13.7417 28.0775 14.1286 29.8728 14.8896C31.6075 15.625 33.1646 16.6765 34.5032 18.0126ZM12.0538 28.3063C12.0538 35.0077 17.5058 40.459 24.2081 40.459C30.9103 40.459 36.3623 35.0077 36.3623 28.3063C36.3623 21.605 30.9103 16.1537 24.2081 16.1537C17.5058 16.1537 12.0538 21.605 12.0538 28.3063ZM28.3865 24.1734C28.7049 24.1734 29.0105 24.3012 29.2371 24.5278L29.2406 24.5277L29.2429 24.5335C29.7042 25.0028 29.6984 25.7673 29.2336 26.232L23.3423 32.0878C23.1157 32.3132 22.8136 32.4387 22.494 32.4387C22.1722 32.4387 21.8666 32.3109 21.64 32.0844L19.1766 29.6039C18.7118 29.1275 18.7164 28.3642 19.1905 27.9018C19.66 27.4405 20.4245 27.4463 20.8893 27.9111L22.5022 29.5353L27.5359 24.5278C27.7613 24.2989 28.067 24.1734 28.3865 24.1734Z" fill="white"/>
</svg>
