<svg width="72" height="72" viewBox="0 0 72 72" fill="none" xmlns="http://www.w3.org/2000/svg">
<path fill-rule="evenodd" clip-rule="evenodd" d="M36 72C55.8823 72 72 55.8823 72 36C72 16.1177 55.8823 0 36 0C16.1177 0 0 16.1177 0 36C0 55.8823 16.1177 72 36 72ZM38.8305 18.5266L24.5648 37.6505C23.9201 38.4849 24.5263 39.6988 25.5889 39.6988H32.7225L30.1421 52.4483C29.8768 53.8148 31.6213 54.5736 32.4572 53.4724L46.7244 34.3114C47.3677 33.514 46.7615 32.3001 45.6988 32.3001L38.5652 32.3002L41.1456 19.5508C41.4109 18.1857 39.6664 17.4268 38.8305 18.5266Z" fill="white"/>
</svg>
