<svg width="54" height="43" viewBox="0 0 54 43" fill="none" xmlns="http://www.w3.org/2000/svg">
<path d="M0 14C0 11.7909 1.79086 10 4 10H50C52.2091 10 54 11.7909 54 14V29C54 31.2091 52.2091 33 50 33H4C1.79086 33 0 31.2091 0 29V14Z" fill="white"/>
<path fill-rule="evenodd" clip-rule="evenodd" d="M14 12H12V10H14V12ZM16 31H50C51.1046 31 52 30.1046 52 29V14C52 12.8954 51.1046 12 50 12H16V10H50C52.2091 10 54 11.7909 54 14V29C54 31.2091 52.2091 33 50 33H16V31ZM14 31H12V33H14V31ZM10 10V12H4C2.89543 12 2 12.8954 2 14V29C2 30.1046 2.89543 31 4 31H10V33H4C1.79086 33 0 31.2091 0 29V14C0 11.7909 1.79086 10 4 10H10Z" fill="black"/>
<path fill-rule="evenodd" clip-rule="evenodd" d="M8 1C8 0.447715 8.44772 0 9 0C10.8811 0 12.1398 0.955673 12.8932 1.85982C13.2669 2.30819 13.5255 2.75247 13.6913 3.08404C13.7748 3.25094 13.8362 3.39242 13.8781 3.4959C13.8991 3.54773 13.9153 3.59029 13.9269 3.62205C13.9327 3.63794 13.9374 3.65115 13.9411 3.6615L13.9457 3.67485L13.9474 3.67987L13.9481 3.68196C13.9482 3.6824 13.9487 3.68377 13 4L13.9487 3.68377L14 3.83772V38.999C14 38.9992 14 39 13 39C13.9487 39.3162 13.9485 39.3167 13.9484 39.3171L13.9474 39.3201L13.9457 39.3252L13.9411 39.3385C13.9374 39.3488 13.9327 39.3621 13.9269 39.3779C13.9153 39.4097 13.8991 39.4523 13.8781 39.5041C13.8362 39.6076 13.7748 39.7491 13.6913 39.916C13.5255 40.2475 13.2669 40.6918 12.8932 41.1402C12.1398 42.0443 10.8811 43 9 43C8.44772 43 8 42.5523 8 42C8 41.4477 8.44772 41 9 41C10.1189 41 10.8602 40.4557 11.3568 39.8598C11.6081 39.5582 11.787 39.2525 11.9024 39.0215C11.9437 38.9391 11.976 38.8679 12 38.8118V4.18819C11.976 4.13213 11.9437 4.06087 11.9024 3.97846C11.787 3.74753 11.6081 3.44181 11.3568 3.14018C10.8602 2.54433 10.1189 2 9 2C8.44772 2 8 1.55228 8 1ZM13 39L13.9484 39.3171L14 39.1623V38.999L13 39ZM12.0529 38.6792C12.053 38.6787 12.0531 38.6784 12.0529 38.6792Z" fill="black"/>
<path fill-rule="evenodd" clip-rule="evenodd" d="M18 1C18 0.447715 17.5523 0 17 0C15.1189 0 13.8602 0.955673 13.1068 1.85982C12.7331 2.30819 12.4745 2.75247 12.3087 3.08404C12.2252 3.25094 12.1638 3.39242 12.1219 3.4959C12.1009 3.54773 12.0847 3.59029 12.0731 3.62205C12.0673 3.63794 12.0626 3.65115 12.0589 3.6615L12.0543 3.67485L12.0526 3.67987L12.0519 3.68196C12.0518 3.6824 12.0513 3.68377 13 4L12.0513 3.68377L12 3.83772V38.999C12 38.9992 12 39 13 39C12.0513 39.3162 12.0515 39.3167 12.0516 39.3171L12.0526 39.3201L12.0543 39.3252L12.0589 39.3385C12.0626 39.3488 12.0673 39.3621 12.0731 39.3779C12.0847 39.4097 12.1009 39.4523 12.1219 39.5041C12.1638 39.6076 12.2252 39.7491 12.3087 39.916C12.4745 40.2475 12.7331 40.6918 13.1068 41.1402C13.8602 42.0443 15.1189 43 17 43C17.5523 43 18 42.5523 18 42C18 41.4477 17.5523 41 17 41C15.8811 41 15.1398 40.4557 14.6432 39.8598C14.3919 39.5582 14.213 39.2525 14.0976 39.0215C14.0563 38.9391 14.024 38.8679 14 38.8118V4.18819C14.024 4.13213 14.0563 4.06087 14.0976 3.97846C14.213 3.74753 14.3919 3.44181 14.6432 3.14018C15.1398 2.54433 15.8811 2 17 2C17.5523 2 18 1.55228 18 1ZM13 39L12.0516 39.3171L12 39.1623V38.999L13 39ZM13.9471 38.6792C13.947 38.6787 13.9469 38.6784 13.9471 38.6792Z" fill="black"/>
<path d="M10 22C10 21.4477 10.4477 21 11 21H15C15.5523 21 16 21.4477 16 22V22C16 22.5523 15.5523 23 15 23H11C10.4477 23 10 22.5523 10 22V22Z" fill="black"/>
<path d="M21 25.8548L24.2782 17.1452H26.746L29.9879 25.8548H27.5565L25.5 19.6976H25.379L23.3105 25.8548H21ZM22.8387 24.3065V22.3952H27.9677V24.3065H22.8387Z" fill="black"/>
<path d="M30.7267 25.8548V17.1452H34.6581C35.6178 17.1452 36.3476 17.3669 36.8476 17.8105C37.3557 18.254 37.6097 18.8145 37.6097 19.4919C37.6097 19.9758 37.4928 20.3508 37.2589 20.6169C37.025 20.8831 36.7226 21.0887 36.3517 21.2339V21.3065C36.6742 21.3871 36.9605 21.5282 37.2105 21.7298C37.4605 21.9234 37.6541 22.1734 37.7912 22.4798C37.9363 22.7782 38.0089 23.1331 38.0089 23.5444C38.0089 23.9798 37.9 24.371 37.6823 24.7177C37.4726 25.0645 37.142 25.3427 36.6904 25.5524C36.2468 25.754 35.6742 25.8548 34.9726 25.8548H30.7267ZM32.9283 24.8871L31.9242 23.9435H34.8275C35.1017 23.9435 35.3275 23.871 35.5049 23.7258C35.6823 23.5806 35.771 23.375 35.771 23.1089C35.771 22.8508 35.6863 22.6492 35.517 22.504C35.3476 22.3589 35.1178 22.2863 34.8275 22.2863H31.8759V20.5202H34.525C34.7589 20.5202 34.9565 20.4637 35.1178 20.3508C35.2791 20.2298 35.3597 20.0444 35.3597 19.7944C35.3597 19.5524 35.2791 19.371 35.1178 19.25C34.9646 19.121 34.767 19.0565 34.525 19.0565H32.4444L32.9283 18.6935V24.8871Z" fill="black"/>
<path d="M43.1088 26C42.254 26 41.4959 25.8266 40.8346 25.4798C40.1814 25.1331 39.6653 24.629 39.2863 23.9677C38.9153 23.2984 38.7298 22.4879 38.7298 21.5363C38.7298 20.8185 38.8427 20.1815 39.0685 19.625C39.3024 19.0605 39.6209 18.5847 40.0242 18.1976C40.4274 17.8105 40.8911 17.5161 41.4153 17.3145C41.9475 17.1048 42.5121 17 43.1088 17C43.8508 17 44.5 17.125 45.0564 17.375C45.6209 17.625 46.0766 17.9879 46.4234 18.4637C46.7701 18.9315 46.9959 19.496 47.1008 20.1573L44.8387 20.496C44.7984 20.1895 44.7056 19.9234 44.5605 19.6976C44.4153 19.4637 44.2217 19.2823 43.9798 19.1532C43.7379 19.0242 43.4475 18.9597 43.1088 18.9597C42.6653 18.9597 42.2863 19.0605 41.9717 19.2621C41.6653 19.4556 41.4314 19.7419 41.2701 20.121C41.1088 20.5 41.0282 20.9718 41.0282 21.5363C41.0282 22.0847 41.1088 22.5444 41.2701 22.9153C41.4395 23.2863 41.6814 23.5685 41.9959 23.7621C42.3105 23.9476 42.6814 24.0403 43.1088 24.0403C43.4798 24.0403 43.7863 23.9798 44.0282 23.8589C44.2701 23.7298 44.4596 23.5524 44.5967 23.3266C44.7338 23.0927 44.8225 22.8185 44.8629 22.504L47.125 22.8427C47.0282 23.504 46.8105 24.0726 46.4717 24.5484C46.133 25.0161 45.6814 25.375 45.1169 25.625C44.5524 25.875 43.883 26 43.1088 26Z" fill="black"/>
</svg>
