<svg width="57" height="55" viewBox="0 0 57 55" fill="none" xmlns="http://www.w3.org/2000/svg">
<path d="M55.8055 44.5376L41.4613 30.2508C41.1649 29.9545 40.6902 29.9545 40.3938 30.2508C40.0974 30.5472 39.6228 30.5472 39.3264 30.2508L38.377 29.3015C38.0806 29.0051 38.0806 28.5304 38.377 28.2943C38.6734 27.9979 38.6734 27.5232 38.377 27.287L37.1313 26.0413C36.3024 25.2124 34.9964 25.2124 34.2277 26.0413L32.2711 27.9979L12.2957 8.20086C12.0595 8.02257 11.9391 7.72619 11.821 7.54787L10.8138 5.47321C10.6355 5.11663 10.3391 4.76237 9.98487 4.52385L5.18256 1.02751C5.00427 0.909419 4.70789 0.909419 4.5898 1.08771L2.33684 3.34067C2.21875 3.45876 2.15855 3.75514 2.27664 3.93343L5.77298 8.73574C6.06936 9.09232 6.36574 9.38873 6.72234 9.56466L8.79701 10.5719C9.09339 10.69 9.27168 10.8683 9.44999 11.0465L29.3679 30.8436L27.4113 32.8001C26.5824 33.6291 26.5824 34.935 27.4113 35.7037L28.5969 36.8892C28.8932 37.1856 29.3679 37.1856 29.6643 36.8892C29.9607 36.5929 30.4354 36.5929 30.7317 36.8892L31.6811 37.8386C31.9775 38.135 31.9775 38.6097 31.6811 38.8458C31.3847 39.1422 31.3847 39.6169 31.6811 39.853L46.1433 54.1973C47.2107 55.2045 49.0469 55.2045 50.1143 54.1371L55.8058 48.5058C56.931 47.3829 56.9308 45.6629 55.8055 44.5376Z" fill="black"/>
<path d="M32.2705 25.1548L32.8031 24.6222C33.5139 23.9114 34.5813 23.4969 35.6488 23.4969C36.3018 23.4969 36.8945 23.615 37.4873 23.9716C38.2584 24.3282 39.0294 24.6824 39.8583 24.8005C43.4751 25.3331 47.2678 24.2679 49.9957 21.5403C52.6029 18.9331 53.7306 15.3768 53.3161 11.9382C53.198 10.9888 52.0125 10.5744 51.3595 11.2852L46.2609 16.3237C44.126 18.4586 40.7477 18.4586 38.6154 16.3237C36.4805 14.1888 36.4805 10.8105 38.6154 8.73575L43.7141 3.69728C44.3671 3.0443 44.0105 1.85878 43.0611 1.7407C39.6227 1.38412 36.066 2.45154 33.3985 5.11896C30.0203 8.49722 29.1311 13.4781 30.7914 17.6274L27.7095 20.7093L32.2705 25.1548Z" fill="black"/>
<path d="M9.80604 38.4315C7.25669 37.9568 4.58927 38.7278 2.63245 40.6242C-0.509658 43.7663 -0.449433 48.9228 2.75054 52.1226C5.9505 55.3225 11.1096 55.3225 14.3094 52.2407C16.266 50.2841 16.9768 47.6166 16.5021 45.0671L25.3935 36.1757C25.0971 35.5829 24.861 34.9299 24.861 34.2191C24.861 33.1516 25.2754 32.1444 26.0465 31.3733L26.6392 30.7806L22.0755 26.2747L9.80604 38.4315ZM11.2879 49.2796C9.68796 50.8795 7.07839 50.8795 5.42056 49.2796C3.76035 47.6796 3.82058 45.07 5.42056 43.47C7.02053 41.8701 9.6301 41.8701 11.2879 43.47C12.8879 45.07 12.8879 47.6796 11.2879 49.2796Z" fill="black"/>
</svg>
